;TYPE=PLATED
;Layer: PTH_Through
;EasyEDA Pro Client v3.2.91, 2026-03-10 20:08:44
;Gerber Generator version 0.3
M48
METRIC,LZ,0000.00000
;Hole size 1 = 0.30500 METRIC
T01C0.30500
;Hole size 2 = 0.50800 METRIC
T02C0.50800
;Hole size 3 = 0.91440 METRIC
T03C0.91440
%
G05
G90
T01
X25.1Y13.2
X32.3Y28.957
X21.8Y7.90127
X20.9Y13.2
X67.1Y26.3
X35.8Y16.6
X54.5Y21.8
X13.1Y13.0
X53.9Y25.2
X54.7Y27.7
X27.884Y7.6
X37.9Y20.4
X38.5Y23.5
X38.5Y25.1
X22.8Y3.9
X18.19987Y6.80013
X18.19987Y5.80013
X17.19987Y5.80013
X17.19987Y6.80013
X37.89967Y19.39959
X36.89967Y19.39959
X36.89967Y20.39958
X71.5Y27.3
X76.1Y27.9
X76.1Y23.1
X75.1Y23.1
X75.1Y27.9
X67.1Y24.37254
X70.7Y29.5
X62.0Y20.2
X62.0Y24.1
X62.0Y25.1
X63.0Y24.1
X61.0Y24.1
X68.2Y26.7
X65.7Y26.7
X63.8Y27.8
X64.9Y28.6
X60.3Y30.4
X60.7Y29.4
X59.1Y29.0
X58.6Y30.1
X62.0Y23.1
X71.5Y23.7
X57.4Y27.7
X57.4Y26.0
X56.7Y26.9
X64.7Y26.2
X56.7Y25.2
X18.51549Y1.46718
X21.5Y0.7
X64.8Y8.8
X64.8Y7.8
X65.80033Y8.80042
X65.8Y7.8
X49.73091Y6.20908
X50.73091Y6.20908
X49.7305Y7.20941
X50.73091Y7.20908
X32.3Y26.80013
X35.8Y23.5
X13.3Y4.7
X58.9Y21.8
X58.1Y21.8
X55.3Y21.8
X56.1Y21.8
X43.91799Y16.89997
X43.23998Y16.19997
X63.3315Y6.3315
X67.0Y10.0
X68.7Y10.0
X42.59599Y15.49974
X22.8Y5.3
X13.1Y10.6
X13.1Y7.1
X29.7Y8.4
X63.3Y10.0
X62.3Y6.3
X62.0Y18.6
X69.0Y27.5
X26.2Y18.8
X28.4Y18.8
X39.0Y15.5
X34.5Y15.0
X34.5Y12.9
X43.1Y21.3
X52.2Y33.3
X28.0Y0.7
X30.5Y19.9
X40.9Y14.6
X68.7Y10.9
X67.1Y21.2
X68.6Y21.2
X67.1Y23.5
X44.6Y11.1
X50.0Y11.1
X49.0Y26.90344
X45.3Y26.9
X29.7Y12.4
X26.2Y19.6
X53.68201Y21.418
X56.1Y18.8
X52.9Y21.4
X52.9Y18.8
X65.6Y19.7
X16.0Y17.9
X50.0Y26.9
X34.5Y11.4
X49.7Y0.7
T02
X45.3Y22.433
X36.8Y26.7
X34.8Y26.686
X34.8Y17.6
X29.1Y6.29146
X25.1Y6.3
X15.1Y8.9
X11.77101Y8.9
X69.8Y15.7
X10.2Y8.9
X36.0Y6.3
X58.7Y5.2
X75.7Y3.23822
X42.95336Y6.3
T03
X72.5Y8.0
X72.5Y12.0
M30