G04 Layer: BottomLayer*
G04 EasyEDA Pro v3.2.91, 2026-03-10 20:08:44*
G04 Gerber Generator version 0.3*
G04 Scale: 100 percent, Rotated: No, Reflected: No*
G04 Dimensions in millimeters*
G04 Leading zeros omitted, absolute positions, 4 integers and 5 decimals*
G04 Generated by one-click*
%FSLAX45Y45*%
%MOMM*%
%ADD10C,0.2032*%
%ADD11C,1.524*%
%ADD12C,0.61*%
%ADD13C,1.016*%
%ADD14C,0.254*%
%ADD15C,0.5114*%
%ADD16C,0.508*%
G75*


G04 Copper Start*
G36*
G01X6932023Y1501597D02*
G01X6932023Y2011486D01*
G01X6950000Y2011486D01*
G01X6962556Y2013139D01*
G01X6974257Y2017986D01*
G01X6984305Y2025695D01*
G01X7024305Y2065696D01*
G01X7032014Y2075743D01*
G01X7036861Y2087444D01*
G01X7038514Y2100000D01*
G01X7038514Y2309905D01*
G01X7050095Y2321486D01*
G01X7104790Y2321486D01*
G01X7117521Y2312184D01*
G01X7132088Y2306151D01*
G01X7147668Y2303727D01*
G01X7163380Y2305050D01*
G01X7178335Y2310044D01*
G01X7191688Y2318428D01*
G01X7202685Y2329728D01*
G01X7210703Y2343304D01*
G01X7215290Y2358389D01*
G01X7216185Y2374131D01*
G01X7213339Y2389639D01*
G01X7206912Y2404037D01*
G01X7197268Y2416511D01*
G01X7184952Y2426355D01*
G01X7192319Y2436279D01*
G01X7196940Y2447741D01*
G01X7198514Y2460000D01*
G01X7198514Y2684790D01*
G01X7207122Y2696315D01*
G01X7213042Y2709425D01*
G01X7215995Y2723504D01*
G01X7215843Y2737888D01*
G01X7212593Y2751901D01*
G01X7206398Y2764883D01*
G01X7197548Y2776224D01*
G01X7186462Y2785390D01*
G01X7173660Y2791950D01*
G01X7159744Y2795594D01*
G01X7145370Y2796152D01*
G01X7131214Y2793597D01*
G01X7131214Y2924497D01*
G01X7135448Y2939319D01*
G01X7136146Y2954719D01*
G01X7133269Y2969863D01*
G01X7629811Y2970724D01*
G01X7630872Y1628652D01*
G01X7091601Y1629559D01*
G01X7086514Y1628203D01*
G01X7082788Y1624484D01*
G01X7081424Y1619399D01*
G01X7081424Y1501597D01*
G01X6932023Y1501597D01*
G37*
G36*
G01X420414Y1400000D02*
G01X418440Y1429437D01*
G01X412551Y1458347D01*
G01X402855Y1486211D01*
G01X389523Y1512531D01*
G01X372797Y1536835D01*
G01X352974Y1558687D01*
G01X330410Y1577695D01*
G01X305510Y1593520D01*
G01X278719Y1605878D01*
G01X250518Y1614547D01*
G01X221412Y1619372D01*
G01X191922Y1620266D01*
G01X162577Y1617214D01*
G01X133903Y1610270D01*
G01X106412Y1599559D01*
G01X80599Y1585272D01*
G01X56925Y1567666D01*
G01X35814Y1547055D01*
G01X35814Y1879618D01*
G01X2553687Y1879618D01*
G01X2555336Y1865301D01*
G01X2560038Y1851678D01*
G01X2567573Y1839393D01*
G01X2577584Y1829026D01*
G01X2589598Y1821066D01*
G01X2603048Y1815889D01*
G01X2617298Y1813741D01*
G01X2631676Y1814722D01*
G01X2645503Y1818786D01*
G01X2814497Y1818786D01*
G01X2828945Y1814614D01*
G01X2843962Y1813804D01*
G01X2858774Y1816399D01*
G01X2872622Y1822265D01*
G01X2884791Y1831099D01*
G01X2894658Y1842449D01*
G01X2901713Y1855729D01*
G01X2905595Y1870258D01*
G01X2906103Y1885288D01*
G01X2921486Y1869905D01*
G01X2921486Y1285210D01*
G01X2921486Y1285210D01*
G01X2912388Y1272839D01*
G01X2906379Y1258706D01*
G01X2903782Y1243571D01*
G01X2904736Y1228244D01*
G01X2909190Y1213547D01*
G01X2916905Y1200269D01*
G01X2927468Y1189122D01*
G01X2940311Y1180703D01*
G01X2954747Y1175464D01*
G01X2970000Y1173686D01*
G01X2985253Y1175464D01*
G01X2999689Y1180703D01*
G01X3012532Y1189122D01*
G01X3023094Y1200269D01*
G01X3030810Y1213547D01*
G01X3035264Y1228244D01*
G01X3036218Y1243571D01*
G01X3033621Y1258706D01*
G01X3027612Y1272839D01*
G01X3018514Y1285210D01*
G01X3018514Y1496429D01*
G01X3383782Y1496429D01*
G01X3386379Y1481294D01*
G01X3392388Y1467161D01*
G01X3401486Y1454790D01*
G01X3401486Y1335210D01*
G01X3392388Y1322839D01*
G01X3386379Y1308706D01*
G01X3383782Y1293571D01*
G01X3384737Y1278244D01*
G01X3389191Y1263547D01*
G01X3396906Y1250269D01*
G01X3407468Y1239122D01*
G01X3420311Y1230703D01*
G01X3434747Y1225464D01*
G01X3450000Y1223686D01*
G01X3450000Y1223686D01*
G01X3465254Y1225464D01*
G01X3479689Y1230703D01*
G01X3492532Y1239122D01*
G01X3503095Y1250269D01*
G01X3510810Y1263547D01*
G01X3515264Y1278244D01*
G01X3516218Y1293571D01*
G01X3513621Y1308706D01*
G01X3507612Y1322839D01*
G01X3498514Y1335210D01*
G01X3498514Y1454790D01*
G01X3507612Y1467161D01*
G01X3513621Y1481294D01*
G01X3516218Y1496429D01*
G01X3515264Y1511756D01*
G01X3510810Y1526453D01*
G01X3503095Y1539731D01*
G01X3492532Y1550878D01*
G01X3479689Y1559297D01*
G01X3465254Y1564536D01*
G01X3450000Y1566314D01*
G01X3434747Y1564536D01*
G01X3420311Y1559297D01*
G01X3407468Y1550878D01*
G01X3396906Y1539731D01*
G01X3389191Y1526453D01*
G01X3384737Y1511756D01*
G01X3383782Y1496429D01*
G01X3018514Y1496429D01*
G01X3018514Y1890000D01*
G01X3016861Y1902556D01*
G01X3012014Y1914257D01*
G01X3004304Y1924305D01*
G01X2955904Y1972705D01*
G01X2945857Y1980415D01*
G01X2934156Y1985261D01*
G01X2921600Y1986914D01*
G01X2680607Y1986914D01*
G01X2672440Y2000591D01*
G01X2661247Y2011926D01*
G01X2647674Y2020264D01*
G01X2632504Y2025125D01*
G01X2616612Y2026227D01*
G01X2600916Y2023509D01*
G01X2586321Y2017125D01*
G01X2573670Y2007445D01*
G01X2563692Y1995028D01*
G01X2556963Y1980589D01*
G01X2553872Y1964962D01*
G01X2554596Y1949049D01*
G01X2559095Y1933768D01*
G01X2567108Y1920000D01*
G01X2559716Y1907629D01*
G01X2555170Y1893953D01*
G01X2553687Y1879618D01*
G01X35814Y1879618D01*
G01X35814Y2848900D01*
G01X3097686Y2848900D01*
G01X3097686Y2650562D01*
G01X3098862Y2638620D01*
G01X3102345Y2627137D01*
G01X3108002Y2616553D01*
G01X3115615Y2607277D01*
G01X3166177Y2556715D01*
G01X3175453Y2549102D01*
G01X3186036Y2543446D01*
G01X3197520Y2539962D01*
G01X3209462Y2538786D01*
G01X3283844Y2538786D01*
G01X3318786Y2503845D01*
G01X3318786Y1710800D01*
G01X3319962Y1698858D01*
G01X3323446Y1687374D01*
G01X3329103Y1676791D01*
G01X3336715Y1667515D01*
G01X3387515Y1616715D01*
G01X3387515Y1616715D01*
G01X3396791Y1609102D01*
G01X3407375Y1603446D01*
G01X3418858Y1599962D01*
G01X3430800Y1598786D01*
G01X3554497Y1598786D01*
G01X3569912Y1594458D01*
G01X3585915Y1593950D01*
G01X3601573Y1597293D01*
G01X3615974Y1604291D01*
G01X3628277Y1614537D01*
G01X3637766Y1627433D01*
G01X3643888Y1642228D01*
G01X3646286Y1658058D01*
G01X3644819Y1674002D01*
G01X3639574Y1689129D01*
G01X3630856Y1702559D01*
G01X3619173Y1713507D01*
G01X3605207Y1721337D01*
G01X3589771Y1725590D01*
G01X3573766Y1726020D01*
G01X3558124Y1722602D01*
G01X3562806Y1734599D01*
G01X3565657Y1747158D01*
G01X3566614Y1760000D01*
G01X3566614Y2285051D01*
G01X3577791Y2283723D01*
G01X3589031Y2284304D01*
G01X3600011Y2286777D01*
G01X3608006Y2271845D01*
G01X3618755Y2258755D01*
G01X3695455Y2182055D01*
G01X3708580Y2171283D01*
G01X3723554Y2163279D01*
G01X3739802Y2158350D01*
G01X3756700Y2156686D01*
G01X4530000Y2156686D01*
G01X4547440Y2158460D01*
G01X4564165Y2163709D01*
G01X4579491Y2172218D01*
G01X4592790Y2183639D01*
G01X4603517Y2197504D01*
G01X4611232Y2213245D01*
G01X4615620Y2230216D01*
G01X4616501Y2247724D01*
G01X4613838Y2265050D01*
G01X4607742Y2281486D01*
G01X5144600Y2281486D01*
G01X5154038Y2282413D01*
G01X5163116Y2285158D01*
G01X5171486Y2289617D01*
G01X5171486Y2110095D01*
G01X5164505Y2103114D01*
G01X4285400Y2103114D01*
G01X4272844Y2101461D01*
G01X4261143Y2096614D01*
G01X4251095Y2088904D01*
G01X4225695Y2063504D01*
G01X4217986Y2053457D01*
G01X4213139Y2041756D01*
G01X4211486Y2029200D01*
G01X4211486Y1815822D01*
G01X4211085Y1809599D01*
G01X4211085Y1595184D01*
G01X4201512Y1581965D01*
G01X4195457Y1566808D01*
G01X4193288Y1550631D01*
G01X4195136Y1534414D01*
G01X4200890Y1519139D01*
G01X4210200Y1505733D01*
G01X4222502Y1495007D01*
G01X4237052Y1487611D01*
G01X4252968Y1483993D01*
G01X4269285Y1484371D01*
G01X4285016Y1488725D01*
G01X4299207Y1496788D01*
G01X4310998Y1508074D01*
G01X4319676Y1521897D01*
G01X4324714Y1537422D01*
G01X4325808Y1553707D01*
G01X4340776Y1555840D01*
G01X4354871Y1561308D01*
G01X4367362Y1569826D01*
G01X4377599Y1580952D01*
G01X4385050Y1594108D01*
G01X4389327Y1608609D01*
G01X4390208Y1623702D01*
G01X4405656Y1625147D01*
G01X4420345Y1630141D01*
G01X4433471Y1638412D01*
G01X4444316Y1649506D01*
G01X4452287Y1662817D01*
G01X4456947Y1677615D01*
G01X4458041Y1693091D01*
G01X4455509Y1708398D01*
G01X4449490Y1722697D01*
G01X4440313Y1735207D01*
G01X4440313Y1891704D01*
G01X4460095Y1911486D01*
G01X5830000Y1911486D01*
G01X5842556Y1913139D01*
G01X5854257Y1917986D01*
G01X5864304Y1925695D01*
G01X5894305Y1955696D01*
G01X5902014Y1965743D01*
G01X5906861Y1977444D01*
G01X5908514Y1990000D01*
G01X5908514Y2044850D01*
G01X5915695Y2035695D01*
G01X5965695Y1985695D01*
G01X5975743Y1977986D01*
G01X5987444Y1973139D01*
G01X6000000Y1971486D01*
G01X6154790Y1971486D01*
G01X6167102Y1962422D01*
G01X6181162Y1956418D01*
G01X6196224Y1953794D01*
G01X6211486Y1954688D01*
G01X6211486Y1930095D01*
G01X6207302Y1925911D01*
G01X6192037Y1925834D01*
G01X6177194Y1922269D01*
G01X6163559Y1915404D01*
G01X6151856Y1905604D01*
G01X6142703Y1893386D01*
G01X6136587Y1879400D01*
G01X6133831Y1864386D01*
G01X6134581Y1849139D01*
G01X6138798Y1834468D01*
G01X6146258Y1821150D01*
G01X6156566Y1809890D01*
G01X6169175Y1801286D01*
G01X6183418Y1795793D01*
G01X6198539Y1793702D01*
G01X6213738Y1795125D01*
G01X6228209Y1799985D01*
G01X6241185Y1808025D01*
G01X6251978Y1818820D01*
G01X6260018Y1831796D01*
G01X6264877Y1846268D01*
G01X6294305Y1875695D01*
G01X6302014Y1885743D01*
G01X6306861Y1897444D01*
G01X6308514Y1910000D01*
G01X6308514Y2053000D01*
G01X6306861Y2065556D01*
G01X6302014Y2077257D01*
G01X6294305Y2087305D01*
G01X6268905Y2112705D01*
G01X6258857Y2120414D01*
G01X6247157Y2125261D01*
G01X6234600Y2126914D01*
G01X6051695Y2126914D01*
G01X6048514Y2130095D01*
G01X6048514Y2240000D01*
G01X6046861Y2252556D01*
G01X6042014Y2264257D01*
G01X6034305Y2274305D01*
G01X5994305Y2314305D01*
G01X5984257Y2322014D01*
G01X5972556Y2326861D01*
G01X5960000Y2328514D01*
G01X5610095Y2328514D01*
G01X5608514Y2330095D01*
G01X5608514Y2437254D01*
G01X6643686Y2437254D01*
G01X6645677Y2421124D01*
G01X6651532Y2405964D01*
G01X6660899Y2392682D01*
G01X6673214Y2382078D01*
G01X6687739Y2374788D01*
G01X6703601Y2371249D01*
G01X6719848Y2371675D01*
G01X6735503Y2376040D01*
G01X6891864Y2376040D01*
G01X6891486Y2370000D01*
G01X6891486Y2250834D01*
G01X6887435Y2241730D01*
G01X6886049Y2231863D01*
G01X6886049Y2180984D01*
G01X6872448Y2185135D01*
G01X6858274Y2186292D01*
G01X6844180Y2184399D01*
G01X6830813Y2179546D01*
G01X6818789Y2171954D01*
G01X6808659Y2161973D01*
G01X6800891Y2150061D01*
G01X6795841Y2136768D01*
G01X6793741Y2122703D01*
G01X6794688Y2108514D01*
G01X6775312Y2108514D01*
G01X6776141Y2124790D01*
G01X6772975Y2140776D01*
G01X6766006Y2155508D01*
G01X6755655Y2168095D01*
G01X6742546Y2177778D01*
G01X6727472Y2183971D01*
G01X6711343Y2186301D01*
G01X6695132Y2184626D01*
G01X6679819Y2179048D01*
G01X6666329Y2169904D01*
G01X6655477Y2157747D01*
G01X6647917Y2143309D01*
G01X6644107Y2127464D01*
G01X6644277Y2111168D01*
G01X6648415Y2095405D01*
G01X6656274Y2081128D01*
G01X6667377Y2069198D01*
G01X6681054Y2060337D01*
G01X6715695Y2025695D01*
G01X6725743Y2017986D01*
G01X6737444Y2013139D01*
G01X6750000Y2011486D01*
G01X6886049Y2011486D01*
G01X6886049Y1491437D01*
G01X6887802Y1480370D01*
G01X6892889Y1470386D01*
G01X6900812Y1462463D01*
G01X6910796Y1457376D01*
G01X6921863Y1455623D01*
G01X7091584Y1455623D01*
G01X7102651Y1457376D01*
G01X7112635Y1462463D01*
G01X7120558Y1470386D01*
G01X7125645Y1480370D01*
G01X7127398Y1491437D01*
G01X7127398Y1583524D01*
G01X7640980Y1582661D01*
G01X7652067Y1584401D01*
G01X7662071Y1589486D01*
G01X7670010Y1597418D01*
G01X7675104Y1607418D01*
G01X7676854Y1618503D01*
G01X7676346Y2260986D01*
G01X7812088Y2260986D01*
G01X7814001Y2245236D01*
G01X7819627Y2230401D01*
G01X7828640Y2217343D01*
G01X7840516Y2206822D01*
G01X7854564Y2199449D01*
G01X7869969Y2195652D01*
G01X7885835Y2195652D01*
G01X7901240Y2199449D01*
G01X7915289Y2206822D01*
G01X7927165Y2217343D01*
G01X7936178Y2230401D01*
G01X7941804Y2245236D01*
G01X7943716Y2260986D01*
G01X7941804Y2276736D01*
G01X7936178Y2291571D01*
G01X7927165Y2304629D01*
G01X7915289Y2315150D01*
G01X7901240Y2322523D01*
G01X7885835Y2326320D01*
G01X7869969Y2326320D01*
G01X7854564Y2322523D01*
G01X7840516Y2315150D01*
G01X7828640Y2304629D01*
G01X7819627Y2291571D01*
G01X7814001Y2276736D01*
G01X7812088Y2260986D01*
G01X7812088Y2260986D01*
G01X7676346Y2260986D01*
G01X7676308Y2309123D01*
G01X7676314Y2310052D01*
G01X7676307Y2310981D01*
G01X7675934Y2782907D01*
G01X7676314Y2790052D01*
G01X7675922Y2797198D01*
G01X7675889Y2838988D01*
G01X7812088Y2838988D01*
G01X7814001Y2823238D01*
G01X7819627Y2808403D01*
G01X7828640Y2795346D01*
G01X7840516Y2784825D01*
G01X7854564Y2777451D01*
G01X7869969Y2773654D01*
G01X7885835Y2773654D01*
G01X7901240Y2777451D01*
G01X7915289Y2784825D01*
G01X7927165Y2795346D01*
G01X7936178Y2808403D01*
G01X7941804Y2823238D01*
G01X7943716Y2838988D01*
G01X7941804Y2854739D01*
G01X7936178Y2869574D01*
G01X7927165Y2882631D01*
G01X7915289Y2893152D01*
G01X7901240Y2900526D01*
G01X7885835Y2904323D01*
G01X7869969Y2904323D01*
G01X7854564Y2900526D01*
G01X7840516Y2893152D01*
G01X7828640Y2882631D01*
G01X7819627Y2869574D01*
G01X7814001Y2854739D01*
G01X7812088Y2838988D01*
G01X7812088Y2838988D01*
G01X7675889Y2838988D01*
G01X7675777Y2980930D01*
G01X7674013Y2992003D01*
G01X7668913Y3001987D01*
G01X7660975Y3009905D01*
G01X7650978Y3014980D01*
G01X7639901Y3016716D01*
G01X7119938Y3015814D01*
G01X7109237Y3014158D01*
G01X7099521Y3009381D01*
G01X7084385Y3014735D01*
G01X7068407Y3016295D01*
G01X7052522Y3013969D01*
G01X7037661Y3007894D01*
G01X7024696Y2998426D01*
G01X7014386Y2986120D01*
G01X7007336Y2971697D01*
G01X7003958Y2956002D01*
G01X7004451Y2939955D01*
G01X7008786Y2924497D01*
G01X7008786Y2564256D01*
G01X6993798Y2549268D01*
G01X6993798Y2549268D01*
G01X6947312Y2549268D01*
G01X6935370Y2548092D01*
G01X6923886Y2544608D01*
G01X6913303Y2538952D01*
G01X6904027Y2531339D01*
G01X6871156Y2498468D01*
G01X6735503Y2498468D01*
G01X6719848Y2502833D01*
G01X6703601Y2503259D01*
G01X6687739Y2499720D01*
G01X6673214Y2492430D01*
G01X6660899Y2481826D01*
G01X6651532Y2468544D01*
G01X6645677Y2453383D01*
G01X6643686Y2437254D01*
G01X5608514Y2437254D01*
G01X5608514Y2469905D01*
G01X5610095Y2471486D01*
G01X5624790Y2471486D01*
G01X5635953Y2463094D01*
G01X5648626Y2457225D01*
G01X5662247Y2454141D01*
G01X5676212Y2453978D01*
G01X5689902Y2456743D01*
G01X5702708Y2462314D01*
G01X5714064Y2470443D01*
G01X5723466Y2480770D01*
G01X5730496Y2492838D01*
G01X5734843Y2506110D01*
G01X5736314Y2519998D01*
G01X5734844Y2533887D01*
G01X5750634Y2534544D01*
G01X5765819Y2538919D01*
G01X5779539Y2546762D01*
G01X5791013Y2557630D01*
G01X5799590Y2570903D01*
G01X5804782Y2585829D01*
G01X5806296Y2601560D01*
G01X5804044Y2617202D01*
G01X5798155Y2631867D01*
G01X5788963Y2644723D01*
G01X5776991Y2655038D01*
G01X5762918Y2662228D01*
G01X5747543Y2665884D01*
G01X5731740Y2665797D01*
G01X5735735Y2681252D01*
G01X5735921Y2697213D01*
G01X5732287Y2712756D01*
G01X5725045Y2726981D01*
G01X5714614Y2739063D01*
G01X5701597Y2748302D01*
G01X5686750Y2754164D01*
G01X5670932Y2756307D01*
G01X5655061Y2754609D01*
G01X5640055Y2749168D01*
G01X5626784Y2740298D01*
G01X5616017Y2728514D01*
G01X5230095Y2728514D01*
G01X5218514Y2740095D01*
G01X5218514Y3259905D01*
G01X5222336Y3263727D01*
G01X5237518Y3266041D01*
G01X5251759Y3271786D01*
G01X5264298Y3280652D01*
G01X5274461Y3292164D01*
G01X5281704Y3305706D01*
G01X5285637Y3320550D01*
G01X5286051Y3335901D01*
G01X5282922Y3350936D01*
G01X5276420Y3364848D01*
G01X5266891Y3376891D01*
G01X5254848Y3386420D01*
G01X5240936Y3392922D01*
G01X5225901Y3396051D01*
G01X5210550Y3395637D01*
G01X5195706Y3391704D01*
G01X5182164Y3384461D01*
G01X5170652Y3374298D01*
G01X5161786Y3361759D01*
G01X5156041Y3347517D01*
G01X5153727Y3332336D01*
G01X5135695Y3314305D01*
G01X5127986Y3304257D01*
G01X5123139Y3292556D01*
G01X5121486Y3280000D01*
G01X5121486Y2720000D01*
G01X5123139Y2707444D01*
G01X5127986Y2695743D01*
G01X5135695Y2685696D01*
G01X5161391Y2660000D01*
G01X5135695Y2634304D01*
G01X5127986Y2624257D01*
G01X5123139Y2612556D01*
G01X5121486Y2600000D01*
G01X5121486Y2378514D01*
G01X3909871Y2378514D01*
G01X3901361Y2391948D01*
G01X3889898Y2402969D01*
G01X3876140Y2410945D01*
G01X3860880Y2415416D01*
G01X3844993Y2416125D01*
G01X3829395Y2413032D01*
G01X3814981Y2406314D01*
G01X3802581Y2396358D01*
G01X3792908Y2383736D01*
G01X3786518Y2369174D01*
G01X3783779Y2353510D01*
G01X3784847Y2337643D01*
G01X3766614Y2355877D01*
G01X3766614Y2670000D01*
G01X3764598Y2688579D01*
G01X3764120Y2690000D01*
G01X4463686Y2690000D01*
G01X4465464Y2674747D01*
G01X4470703Y2660311D01*
G01X4479122Y2647468D01*
G01X4490269Y2636905D01*
G01X4503547Y2629190D01*
G01X4518244Y2624736D01*
G01X4533571Y2623782D01*
G01X4548706Y2626379D01*
G01X4562839Y2632388D01*
G01X4575210Y2641486D01*
G01X4855163Y2641486D01*
G01X4867603Y2632483D01*
G01X4881781Y2626582D01*
G01X4896935Y2624101D01*
G01X4912254Y2625172D01*
G01X4926916Y2629738D01*
G01X4940135Y2637555D01*
G01X4951201Y2648202D01*
G01X4959522Y2661109D01*
G01X4964650Y2675583D01*
G01X4966312Y2690850D01*
G01X4966312Y2690850D01*
G01X4964418Y2706089D01*
G01X4959069Y2720484D01*
G01X4950553Y2733262D01*
G01X4939326Y2743740D01*
G01X4925990Y2751353D01*
G01X4911260Y2755696D01*
G01X4895926Y2756533D01*
G01X4880811Y2753821D01*
G01X4866725Y2747706D01*
G01X4854423Y2738514D01*
G01X4575210Y2738514D01*
G01X4562839Y2747612D01*
G01X4548706Y2753621D01*
G01X4533571Y2756218D01*
G01X4518244Y2755264D01*
G01X4503547Y2750810D01*
G01X4490269Y2743094D01*
G01X4479122Y2732532D01*
G01X4470703Y2719689D01*
G01X4465464Y2705253D01*
G01X4463686Y2690000D01*
G01X3764120Y2690000D01*
G01X3758643Y2706293D01*
G01X3749028Y2722318D01*
G01X3736198Y2735907D01*
G01X3720753Y2746428D01*
G01X3703410Y2753390D01*
G01X3684978Y2756471D01*
G01X3666313Y2755526D01*
G01X3648286Y2750599D01*
G01X3631735Y2741920D01*
G01X3623285Y2752485D01*
G01X3572485Y2803285D01*
G01X3563209Y2810898D01*
G01X3552626Y2816554D01*
G01X3541142Y2820038D01*
G01X3529200Y2821214D01*
G01X3270000Y2821214D01*
G01X3258058Y2820038D01*
G01X3246574Y2816554D01*
G01X3235991Y2810898D01*
G01X3226715Y2803285D01*
G01X3220114Y2796683D01*
G01X3220114Y2823544D01*
G01X3226072Y2829502D01*
G01X3240924Y2830292D01*
G01X3255227Y2834372D01*
G01X3268260Y2841537D01*
G01X3279369Y2851426D01*
G01X3287995Y2863542D01*
G01X3293703Y2877277D01*
G01X3296207Y2891937D01*
G01X3295380Y2906788D01*
G01X3291265Y2921080D01*
G01X3284068Y2934096D01*
G01X3274151Y2945180D01*
G01X3262013Y2953775D01*
G01X3248264Y2959449D01*
G01X3233597Y2961916D01*
G01X3218749Y2961053D01*
G01X3204467Y2956902D01*
G01X3189064Y2954610D01*
G01X3174738Y2948506D01*
G01X3162415Y2938985D01*
G01X3115615Y2892185D01*
G01X3108002Y2882908D01*
G01X3102345Y2872325D01*
G01X3098862Y2860842D01*
G01X3097686Y2848900D01*
G01X35814Y2848900D01*
G01X35814Y3300000D01*
G01X37835Y3325684D01*
G01X43850Y3350736D01*
G01X53709Y3374539D01*
G01X67171Y3396506D01*
G01X83903Y3416097D01*
G01X103494Y3432829D01*
G01X125461Y3446291D01*
G01X149264Y3456150D01*
G01X174316Y3462165D01*
G01X200000Y3464186D01*
G01X5364186Y3464186D01*
G01X5364186Y3000000D01*
G01X5365939Y2988933D01*
G01X5371026Y2978949D01*
G01X5378949Y2971026D01*
G01X5388933Y2965939D01*
G01X5400000Y2964186D01*
G01X5600000Y2964186D01*
G01X5611067Y2965939D01*
G01X5621051Y2971026D01*
G01X5628974Y2978949D01*
G01X5634061Y2988933D01*
G01X5635814Y3000000D01*
G01X5635814Y3189586D01*
G01X8364186Y3189586D01*
G01X8364186Y1785814D01*
G01X8000000Y1785814D01*
G01X7988933Y1784061D01*
G01X7978949Y1778974D01*
G01X7971026Y1771051D01*
G01X7965939Y1761067D01*
G01X7964186Y1750000D01*
G01X7964186Y1547055D01*
G01X7943075Y1567665D01*
G01X7919401Y1585272D01*
G01X7893588Y1599559D01*
G01X7866097Y1610270D01*
G01X7837423Y1617214D01*
G01X7808078Y1620266D01*
G01X7778588Y1619371D01*
G01X7749482Y1614546D01*
G01X7721281Y1605877D01*
G01X7694490Y1593520D01*
G01X7669590Y1577695D01*
G01X7647026Y1558686D01*
G01X7627203Y1536834D01*
G01X7610477Y1512531D01*
G01X7597145Y1486211D01*
G01X7587449Y1458347D01*
G01X7581560Y1429437D01*
G01X7579586Y1400000D01*
G01X7581560Y1370563D01*
G01X7587449Y1341653D01*
G01X7597145Y1313788D01*
G01X7610477Y1287469D01*
G01X7627203Y1263165D01*
G01X7647026Y1241313D01*
G01X7669590Y1222305D01*
G01X7694490Y1206480D01*
G01X7721281Y1194122D01*
G01X7749482Y1185453D01*
G01X7778588Y1180628D01*
G01X7808078Y1179734D01*
G01X7837423Y1182786D01*
G01X7866097Y1189730D01*
G01X7893588Y1200441D01*
G01X7919401Y1214728D01*
G01X7943075Y1232334D01*
G01X7964186Y1252944D01*
G01X7964186Y200000D01*
G01X7962165Y174316D01*
G01X7956150Y149264D01*
G01X7946291Y125461D01*
G01X7932829Y103494D01*
G01X7916097Y83903D01*
G01X7896506Y67171D01*
G01X7874539Y53709D01*
G01X7850736Y43850D01*
G01X7825684Y37835D01*
G01X7800000Y35814D01*
G01X2206823Y35814D01*
G01X2213318Y50292D01*
G01X2216187Y65898D01*
G01X2215267Y81739D01*
G01X2210609Y96909D01*
G01X2202482Y110537D01*
G01X2191349Y121844D01*
G01X2177849Y130183D01*
G01X2162754Y135076D01*
G01X2146929Y136243D01*
G01X2131280Y133617D01*
G01X2116703Y127349D01*
G01X2104032Y117797D01*
G01X2093993Y105508D01*
G01X2087161Y91186D01*
G01X1907423Y91186D01*
G01X1900063Y98546D01*
G01X1900063Y101508D01*
G01X1909161Y113880D01*
G01X1915170Y128012D01*
G01X1917767Y143147D01*
G01X1916812Y158474D01*
G01X1912358Y173171D01*
G01X1904643Y186449D01*
G01X1894081Y197596D01*
G01X1881238Y206015D01*
G01X1866802Y211254D01*
G01X1851549Y213032D01*
G01X1836295Y211254D01*
G01X1821860Y206015D01*
G01X1809017Y197596D01*
G01X1798454Y186449D01*
G01X1790739Y173171D01*
G01X1786285Y158474D01*
G01X1785331Y143147D01*
G01X1787928Y128012D01*
G01X1793936Y113880D01*
G01X1803035Y101508D01*
G01X1803035Y78451D01*
G01X1804688Y65895D01*
G01X1809534Y54194D01*
G01X1817244Y44147D01*
G01X1825577Y35814D01*
G01X200000Y35814D01*
G01X174317Y37835D01*
G01X149266Y43849D01*
G01X125465Y53707D01*
G01X103498Y67167D01*
G01X83908Y83898D01*
G01X67176Y103487D01*
G01X53714Y125452D01*
G01X43853Y149253D01*
G01X37837Y174303D01*
G01X35814Y199985D01*
G01X35814Y890000D01*
G01X1090487Y890000D01*
G01X1092151Y873102D01*
G01X1097080Y856854D01*
G01X1105084Y841880D01*
G01X1115855Y828755D01*
G01X1128981Y817983D01*
G01X1143955Y809979D01*
G01X1160203Y805050D01*
G01X1177101Y803386D01*
G01X1274801Y803386D01*
G01X1267565Y793513D01*
G01X1263030Y782143D01*
G01X1261486Y770000D01*
G01X1261486Y770000D01*
G01X1261486Y755210D01*
G01X1252510Y743053D01*
G01X1246520Y729178D01*
G01X1243826Y714308D01*
G01X1244569Y699215D01*
G01X1248710Y684681D01*
G01X1256033Y671462D01*
G01X1266160Y660245D01*
G01X1278563Y651611D01*
G01X1292599Y646010D01*
G01X1307538Y643732D01*
G01X1322605Y644895D01*
G01X1337018Y649440D01*
G01X1350027Y657129D01*
G01X1360958Y667564D01*
G01X1369243Y680203D01*
G01X1374450Y694389D01*
G01X1376311Y709387D01*
G01X1374728Y724416D01*
G01X1369784Y738696D01*
G01X1361735Y751486D01*
G01X1550000Y751486D01*
G01X1562556Y753139D01*
G01X1574257Y757986D01*
G01X1584305Y765695D01*
G01X1640095Y821486D01*
G01X1939905Y821486D01*
G01X1951486Y809905D01*
G01X1951486Y580000D01*
G01X1953139Y567443D01*
G01X1957986Y555743D01*
G01X1965696Y545695D01*
G01X2005696Y505695D01*
G01X2015744Y497985D01*
G01X2027444Y493139D01*
G01X2040000Y491486D01*
G01X2139905Y491486D01*
G01X2205696Y425696D01*
G01X2215743Y417986D01*
G01X2227444Y413139D01*
G01X2240000Y411486D01*
G01X2320000Y411486D01*
G01X2332556Y413139D01*
G01X2344257Y417986D01*
G01X2354304Y425695D01*
G01X2373895Y445286D01*
G01X3003800Y445286D01*
G01X3016357Y446939D01*
G01X3028057Y451786D01*
G01X3038105Y459496D01*
G01X3074305Y495695D01*
G01X3082014Y505743D01*
G01X3086861Y517444D01*
G01X3087197Y520000D01*
G01X5783386Y520000D01*
G01X5783386Y383822D01*
G01X5785050Y366924D01*
G01X5789979Y350676D01*
G01X5797983Y335701D01*
G01X5808755Y322576D01*
G01X5868755Y262576D01*
G01X5881880Y251805D01*
G01X5896854Y243801D01*
G01X5913103Y238872D01*
G01X5930000Y237208D01*
G01X7570000Y237208D01*
G01X7586898Y238872D01*
G01X7603146Y243801D01*
G01X7618120Y251805D01*
G01X7631245Y262576D01*
G01X7642017Y275702D01*
G01X7650021Y290676D01*
G01X7654950Y306924D01*
G01X7656614Y323822D01*
G01X7654950Y340719D01*
G01X7650021Y356968D01*
G01X7648396Y360008D01*
G01X7734196Y360008D01*
G01X7735962Y343206D01*
G01X7741182Y327138D01*
G01X7749630Y312506D01*
G01X7760935Y299951D01*
G01X7774603Y290020D01*
G01X7790038Y283149D01*
G01X7806563Y279636D01*
G01X7823458Y279636D01*
G01X7839984Y283149D01*
G01X7855418Y290020D01*
G01X7869087Y299951D01*
G01X7880392Y312506D01*
G01X7888839Y327138D01*
G01X7894060Y343206D01*
G01X7895826Y360008D01*
G01X7894060Y376811D01*
G01X7888839Y392879D01*
G01X7880392Y407510D01*
G01X7869087Y420066D01*
G01X7855418Y429996D01*
G01X7839984Y436868D01*
G01X7823458Y440381D01*
G01X7806563Y440381D01*
G01X7790038Y436868D01*
G01X7774603Y429996D01*
G01X7760935Y420066D01*
G01X7749630Y407510D01*
G01X7741182Y392879D01*
G01X7735962Y376811D01*
G01X7734196Y360008D01*
G01X7734196Y360008D01*
G01X7648396Y360008D01*
G01X7642017Y371942D01*
G01X7631245Y385067D01*
G01X7618120Y395839D01*
G01X7603146Y403843D01*
G01X7586898Y408772D01*
G01X7570000Y410436D01*
G01X5965877Y410436D01*
G01X5956614Y419698D01*
G01X5956614Y419698D01*
G01X5956614Y520000D01*
G01X5954721Y538008D01*
G01X5949126Y555229D01*
G01X5940072Y570910D01*
G01X5927956Y584367D01*
G01X5913307Y595010D01*
G01X5896765Y602375D01*
G01X5879054Y606139D01*
G01X5860946Y606139D01*
G01X5843235Y602375D01*
G01X5826693Y595010D01*
G01X5812044Y584367D01*
G01X5799928Y570910D01*
G01X5790874Y555229D01*
G01X5785279Y538008D01*
G01X5783386Y520000D01*
G01X3087197Y520000D01*
G01X3088514Y530000D01*
G01X3088514Y630000D01*
G01X3513386Y630000D01*
G01X3515050Y613102D01*
G01X3519979Y596854D01*
G01X3527983Y581880D01*
G01X3538755Y568755D01*
G01X3551880Y557983D01*
G01X3566854Y549979D01*
G01X3583103Y545050D01*
G01X3600000Y543386D01*
G01X4295336Y543386D01*
G01X4312234Y545050D01*
G01X4328482Y549979D01*
G01X4343457Y557983D01*
G01X4356582Y568755D01*
G01X4367353Y581880D01*
G01X4375357Y596854D01*
G01X4380286Y613102D01*
G01X4381950Y630000D01*
G01X4380286Y646898D01*
G01X4375357Y663146D01*
G01X4367353Y678120D01*
G01X4356582Y691245D01*
G01X4343457Y702017D01*
G01X4328482Y710021D01*
G01X4312234Y714950D01*
G01X4295336Y716614D01*
G01X3600000Y716614D01*
G01X3600000Y716614D01*
G01X3583103Y714950D01*
G01X3566854Y710021D01*
G01X3551880Y702017D01*
G01X3538755Y691245D01*
G01X3527983Y678120D01*
G01X3519979Y663146D01*
G01X3515050Y646898D01*
G01X3513386Y630000D01*
G01X3088514Y630000D01*
G01X3088514Y810000D01*
G01X3086861Y822556D01*
G01X3082014Y834257D01*
G01X3074305Y844304D01*
G01X3044305Y874304D01*
G01X3035844Y881057D01*
G01X3026098Y885765D01*
G01X3015550Y888195D01*
G01X3003080Y897474D01*
G01X2988792Y903595D01*
G01X2973473Y906223D01*
G01X2957962Y905212D01*
G01X2943113Y900619D01*
G01X2929741Y892695D01*
G01X2918581Y881876D01*
G01X2910246Y868757D01*
G01X2905193Y854058D01*
G01X2903701Y838586D01*
G01X2905851Y823192D01*
G01X2911526Y808722D01*
G01X2920413Y795970D01*
G01X2932024Y785637D01*
G01X2945722Y778290D01*
G01X2960753Y774334D01*
G01X2976292Y773985D01*
G01X2991486Y777263D01*
G01X2991486Y756909D01*
G01X2982008Y763235D01*
G01X2971316Y767176D01*
G01X2960000Y768514D01*
G01X2854166Y768514D01*
G01X2850425Y783461D01*
G01X2843337Y797142D01*
G01X2833282Y808818D01*
G01X2820805Y817858D01*
G01X2806578Y823774D01*
G01X2791369Y826248D01*
G01X2776001Y825144D01*
G01X2761301Y820524D01*
G01X2748065Y812637D01*
G01X2737007Y801908D01*
G01X2728723Y788916D01*
G01X2723660Y774363D01*
G01X2722093Y759035D01*
G01X2724106Y743758D01*
G01X2729590Y729359D01*
G01X2738248Y716614D01*
G01X2170114Y716614D01*
G01X2170114Y724554D01*
G01X2184101Y723940D01*
G01X2197905Y726276D01*
G01X2210911Y731458D01*
G01X2222540Y739255D01*
G01X2232272Y749320D01*
G01X2239674Y761203D01*
G01X2244416Y774376D01*
G01X2246287Y788251D01*
G01X2245204Y802210D01*
G01X2241214Y815630D01*
G01X2241214Y980000D01*
G01X2240038Y991942D01*
G01X2236554Y1003426D01*
G01X2234965Y1006398D01*
G01X6263995Y1006398D01*
G01X6264421Y990152D01*
G01X6268786Y974497D01*
G01X6268786Y649114D01*
G01X6268786Y649114D01*
G01X6266836Y633155D01*
G01X6268784Y617195D01*
G01X6274516Y602173D01*
G01X6283694Y588972D01*
G01X6295780Y578368D01*
G01X6310062Y570985D01*
G01X6325702Y567256D01*
G01X6341780Y567400D01*
G01X6357350Y571409D01*
G01X6371498Y579048D01*
G01X6383391Y589868D01*
G01X6392331Y603231D01*
G01X6397792Y618353D01*
G01X6399453Y634346D01*
G01X6397217Y650267D01*
G01X6391214Y665183D01*
G01X6391214Y800000D01*
G01X7137986Y800000D01*
G01X7139893Y779417D01*
G01X7145550Y759536D01*
G01X7154764Y741032D01*
G01X7167221Y724537D01*
G01X7182497Y710611D01*
G01X7200071Y699729D01*
G01X7219346Y692262D01*
G01X7239665Y688464D01*
G01X7260335Y688464D01*
G01X7280654Y692262D01*
G01X7299929Y699729D01*
G01X7317504Y710611D01*
G01X7332779Y724537D01*
G01X7345236Y741032D01*
G01X7354450Y759536D01*
G01X7360107Y779417D01*
G01X7362014Y800000D01*
G01X7360107Y820582D01*
G01X7354450Y840464D01*
G01X7345236Y858968D01*
G01X7332779Y875463D01*
G01X7317504Y889389D01*
G01X7299929Y900271D01*
G01X7280654Y907738D01*
G01X7260335Y911536D01*
G01X7239665Y911536D01*
G01X7219346Y907738D01*
G01X7200071Y900271D01*
G01X7182497Y889389D01*
G01X7167221Y875463D01*
G01X7154764Y858968D01*
G01X7145550Y840464D01*
G01X7139893Y820582D01*
G01X7137986Y800000D01*
G01X7137986Y800000D01*
G01X6391214Y800000D01*
G01X6391214Y974497D01*
G01X6395579Y990152D01*
G01X6395837Y1000000D01*
G01X6633686Y1000000D01*
G01X6635464Y984747D01*
G01X6640703Y970311D01*
G01X6649122Y957468D01*
G01X6660269Y946906D01*
G01X6673547Y939190D01*
G01X6688244Y934736D01*
G01X6703571Y933782D01*
G01X6718706Y936379D01*
G01X6732839Y942388D01*
G01X6745210Y951486D01*
G01X6824790Y951486D01*
G01X6837161Y942388D01*
G01X6851294Y936379D01*
G01X6866429Y933782D01*
G01X6881756Y934736D01*
G01X6896453Y939190D01*
G01X6909731Y946906D01*
G01X6920878Y957468D01*
G01X6929297Y970311D01*
G01X6934536Y984747D01*
G01X6936314Y1000000D01*
G01X6936314Y1000000D01*
G01X6934536Y1015253D01*
G01X6929297Y1029689D01*
G01X6922543Y1039992D01*
G01X7734196Y1039992D01*
G01X7735962Y1023189D01*
G01X7741182Y1007121D01*
G01X7749630Y992490D01*
G01X7760935Y979934D01*
G01X7774603Y970004D01*
G01X7790038Y963132D01*
G01X7806563Y959619D01*
G01X7823458Y959619D01*
G01X7839984Y963132D01*
G01X7855418Y970004D01*
G01X7869087Y979934D01*
G01X7880392Y992490D01*
G01X7888839Y1007121D01*
G01X7894060Y1023189D01*
G01X7895826Y1039992D01*
G01X7894060Y1056794D01*
G01X7888839Y1072862D01*
G01X7880392Y1087494D01*
G01X7869087Y1100049D01*
G01X7855418Y1109980D01*
G01X7839984Y1116852D01*
G01X7823458Y1120364D01*
G01X7806563Y1120364D01*
G01X7790038Y1116852D01*
G01X7774603Y1109980D01*
G01X7760935Y1100049D01*
G01X7749630Y1087494D01*
G01X7741182Y1072862D01*
G01X7735962Y1056794D01*
G01X7734196Y1039992D01*
G01X7734196Y1039992D01*
G01X6922543Y1039992D01*
G01X6920878Y1042532D01*
G01X6909731Y1053095D01*
G01X6896453Y1060810D01*
G01X6881756Y1065264D01*
G01X6866429Y1066218D01*
G01X6851294Y1063621D01*
G01X6837161Y1057612D01*
G01X6824790Y1048514D01*
G01X6745210Y1048514D01*
G01X6732839Y1057612D01*
G01X6718706Y1063621D01*
G01X6703571Y1066218D01*
G01X6688244Y1065264D01*
G01X6673547Y1060810D01*
G01X6660269Y1053095D01*
G01X6649122Y1042532D01*
G01X6640703Y1029689D01*
G01X6635464Y1015253D01*
G01X6633686Y1000000D01*
G01X6395837Y1000000D01*
G01X6396005Y1006398D01*
G01X6392466Y1022260D01*
G01X6385176Y1036786D01*
G01X6374572Y1049101D01*
G01X6361290Y1058468D01*
G01X6346130Y1064323D01*
G01X6330000Y1066314D01*
G01X6313871Y1064323D01*
G01X6298710Y1058468D01*
G01X6285428Y1049101D01*
G01X6274824Y1036786D01*
G01X6267534Y1022260D01*
G01X6263995Y1006398D01*
G01X2234965Y1006398D01*
G01X2230898Y1014009D01*
G01X2223285Y1023285D01*
G01X2143285Y1103285D01*
G01X2135102Y1110000D01*
G01X4393686Y1110000D01*
G01X4395677Y1093871D01*
G01X4401532Y1078710D01*
G01X4410899Y1065428D01*
G01X4423214Y1054824D01*
G01X4437740Y1047534D01*
G01X4453602Y1043995D01*
G01X4469848Y1044421D01*
G01X4485503Y1048786D01*
G01X4974497Y1048786D01*
G01X4990152Y1044421D01*
G01X5006398Y1043995D01*
G01X5022260Y1047534D01*
G01X5036785Y1054824D01*
G01X5049101Y1065428D01*
G01X5058468Y1078710D01*
G01X5064322Y1093871D01*
G01X5066314Y1110000D01*
G01X5064322Y1126130D01*
G01X5058468Y1141290D01*
G01X5049101Y1154572D01*
G01X5036785Y1165176D01*
G01X5022260Y1172466D01*
G01X5006398Y1176005D01*
G01X4990152Y1175579D01*
G01X4974497Y1171214D01*
G01X4485503Y1171214D01*
G01X4469848Y1175579D01*
G01X4453602Y1176005D01*
G01X4437740Y1172466D01*
G01X4423214Y1165176D01*
G01X4410899Y1154572D01*
G01X4401532Y1141290D01*
G01X4395677Y1126130D01*
G01X4393686Y1110000D01*
G01X4393686Y1110000D01*
G01X2135102Y1110000D01*
G01X2134009Y1110897D01*
G01X2123426Y1116554D01*
G01X2111942Y1120038D01*
G01X2100000Y1121214D01*
G01X1606156Y1121214D01*
G01X1591214Y1136156D01*
G01X1591214Y1240000D01*
G01X1590038Y1251942D01*
G01X1586554Y1263426D01*
G01X1580898Y1274009D01*
G01X1573285Y1283285D01*
G01X1513285Y1343285D01*
G01X1504008Y1350898D01*
G01X1493425Y1356554D01*
G01X1481942Y1360038D01*
G01X1470000Y1361214D01*
G01X1335503Y1361214D01*
G01X1319848Y1365579D01*
G01X1303602Y1366005D01*
G01X1287739Y1362466D01*
G01X1273214Y1355176D01*
G01X1260899Y1344572D01*
G01X1251532Y1331290D01*
G01X1245677Y1316129D01*
G01X1243686Y1300000D01*
G01X1245677Y1283870D01*
G01X1251532Y1268710D01*
G01X1260899Y1255428D01*
G01X1273214Y1244824D01*
G01X1287739Y1237534D01*
G01X1303602Y1233995D01*
G01X1319848Y1234421D01*
G01X1335503Y1238786D01*
G01X1444644Y1238786D01*
G01X1468786Y1214644D01*
G01X1468786Y1110800D01*
G01X1469962Y1098858D01*
G01X1473446Y1087374D01*
G01X1479102Y1076791D01*
G01X1486715Y1067515D01*
G01X1526284Y1027946D01*
G01X1518755Y1021245D01*
G01X1474123Y976614D01*
G01X1177101Y976614D01*
G01X1160203Y974950D01*
G01X1143955Y970021D01*
G01X1128981Y962017D01*
G01X1115855Y951245D01*
G01X1105084Y938120D01*
G01X1097080Y923146D01*
G01X1092151Y906898D01*
G01X1090487Y890000D01*
G01X35814Y890000D01*
G01X35814Y1252945D01*
G01X56925Y1232334D01*
G01X80599Y1214728D01*
G01X106412Y1200441D01*
G01X133903Y1189730D01*
G01X162577Y1182786D01*
G01X191922Y1179734D01*
G01X221412Y1180628D01*
G01X250518Y1185453D01*
G01X278719Y1194122D01*
G01X305510Y1206480D01*
G01X330410Y1222305D01*
G01X352974Y1241313D01*
G01X372797Y1263165D01*
G01X389523Y1287469D01*
G01X402855Y1313789D01*
G01X412551Y1341653D01*
G01X418440Y1370563D01*
G01X420414Y1400000D01*
G37*
G36*
G01X5268514Y2519905D02*
G01X5280095Y2531486D01*
G01X5324688Y2531486D01*
G01X5323774Y2516578D01*
G01X5326220Y2501844D01*
G01X5331900Y2488031D01*
G01X5340529Y2475839D01*
G01X5351666Y2465888D01*
G01X5364748Y2458682D01*
G01X5388786Y2434644D01*
G01X5388786Y2205503D01*
G01X5388545Y2204916D01*
G01X5372671Y2207963D01*
G01X5356532Y2207079D01*
G01X5341086Y2202317D01*
G01X5327251Y2193960D01*
G01X5315849Y2182504D01*
G01X5307556Y2168629D01*
G01X5302867Y2153161D01*
G01X5302059Y2137018D01*
G01X5305181Y2121159D01*
G01X5312046Y2106526D01*
G01X5322248Y2093989D01*
G01X5335179Y2084292D01*
G01X5350073Y2078011D01*
G01X5366043Y2075521D01*
G01X5382141Y2076967D01*
G01X5397412Y2082266D01*
G01X5406166Y2077241D01*
G01X5415771Y2074136D01*
G01X5425810Y2073086D01*
G01X5474190Y2073086D01*
G01X5486747Y2074739D01*
G01X5498447Y2079585D01*
G01X5508495Y2087295D01*
G01X5535080Y2113881D01*
G01X5550545Y2116949D01*
G01X5564849Y2123581D01*
G01X5577182Y2133402D01*
G01X5586849Y2145857D01*
G01X5593302Y2160242D01*
G01X5596177Y2175744D01*
G01X5595312Y2191486D01*
G01X5744688Y2191486D01*
G01X5743794Y2176224D01*
G01X5746418Y2161162D01*
G01X5752422Y2147102D01*
G01X5761486Y2134790D01*
G01X5761486Y2070095D01*
G01X5749905Y2058514D01*
G01X5256909Y2058514D01*
G01X5263235Y2067992D01*
G01X5267176Y2078684D01*
G01X5268514Y2090000D01*
G01X5268514Y2519905D01*
G37*
G54D10*
G01X6932023Y1501597D02*
G01X6932023Y2011486D01*
G01X6950000Y2011486D01*
G03X6984305Y2025695I0J48514D01*
G01X7024305Y2065696D01*
G03X7038514Y2100000I-34305J34304D01*
G01X7038514Y2309905D01*
G01X7050095Y2321486D01*
G01X7104790Y2321486D01*
G03X7202685Y2329728I45210J48514D01*
G03X7184952Y2426355I-52685J40272D01*
G03X7198514Y2460000I-34952J33645D01*
G01X7198514Y2684790D01*
G03X7206398Y2764883I-48514J45210D01*
G03X7131214Y2793597I-56398J-34883D01*
G01X7131214Y2924497D01*
G03X7133269Y2969863I-61214J25503D01*
G01X7629811Y2970724D01*
G01X7630872Y1628652D01*
G01X7091601Y1629559D01*
G03X7081424Y1619399I-17J-10160D01*
G01X7081424Y1501597D01*
G01X6932023Y1501597D01*
G01X420414Y1400000D02*
G03X35814Y1547055I-220414J0D01*
G01X35814Y3300000D01*
G02X200000Y3464186I164186J0D01*
G01X5364186Y3464186D01*
G01X5364186Y3000000D01*
G03X5400000Y2964186I35814J0D01*
G01X5600000Y2964186D01*
G03X5635814Y3000000I0J35814D01*
G01X5635814Y3189586D01*
G01X8364186Y3189586D01*
G01X8364186Y1785814D01*
G01X8000000Y1785814D01*
G03X7964186Y1750000I0J-35814D01*
G01X7964186Y1547055D01*
G03X7579586Y1400000I-164186J-147055D01*
G03X7964186Y1252944I220414J0D01*
G01X7964186Y200000D01*
G02X7800000Y35814I-164186J0D01*
G01X2206823Y35814D01*
G03X2177849Y130183I-56823J34186D01*
G03X2087161Y91186I-27849J-60183D01*
G01X1907423Y91186D01*
G01X1900063Y98546D01*
G01X1900063Y101508D01*
G03X1851549Y213032I-48514J45210D01*
G03X1803035Y101508I0J-66314D01*
G01X1803035Y78451D01*
G03X1817244Y44147I48514J0D01*
G01X1825577Y35814D01*
G01X200000Y35814D01*
G02X35814Y199985I0J164186D01*
G01X35814Y1252945D01*
G03X420414Y1400000I164186J147055D01*
G01X1261486Y770000D02*
G01X1261486Y755210D01*
G03X1307538Y643732I48514J-45210D01*
G03X1361735Y751486I2462J66268D01*
G01X1550000Y751486D01*
G03X1584305Y765695I0J48514D01*
G01X1640095Y821486D01*
G01X1939905Y821486D01*
G01X1951486Y809905D01*
G01X1951486Y580000D01*
G03X1965696Y545695I48514J0D01*
G01X2005696Y505695D01*
G03X2040000Y491486I34304J34305D01*
G01X2139905Y491486D01*
G01X2205696Y425696D01*
G03X2240000Y411486I34305J34305D01*
G01X2320000Y411486D01*
G03X2354304Y425695I0J48514D01*
G01X2373895Y445286D01*
G01X3003800Y445286D01*
G03X3038105Y459496I0J48514D01*
G01X3074305Y495695D01*
G03X3088514Y530000I-34305J34305D01*
G01X3088514Y810000D01*
G03X3074305Y844304I-48514J0D01*
G01X3044305Y874304D01*
G03X3015550Y888195I-34305J-34305D01*
G03X2905193Y854058I-45549J-48196D01*
G03X2991486Y777263I64807J-14058D01*
G01X2991486Y756909D01*
G03X2960000Y768514I-31486J-36908D01*
G01X2854166Y768514D01*
G03X2761301Y820524I-65765J-8514D01*
G03X2738248Y716614I27099J-60524D01*
G01X2170114Y716614D01*
G01X2170114Y724554D01*
G03X2232272Y749320I9886J65573D01*
G03X2241214Y815630I-52272J40807D01*
G01X2241214Y980000D01*
G03X2223285Y1023285I-61214J0D01*
G01X2143285Y1103285D01*
G03X2100000Y1121214I-43285J-43285D01*
G01X1606156Y1121214D01*
G01X1591214Y1136156D01*
G01X1591214Y1240000D01*
G03X1573285Y1283285I-61214J0D01*
G01X1513285Y1343285D01*
G03X1470000Y1361214I-43285J-43285D01*
G01X1335503Y1361214D01*
G03X1243686Y1300000I-25503J-61214D01*
G03X1335503Y1238786I66314J0D01*
G01X1444644Y1238786D01*
G01X1468786Y1214644D01*
G01X1468786Y1110800D01*
G03X1486715Y1067515I61214J0D01*
G01X1526284Y1027946D01*
G03X1518755Y1021245I53716J-67946D01*
G01X1474123Y976614D01*
G01X1177101Y976614D01*
G03X1090487Y890000I0J-86614D01*
G03X1177101Y803386I86614J0D01*
G01X1274801Y803386D01*
G03X1261486Y770000I35199J-33386D01*
G01X2921486Y1285210D02*
G03X2970000Y1173686I48514J-45210D01*
G03X3018514Y1285210I0J66314D01*
G01X3018514Y1890000D01*
G03X3004304Y1924305I-48514J0D01*
G01X2955904Y1972705D01*
G03X2921600Y1986914I-34305J-34305D01*
G01X2680607Y1986914D01*
G03X2586321Y2017125I-60607J-26914D01*
G03X2567108Y1920000I33679J-57125D01*
G03X2567573Y1839393I52892J-40000D01*
G03X2645503Y1818786I52427J40607D01*
G01X2814497Y1818786D01*
G03X2906103Y1885288I25503J61214D01*
G01X2921486Y1869905D01*
G01X2921486Y1285210D01*
G01X3387515Y1616715D02*
G03X3430800Y1598786I43285J43285D01*
G01X3554497Y1598786D01*
G03X3646286Y1658058I25503J61214D01*
G03X3558124Y1722602I-66286J1942D01*
G03X3566614Y1760000I-78124J37398D01*
G01X3566614Y2285051D01*
G03X3600011Y2286777I13386J64949D01*
G03X3618755Y2258755I79989J33223D01*
G01X3695455Y2182055D01*
G03X3756700Y2156686I61245J61245D01*
G01X4530000Y2156686D01*
G03X4607742Y2281486I0J86614D01*
G01X5144600Y2281486D01*
G03X5171486Y2289617I0J48514D01*
G01X5171486Y2110095D01*
G01X5164505Y2103114D01*
G01X4285400Y2103114D01*
G03X4251095Y2088904I0J-48514D01*
G01X4225695Y2063504D01*
G03X4211486Y2029200I34305J-34305D01*
G01X4211486Y1815822D01*
G03X4211085Y1809599I48113J-6223D01*
G01X4211085Y1595184D01*
G03X4237052Y1487611I48514J-45210D01*
G03X4325808Y1553707I22547J62363D01*
G03X4390208Y1623702I-1810J66289D01*
G03X4440313Y1735207I1591J66295D01*
G01X4440313Y1891704D01*
G01X4460095Y1911486D01*
G01X5830000Y1911486D01*
G03X5864304Y1925695I0J48514D01*
G01X5894305Y1955696D01*
G03X5908514Y1990000I-34305J34305D01*
G01X5908514Y2044850D01*
G03X5915695Y2035695I41486J25150D01*
G01X5965695Y1985695D01*
G03X6000000Y1971486I34305J34305D01*
G01X6154790Y1971486D01*
G03X6211486Y1954688I45210J48514D01*
G01X6211486Y1930095D01*
G01X6207302Y1925911D01*
G03X6146258Y1821150I-7302J-65911D01*
G03X6264877Y1846268I53742J38851D01*
G01X6294305Y1875695D01*
G03X6308514Y1910000I-34305J34305D01*
G01X6308514Y2053000D01*
G03X6294305Y2087305I-48514J0D01*
G01X6268905Y2112705D01*
G03X6234600Y2126914I-34305J-34304D01*
G01X6051695Y2126914D01*
G01X6048514Y2130095D01*
G01X6048514Y2240000D01*
G03X6034305Y2274305I-48514J0D01*
G01X5994305Y2314305D01*
G03X5960000Y2328514I-34305J-34305D01*
G01X5610095Y2328514D01*
G01X5608514Y2330095D01*
G01X5608514Y2469905D01*
G01X5610095Y2471486D01*
G01X5624790Y2471486D01*
G03X5702708Y2462314I45210J48514D01*
G03X5734844Y2533887I-32708J57686D01*
G03X5806296Y2601560I5156J66113D01*
G03X5731740Y2665797I-66296J-1560D01*
G03X5701597Y2748302I-61740J24202D01*
G03X5616017Y2728514I-31597J-58302D01*
G01X5230095Y2728514D01*
G01X5218514Y2740095D01*
G01X5218514Y3259905D01*
G01X5222336Y3263727D01*
G03X5266891Y3376891I-2336J66273D01*
G03X5153727Y3332336I-46891J-46891D01*
G01X5135695Y3314305D01*
G03X5121486Y3280000I34305J-34305D01*
G01X5121486Y2720000D01*
G03X5135695Y2685696I48514J0D01*
G01X5161391Y2660000D01*
G01X5135695Y2634304D01*
G03X5121486Y2600000I34305J-34304D01*
G01X5121486Y2378514D01*
G01X3909871Y2378514D01*
G03X3829395Y2413032I-59871J-28514D01*
G03X3784847Y2337643I20605J-63032D01*
G01X3766614Y2355877D01*
G01X3766614Y2670000D01*
G03X3631735Y2741920I-86614J0D01*
G03X3623285Y2752485I-51735J-32720D01*
G01X3572485Y2803285D01*
G03X3529200Y2821214I-43285J-43285D01*
G01X3270000Y2821214D01*
G03X3226715Y2803285I0J-61214D01*
G01X3220114Y2796683D01*
G01X3220114Y2823544D01*
G01X3226072Y2829502D01*
G03X3295380Y2906788I3928J66198D01*
G03X3204467Y2956902I-65381J-11087D01*
G03X3162415Y2938985I1233J-61202D01*
G01X3115615Y2892185D01*
G03X3097686Y2848900I43285J-43285D01*
G01X3097686Y2650562D01*
G03X3115615Y2607277I61214J0D01*
G01X3166177Y2556715D01*
G03X3209462Y2538786I43285J43285D01*
G01X3283844Y2538786D01*
G01X3318786Y2503845D01*
G01X3318786Y1710800D01*
G03X3336715Y1667515I61214J0D01*
G01X3387515Y1616715D01*
G01X3450000Y1223686D02*
G03X3498514Y1335210I0J66314D01*
G01X3498514Y1454790D01*
G03X3450000Y1566314I-48514J45210D01*
G03X3401486Y1454790I0J-66314D01*
G01X3401486Y1335210D01*
G03X3450000Y1223686I48514J-45210D01*
G01X3600000Y716614D02*
G03X3513386Y630000I0J-86614D01*
G03X3600000Y543386I86614J0D01*
G01X4295336Y543386D01*
G03X4381950Y630000I0J86614D01*
G03X4295336Y716614I-86614J0D01*
G01X3600000Y716614D01*
G01X4393686Y1110000D02*
G03X4485503Y1048786I66314J0D01*
G01X4974497Y1048786D01*
G03X5066314Y1110000I25503J61214D01*
G03X4974497Y1171214I-66314J0D01*
G01X4485503Y1171214D01*
G03X4393686Y1110000I-25503J-61214D01*
G01X4966312Y2690850D02*
G03X4854423Y2738514I-66312J-505D01*
G01X4575210Y2738514D01*
G03X4463686Y2690000I-45210J-48514D01*
G03X4575210Y2641486I66314J0D01*
G01X4855163Y2641486D01*
G03X4966312Y2690850I44838J48858D01*
G01X5956614Y419698D02*
G01X5956614Y520000D01*
G03X5783386Y520000I-86614J0D01*
G01X5783386Y383822D01*
G03X5808755Y322576I86614J0D01*
G01X5868755Y262576D01*
G03X5930000Y237208I61245J61245D01*
G01X7570000Y237208D01*
G03X7656614Y323822I0J86614D01*
G03X7570000Y410436I-86614J0D01*
G01X5965877Y410436D01*
G01X5956614Y419698D01*
G01X6268786Y649114D02*
G03X6341780Y567400I64364J-15964D01*
G03X6391214Y665183I-8630J65750D01*
G01X6391214Y974497D01*
G03X6330000Y1066314I-61214J25503D01*
G03X6268786Y974497I0J-66314D01*
G01X6268786Y649114D01*
G01X6936314Y1000000D02*
G03X6824790Y1048514I-66314J0D01*
G01X6745210Y1048514D01*
G03X6633686Y1000000I-45210J-48514D01*
G03X6745210Y951486I66314J0D01*
G01X6824790Y951486D01*
G03X6936314Y1000000I45210J48514D01*
G01X6993798Y2549268D02*
G01X6947312Y2549268D01*
G03X6904027Y2531339I0J-61214D01*
G01X6871156Y2498468D01*
G01X6735503Y2498468D01*
G03X6643686Y2437254I-25503J-61214D01*
G03X6735503Y2376040I66314J0D01*
G01X6891864Y2376040D01*
G03X6891486Y2370000I48137J-6040D01*
G01X6891486Y2250834D01*
G03X6886049Y2231863I30377J-18971D01*
G01X6886049Y2180984D01*
G03X6818789Y2171954I-26049J-60984D01*
G03X6794688Y2108514I41211J-51954D01*
G01X6775312Y2108514D01*
G03X6679819Y2179048I-65312J11486D01*
G03X6681054Y2060337I30181J-59048D01*
G01X6715695Y2025695D01*
G03X6750000Y2011486I34305J34305D01*
G01X6886049Y2011486D01*
G01X6886049Y1491437D01*
G03X6921863Y1455623I35814J0D01*
G01X7091584Y1455623D01*
G03X7127398Y1491437I0J35814D01*
G01X7127398Y1583524D01*
G01X7640980Y1582661D01*
G03X7676854Y1618503I60J35814D01*
G01X7676308Y2309123D01*
G01X7676314Y2310052D01*
G01X7676307Y2310981D01*
G01X7675934Y2782907D01*
G03X7676314Y2790052I-65934J7093D01*
G03X7675922Y2797198I-66314J-52D01*
G01X7675777Y2980930D01*
G03X7639901Y3016716I-35814J-28D01*
G01X7119938Y3015814D01*
G03X7099521Y3009381I62J-35814D01*
G03X7024696Y2998426I-29521J-59381D01*
G03X7008786Y2924497I45304J-48426D01*
G01X7008786Y2564256D01*
G01X6993798Y2549268D01*
G01X7137986Y800000D02*
G03X7362014Y800000I112014J0D01*
G03X7137986Y800000I-112014J0D01*
G01X7734196Y360008D02*
G03X7895826Y360008I80815J0D01*
G03X7734196Y360008I-80815J0D01*
G01X7734196Y1039992D02*
G03X7895826Y1039992I80815J0D01*
G03X7734196Y1039992I-80815J0D01*
G01X7812088Y2838988D02*
G03X7943716Y2838988I65814J0D01*
G03X7812088Y2838988I-65814J0D01*
G01X7812088Y2260986D02*
G03X7943716Y2260986I65814J0D01*
G03X7812088Y2260986I-65814J0D01*
G01X5268514Y2519905D02*
G01X5280095Y2531486D01*
G01X5324688Y2531486D01*
G03X5364748Y2458682I65312J-11486D01*
G01X5388786Y2434644D01*
G01X5388786Y2205503D01*
G01X5388545Y2204916D01*
G03X5302059Y2137018I-20344J-63116D01*
G03X5397412Y2082266I66141J4782D01*
G03X5425810Y2073086I28398J39334D01*
G01X5474190Y2073086D01*
G03X5508495Y2087295I0J48514D01*
G01X5535080Y2113881D01*
G03X5595312Y2191486I-5081J66119D01*
G01X5744688Y2191486D01*
G03X5761486Y2134790I65312J-11486D01*
G01X5761486Y2070095D01*
G01X5749905Y2058514D01*
G01X5256909Y2058514D01*
G03X5268514Y2090000I-36909J31486D01*
G01X5268514Y2519905D01*
G04 Copper End*

G04 Pad Start*
G54D11*
G01X7250000Y800000D03*
G01X7250000Y1200000D03*
G04 Pad End*

G04 Via Start*
G54D12*
G01X2510000Y1320000D03*
G01X3230000Y2895700D03*
G01X2180000Y790127D03*
G01X2090000Y1320000D03*
G01X6710000Y2630000D03*
G01X3580000Y1660000D03*
G01X5450000Y2180000D03*
G01X1310000Y1300000D03*
G01X5390000Y2520000D03*
G01X5470000Y2770000D03*
G01X2788400Y760000D03*
G01X3790000Y2040000D03*
G01X3850000Y2350000D03*
G01X3850000Y2510000D03*
G01X2280000Y390000D03*
G01X1819987Y680013D03*
G01X1819987Y580013D03*
G01X1719987Y580013D03*
G01X1719987Y680013D03*
G01X3789967Y1939959D03*
G01X3689967Y1939959D03*
G01X3689967Y2039958D03*
G01X7150000Y2730000D03*
G01X7610000Y2790000D03*
G01X7610000Y2310000D03*
G01X7510000Y2310000D03*
G01X7510000Y2790000D03*
G01X6710000Y2437254D03*
G01X7070000Y2950000D03*
G01X6200000Y2020000D03*
G01X6200000Y2410000D03*
G01X6200000Y2510000D03*
G01X6300000Y2410000D03*
G01X6100000Y2410000D03*
G01X6820000Y2670000D03*
G01X6570000Y2670000D03*
G01X6380000Y2780000D03*
G01X6490000Y2860000D03*
G01X6030000Y3040000D03*
G01X6070000Y2940000D03*
G01X5910000Y2900000D03*
G01X5860000Y3010000D03*
G01X6200000Y2310000D03*
G01X7150000Y2370000D03*
G01X5740000Y2770000D03*
G01X5740000Y2600000D03*
G01X5670000Y2690000D03*
G01X6470000Y2620000D03*
G01X5670000Y2520000D03*
G01X1851549Y146718D03*
G01X2150000Y70000D03*
G01X6480000Y880000D03*
G01X6480000Y780000D03*
G01X6580033Y880042D03*
G01X6580000Y780000D03*
G01X4973091Y620908D03*
G01X5073091Y620908D03*
G01X4973050Y720941D03*
G01X5073091Y720908D03*
G54D13*
G01X4530000Y2243300D03*
G54D12*
G01X3230000Y2680013D03*
G01X3580000Y2350000D03*
G54D13*
G01X3680000Y2670000D03*
G01X3480000Y2668600D03*
G01X3480000Y1760000D03*
G01X2910000Y629146D03*
G01X2510000Y630000D03*
G01X1510000Y890000D03*
G01X1177101Y890000D03*
G54D12*
G01X1330000Y470000D03*
G01X5890000Y2180000D03*
G01X5810000Y2180000D03*
G01X5530000Y2180000D03*
G01X5610000Y2180000D03*
G01X4391799Y1689997D03*
G01X4323998Y1619997D03*
G01X6333150Y633150D03*
G01X6700000Y1000000D03*
G01X6870000Y1000000D03*
G01X4259599Y1549974D03*
G54D13*
G01X6980000Y1570000D03*
G54D12*
G01X2280000Y530000D03*
G01X1310000Y1060000D03*
G01X1310000Y710000D03*
G01X2970000Y840000D03*
G01X6330000Y1000000D03*
G01X6230000Y630000D03*
G01X6200000Y1860000D03*
G01X6900000Y2750000D03*
G01X2620000Y1880000D03*
G01X2840000Y1880000D03*
G01X3900000Y1550000D03*
G01X3450000Y1500000D03*
G01X3450000Y1290000D03*
G01X4310000Y2130000D03*
G01X5220000Y3330000D03*
G54D13*
G01X1020000Y890000D03*
G54D12*
G01X2800000Y70000D03*
G01X3050000Y1990000D03*
G01X4090000Y1460000D03*
G01X6870000Y1090000D03*
G01X6710000Y2120000D03*
G01X6860000Y2120000D03*
G01X6710000Y2350000D03*
G01X4460000Y1110000D03*
G01X5000000Y1110000D03*
G01X4900000Y2690344D03*
G01X4530000Y2690000D03*
G01X2970000Y1240000D03*
G01X2620000Y1960000D03*
G01X5368201Y2141800D03*
G01X5610000Y1880000D03*
G01X5290000Y2140000D03*
G01X5290000Y1880000D03*
G01X6560000Y1970000D03*
G01X1600000Y1790000D03*
G01X5000000Y2690000D03*
G01X3450000Y1140000D03*
G54D13*
G01X3600000Y630000D03*
G01X5870000Y520000D03*
G01X7570000Y323822D03*
G01X4295336Y630000D03*
G54D12*
G01X4970000Y70000D03*
G04 Via End*

G04 Track Start*
G54D14*
G01X7110000Y2420000D02*
G01X6990000Y2420000D01*
G01X6940000Y2370000D01*
G01X2150000Y70000D02*
G01X2122672Y42672D01*
G01X1887328Y42672D01*
G01X1851549Y78451D01*
G01X1851549Y146718D01*
G54D16*
G01X3580000Y1660000D02*
G01X3430800Y1660000D01*
G01X3380000Y1710800D01*
G54D13*
G01X1510000Y890000D02*
G01X1177101Y890000D01*
G54D16*
G01X5450000Y2180000D02*
G01X5450000Y2460000D01*
G01X5390000Y2520000D01*
G54D14*
G01X5810000Y2180000D02*
G01X5810000Y2050000D01*
G01X5890000Y2180000D02*
G01X5890000Y2160000D01*
G01X5860000Y2130000D01*
G01X5860000Y1990000D01*
G01X7150000Y2370000D02*
G01X7030000Y2370000D01*
G01X6990000Y2330000D01*
G01X2290000Y540000D02*
G01X2280000Y530000D01*
G01X2240000Y460000D02*
G01X2320000Y460000D01*
G01X2353800Y493800D01*
G54D16*
G01X6330000Y1000000D02*
G01X6330000Y636300D01*
G01X6333150Y633150D01*
G54D14*
G01X5590000Y2520000D02*
G01X5670000Y2520000D01*
G01X5560000Y2490000D02*
G01X5590000Y2520000D01*
G01X5560000Y2310000D02*
G01X5560000Y2490000D01*
G01X5590000Y2280000D02*
G01X5560000Y2310000D01*
G01X4351399Y2010000D02*
G01X4323998Y1982599D01*
G01X4323998Y1619997D01*
G01X4440000Y1960000D02*
G01X4391799Y1911800D01*
G01X4391799Y1689997D01*
G54D13*
G01X2910000Y629146D02*
G01X2909146Y630000D01*
G01X2510000Y630000D01*
G54D14*
G01X2950000Y540000D02*
G01X2290000Y540000D01*
G01X2960000Y720000D02*
G01X2990000Y690000D01*
G01X2990000Y580000D01*
G01X2950000Y540000D01*
G54D13*
G01X1580000Y960000D02*
G01X1510000Y890000D01*
G54D16*
G01X2180000Y790127D02*
G01X2180000Y980000D01*
G01X2100000Y1060000D01*
G54D14*
G01X1960000Y870000D02*
G01X2000000Y830000D01*
G01X1550000Y800000D02*
G01X1620000Y870000D01*
G01X1960000Y870000D01*
G54D16*
G01X2100000Y1060000D02*
G01X1580800Y1060000D01*
G01X1530000Y1110800D01*
G01X1530000Y1240000D01*
G01X1470000Y1300000D01*
G01X1310000Y1300000D01*
G54D14*
G01X1310000Y710000D02*
G01X1310000Y770000D01*
G01X1340000Y800000D01*
G01X1550000Y800000D01*
G01X6940000Y2370000D02*
G01X6940000Y2140000D01*
G01X6700000Y1000000D02*
G01X6870000Y1000000D01*
G54D16*
G01X7070000Y2538900D02*
G01X7070000Y2950000D01*
G54D14*
G01X6940000Y2140000D02*
G01X6920000Y2120000D01*
G01X6860000Y2120000D01*
G01X6950000Y2060000D02*
G01X6990000Y2100000D01*
G01X6990000Y2330000D01*
G01X6750000Y2060000D02*
G01X6950000Y2060000D01*
G01X6710000Y2120000D02*
G01X6710000Y2100000D01*
G01X6750000Y2060000D01*
G54D16*
G01X6710000Y2437254D02*
G01X6896512Y2437254D01*
G01X6947312Y2488054D01*
G01X7019154Y2488054D01*
G01X7070000Y2538900D01*
G01X4460000Y1110000D02*
G01X5000000Y1110000D01*
G54D14*
G01X5670000Y2690000D02*
G01X5660000Y2680000D01*
G54D13*
G01X3480000Y2668600D02*
G01X3480000Y1760000D01*
G01X3680000Y2320000D02*
G01X3680000Y2670000D01*
G54D16*
G01X3380000Y1710800D02*
G01X3380000Y2529200D01*
G01X3529200Y2760000D02*
G01X3580000Y2709200D01*
G01X3580000Y2350000D01*
G01X3380000Y2529200D02*
G01X3309200Y2600000D01*
G54D14*
G01X5570000Y2600000D02*
G01X5740000Y2600000D01*
G01X5540000Y2630000D02*
G01X5570000Y2600000D01*
G01X4259599Y1809599D02*
G01X4259599Y1549974D01*
G01X4260000Y1810000D02*
G01X4259599Y1809599D01*
G01X4260000Y2029200D02*
G01X4260000Y1810000D01*
G01X4285400Y2054600D02*
G01X4260000Y2029200D01*
G01X5510000Y2554600D02*
G01X5484600Y2580000D01*
G01X5510000Y2280000D02*
G01X5510000Y2554600D01*
G01X5550000Y2240000D02*
G01X5510000Y2280000D01*
G01X5930000Y2240000D02*
G01X5550000Y2240000D01*
G01X5950000Y2220000D02*
G01X5930000Y2240000D01*
G01X2970000Y1240000D02*
G01X2970000Y1890000D01*
G01X2921600Y1938400D01*
G54D16*
G01X2620000Y1880000D02*
G01X2840000Y1880000D01*
G54D14*
G01X2921600Y1938400D02*
G01X2641600Y1938400D01*
G01X2620000Y1960000D01*
G54D13*
G01X4530000Y2243300D02*
G01X3756700Y2243300D01*
G01X3680000Y2320000D01*
G54D14*
G01X3850000Y2350000D02*
G01X3870000Y2330000D01*
G01X5810000Y2050000D02*
G01X5770000Y2010000D01*
G01X4351399Y2010000D01*
G01X5860000Y1990000D02*
G01X5830000Y1960000D01*
G01X4440000Y1960000D01*
G01X4900000Y2690344D02*
G01X4899656Y2690000D01*
G01X4530000Y2690000D01*
G01X3450000Y1500000D02*
G01X3450000Y1290000D01*
G54D16*
G01X3309200Y2600000D02*
G01X3209462Y2600000D01*
G01X3230000Y2680013D02*
G01X3230000Y2720000D01*
G01X3270000Y2760000D01*
G01X3529200Y2760000D01*
G01X3209462Y2600000D02*
G01X3158900Y2650562D01*
G54D14*
G01X2788400Y760000D02*
G01X2828400Y720000D01*
G01X2960000Y720000D01*
G01X5474190Y2121600D02*
G01X5425810Y2121600D01*
G01X5530000Y2180000D02*
G01X5530000Y2177409D01*
G01X5474190Y2121600D01*
G01X5220000Y2090000D02*
G01X5184600Y2054600D01*
G01X4285400Y2054600D01*
G01X3870000Y2330000D02*
G01X5144600Y2330000D01*
G01X5170000Y2355400D01*
G01X5170000Y2600000D01*
G01X5200000Y2630000D01*
G01X5540000Y2630000D01*
G01X5484600Y2580000D02*
G01X5260000Y2580000D01*
G01X5220000Y2540000D01*
G01X5220000Y2090000D01*
G01X5660000Y2680000D02*
G01X5210000Y2680000D01*
G01X5170000Y2720000D01*
G01X5170000Y3280000D01*
G01X5220000Y3330000D01*
G01X5425810Y2121600D02*
G01X5405610Y2141800D01*
G01X5368201Y2141800D01*
G54D16*
G01X3158900Y2650562D02*
G01X3158900Y2848900D01*
G01X3205700Y2895700D01*
G01X3230000Y2895700D01*
G54D14*
G01X7150000Y2730000D02*
G01X7150000Y2460000D01*
G01X7110000Y2420000D01*
G54D13*
G01X4295336Y630000D02*
G01X3600000Y630000D01*
G54D14*
G01X2353800Y493800D02*
G01X3003800Y493800D01*
G01X3040000Y530000D01*
G01X3040000Y810000D01*
G01X3010000Y840000D01*
G01X2970000Y840000D01*
G54D13*
G01X2510000Y630000D02*
G01X2130000Y630000D01*
G01X2083500Y676500D01*
G54D14*
G01X2160001Y540000D02*
G01X2240000Y460000D01*
G01X2000000Y830000D02*
G01X2000000Y580000D01*
G01X2040000Y540000D01*
G01X2160001Y540000D01*
G54D13*
G01X2083500Y676500D02*
G01X2083500Y896500D01*
G01X2020000Y960000D01*
G01X1580000Y960000D01*
G54D14*
G01X6000000Y2240000D02*
G01X5960000Y2280000D01*
G01X5590000Y2280000D01*
G01X6200000Y1860000D02*
G01X6210000Y1860000D01*
G01X6260000Y1910000D01*
G01X6260000Y2053000D01*
G01X6234600Y2078400D01*
G01X6031600Y2078400D01*
G01X6000000Y2110000D01*
G01X6000000Y2240000D01*
G01X6200000Y2020000D02*
G01X6000000Y2020000D01*
G01X5950000Y2070000D01*
G01X5950000Y2220000D01*
G54D13*
G01X5870000Y520000D02*
G01X5870000Y383822D01*
G01X5930000Y323822D01*
G01X7570000Y323822D01*
G04 Track End*

M02*

