G04 Layer: TopSolderMaskLayer*
G04 EasyEDA Pro v3.2.91, 2026-03-10 20:08:44*
G04 Gerber Generator version 0.3*
G04 Scale: 100 percent, Rotated: No, Reflected: No*
G04 Dimensions in millimeters*
G04 Leading zeros omitted, absolute positions, 4 integers and 5 decimals*
G04 Generated by one-click*
%FSLAX45Y45*%
%MOMM*%
%AMRoundRect*1,1,$1,$2,$3*1,1,$1,$4,$5*1,1,$1,0-$2,0-$3*1,1,$1,0-$4,0-$5*20,1,$1,$2,$3,$4,$5,0*20,1,$1,$4,$5,0-$2,0-$3,0*20,1,$1,0-$2,0-$3,0-$4,0-$5,0*20,1,$1,0-$4,0-$5,$2,$3,0*4,1,4,$2,$3,$4,$5,0-$2,0-$3,0-$4,0-$5,$2,$3,0*%
%ADD10C,1.6256*%
%ADD11RoundRect,0.1016X-1.75X0.6X1.75X0.6*%
%ADD12RoundRect,0.1016X-0.6X-1.75X-0.6X1.75*%
%ADD13RoundRect,0.1016X-0.27X-0.28283X-0.27X0.28283*%
%ADD14RoundRect,0.10003X-1.75X-1.15X-1.75X1.15*%
%ADD15RoundRect,0.10003X-0.9X-0.25X-0.9X0.25*%
%ADD16RoundRect,0.1016X-0.45X1.1X0.45X1.1*%
%ADD17RoundRect,0.1016X-0.85051X-0.60376X-0.85051X0.60376*%
%ADD18RoundRect,0.1092X-0.60376X0.85051X0.60376X0.85051*%
%ADD19RoundRect,0.1016X-0.60376X0.85051X0.60376X0.85051*%
%ADD20RoundRect,0.1016X-1.6X-1.6X-1.6X1.6*%
%ADD21O,1.0016X0.38161*%
%ADD22O,0.38161X1.0016*%
%ADD23RoundRect,0.1016X-0.28283X0.27X0.28283X0.27*%
%ADD24RoundRect,0.1X-0.6X-0.6X-0.6X0.6*%
%ADD25RoundRect,0.1X-0.8X-0.75X-0.8X0.75*%
%ADD26RoundRect,0.1016X-1.6X1.6X1.6X1.6*%
%ADD27RoundRect,0.1016X-0.4X0.4X0.4X0.4*%
%ADD28RoundRect,0.1016X-0.266X0.536X0.266X0.536*%
%ADD29RoundRect,0.1X-0.6X0.6X0.6X0.6*%
%ADD30RoundRect,0.1X-0.75X0.8X0.75X0.8*%
%ADD31RoundRect,0.1016X-0.55X-1.25X-0.55X1.25*%
%ADD32RoundRect,0.1016X-1.8X-1.17X-1.8X1.17*%
%ADD33RoundRect,0.1016X-0.705X0.67501X0.705X0.67501*%
%ADD34RoundRect,0.1016X0.13082X-0.32881X-0.32881X0.13082*%
%ADD35RoundRect,0.1016X-0.13082X-0.32881X-0.32881X-0.13082*%
%ADD36RoundRect,0.1016X0.0X-2.687X-2.687X0.0*%
%ADD37RoundRect,0.1016X-0.17028X-0.50349X-0.47643X0.23561*%
%ADD38RoundRect,0.1016X-0.57X-0.25X-0.57X0.25*%
%ADD39RoundRect,0.1016X-0.57X-0.15X-0.57X0.15*%
%ADD40RoundRect,0.1016X-0.6X-0.85X-0.6X0.85*%
%ADD41RoundRect,0.1016X-0.75X-0.85X-0.75X0.85*%
%ADD42RoundRect,0.1016X-0.675X-0.705X-0.675X0.705*%
%ADD43RoundRect,0.1016X-1.0X-1.0X-1.0X1.0*%
%ADD44RoundRect,0.10003X-0.35X-0.12192X-0.35X0.12192*%
%ADD45RoundRect,0.10003X-0.12192X-0.35X-0.12192X0.35*%
%ADD46O,1.18859X0.46561*%
%ADD47O,0.46561X1.18859*%
%ADD48RoundRect,0.1016X-1.05X-1.05X-1.05X1.05*%
%ADD49RoundRect,0.1016X-1.06001X-0.7X-1.06001X0.7*%
%ADD50RoundRect,0.1016X-0.7X1.06001X0.7X1.06001*%
%ADD51RoundRect,0.1016X-0.62501X0.35X0.62501X0.35*%
%ADD52RoundRect,0.1016X-0.432X-0.40324X-0.432X0.40324*%
%ADD53RoundRect,0.1016X-0.27X-0.25X-0.27X0.25*%
%ADD54RoundRect,0.1016X-0.01414X-0.3677X-0.3677X-0.01414*%
%ADD55RoundRect,0.1016X-0.25X0.27X0.25X0.27*%
%ADD56RoundRect,0.1016X-0.15378X-0.33429X-0.34512X0.12764*%
%ADD57RoundRect,0.1016X-0.3677X0.01414X-0.01414X0.3677*%
%ADD58RoundRect,0.1016X-0.33429X0.15378X0.12764X0.34512*%
%ADD59RoundRect,0.1016X-0.14122X-0.36463X-0.35768X0.15797*%
%ADD60RoundRect,0.1016X-0.52501X-1.2325X-0.52501X1.2325*%
%ADD61RoundRect,0.1016X-1.77X-1.2325X-1.77X1.2325*%
%ADD62RoundRect,0.10003X-0.3X1.0X0.3X1.0*%
%ADD63RoundRect,0.10003X-1.3X1.05X1.3X1.05*%
%ADD64RoundRect,0.1016X-0.615X0.93X0.615X0.93*%
%ADD65RoundRect,0.1016X-0.40324X0.432X0.40324X0.432*%
%ADD66RoundRect,0.1016X-0.6X2.84999X0.6X2.84999*%
%ADD67RoundRect,0.1016X-0.55X1.25X0.55X1.25*%
%ADD68RoundRect,0.1016X-1.225X0.6X1.225X0.6*%
G75*


G04 Pad Start*
G54D10*
G01X7250000Y800000D03*
G01X7250000Y1200000D03*
G54D11*
G01X3152995Y2790000D03*
G01X3687005Y2790000D03*
G54D12*
G01X2640000Y1187005D03*
G01X2640000Y652995D03*
G54D13*
G01X2670000Y1743282D03*
G01X2670000Y1656719D03*
G01X2550000Y1656719D03*
G01X2550000Y1743282D03*
G54D14*
G01X2497498Y3194995D03*
G01X2497498Y2405005D03*
G54D15*
G01X2702502Y2650013D03*
G01X2702502Y2750013D03*
G01X2702502Y2850013D03*
G01X2702502Y2950012D03*
G54D16*
G01X5940000Y3360000D03*
G01X6440000Y3360000D03*
G54D17*
G01X1590000Y1317879D03*
G01X1590000Y1022121D03*
G01X1950000Y1317879D03*
G01X1950000Y1022121D03*
G54D19*
G01X3052101Y2169971D03*
G01X3347858Y2169971D03*
G01X3052101Y1809971D03*
G01X3347858Y1809971D03*
G54D20*
G01X3739967Y1989958D03*
G54D21*
G01X3489980Y1839844D03*
G01X3489980Y1889882D03*
G01X3489980Y1939920D03*
G01X3489980Y1989958D03*
G01X3489980Y2039996D03*
G01X3489980Y2090034D03*
G01X3489980Y2140072D03*
G54D22*
G01X3589853Y2239971D03*
G01X3639891Y2239971D03*
G01X3689929Y2239971D03*
G01X3739967Y2239971D03*
G01X3790005Y2239971D03*
G01X3840043Y2239971D03*
G01X3890081Y2239971D03*
G54D21*
G01X3989979Y2140072D03*
G01X3989979Y2090034D03*
G01X3989979Y2039996D03*
G01X3989979Y1989958D03*
G01X3989979Y1939920D03*
G01X3989979Y1889882D03*
G01X3989979Y1839844D03*
G54D22*
G01X3890081Y1739972D03*
G01X3840043Y1739972D03*
G01X3790005Y1739972D03*
G01X3739967Y1739972D03*
G01X3689929Y1739972D03*
G01X3639891Y1739972D03*
G01X3589853Y1739972D03*
G54D23*
G01X3746698Y1489971D03*
G01X3833261Y1489971D03*
G54D13*
G01X4370000Y2586718D03*
G01X4370000Y2673282D03*
G54D24*
G01X4029980Y2872478D03*
G54D25*
G01X4129980Y2547459D03*
G54D24*
G01X4229979Y2872478D03*
G54D23*
G01X4223261Y1889971D03*
G01X4136698Y1889971D03*
G01X4223261Y2009971D03*
G01X4136698Y2009971D03*
G01X4223261Y1769971D03*
G01X4136698Y1769971D03*
G01X4223261Y2369971D03*
G01X4136698Y2369971D03*
G01X4223261Y2129971D03*
G01X4136698Y2129971D03*
G01X4223261Y2249971D03*
G01X4136698Y2249971D03*
G54D26*
G01X1769987Y630013D03*
G54D22*
G01X1619873Y880000D03*
G01X1669911Y880000D03*
G01X1719949Y880000D03*
G01X1769987Y880000D03*
G01X1820025Y880000D03*
G01X1870063Y880000D03*
G01X1920101Y880000D03*
G54D21*
G01X2020000Y780127D03*
G01X2020000Y730089D03*
G01X2020000Y680051D03*
G01X2020000Y630013D03*
G01X2020000Y579975D03*
G01X2020000Y529937D03*
G01X2020000Y479899D03*
G54D22*
G01X1920101Y380001D03*
G01X1870063Y380001D03*
G01X1820025Y380001D03*
G01X1769987Y380001D03*
G01X1719949Y380001D03*
G01X1669911Y380001D03*
G01X1619873Y380001D03*
G54D21*
G01X1520001Y479899D03*
G01X1520001Y529937D03*
G01X1520001Y579975D03*
G01X1520001Y630013D03*
G01X1520001Y680051D03*
G01X1520001Y730089D03*
G01X1520001Y780127D03*
G54D13*
G01X1270000Y623282D03*
G01X1270000Y536719D03*
G54D23*
G01X5483282Y1620000D03*
G01X5396718Y1620000D03*
G54D27*
G01X5350000Y1329990D03*
G01X5350000Y1490010D03*
G54D13*
G01X5200000Y1503281D03*
G01X5200000Y1416718D03*
G54D28*
G01X6864996Y2234910D03*
G01X6770000Y2234910D03*
G01X6675004Y2234910D03*
G01X6675004Y2005090D03*
G01X6770000Y2005090D03*
G01X6864996Y2005090D03*
G54D13*
G01X7000000Y2123282D03*
G01X7000000Y2036718D03*
G54D23*
G01X7083281Y2730000D03*
G01X6996718Y2730000D03*
G01X7083281Y2370000D03*
G01X6996718Y2370000D03*
G01X6996718Y2250000D03*
G01X7083281Y2250000D03*
G54D13*
G01X6080000Y1936719D03*
G01X6080000Y2023282D03*
G01X5590000Y2693282D03*
G01X5590000Y2606718D03*
G54D23*
G01X7083281Y2610000D03*
G01X6996718Y2610000D03*
G01X7083281Y2490000D03*
G01X6996718Y2490000D03*
G54D13*
G01X1670000Y146718D03*
G01X1670000Y233281D03*
G01X1790000Y146718D03*
G01X1790000Y233281D03*
G01X1910000Y146718D03*
G01X1910000Y233281D03*
G01X2030000Y146718D03*
G01X2030000Y233281D03*
G01X2150000Y146718D03*
G01X2150000Y233281D03*
G54D29*
G01X2652507Y340000D03*
G54D30*
G01X2327488Y240000D03*
G54D29*
G01X2652507Y140000D03*
G54D23*
G01X2406718Y470000D03*
G01X2493282Y470000D03*
G54D13*
G01X1550000Y146718D03*
G01X1550000Y233281D03*
G54D31*
G01X5129997Y3096995D03*
G01X4900000Y3096995D03*
G01X4670003Y3096995D03*
G54D32*
G01X4900000Y2503003D03*
G54D33*
G01X5000000Y2270000D03*
G01X4800000Y2270000D03*
G54D34*
G01X6148561Y2708935D03*
G01X6113197Y2673571D03*
G01X6077851Y2638224D03*
G01X6042486Y2602860D03*
G01X6007140Y2567514D03*
G01X5971776Y2532149D03*
G01X5936430Y2496803D03*
G01X5901065Y2461439D03*
G54D35*
G01X5901065Y2358561D03*
G01X5936430Y2323197D03*
G01X5971776Y2287851D03*
G01X6007140Y2252486D03*
G01X6042486Y2217140D03*
G01X6077851Y2181776D03*
G01X6113197Y2146429D03*
G01X6148561Y2111065D03*
G54D34*
G01X6251439Y2111065D03*
G01X6286803Y2146429D03*
G01X6322149Y2181776D03*
G01X6357514Y2217140D03*
G01X6392860Y2252486D03*
G01X6428224Y2287851D03*
G01X6463571Y2323197D03*
G01X6498935Y2358561D03*
G54D35*
G01X6498935Y2461439D03*
G01X6463571Y2496803D03*
G01X6428224Y2532149D03*
G01X6392860Y2567514D03*
G01X6357514Y2602860D03*
G01X6322149Y2638224D03*
G01X6286803Y2673571D03*
G01X6251439Y2708935D03*
G54D36*
G01X6200000Y2410000D03*
G54D37*
G01X6653268Y2697748D03*
G01X6764134Y2743670D03*
G01X6706731Y2882252D03*
G01X6595866Y2836330D03*
G54D23*
G01X5803282Y2850000D03*
G01X5716718Y2850000D03*
G54D38*
G01X7769165Y2870002D03*
G01X7769165Y2789992D03*
G54D39*
G01X7769190Y2724993D03*
G01X7769089Y2674955D03*
G01X7769190Y2624993D03*
G01X7769190Y2574981D03*
G01X7769190Y2524994D03*
G01X7769190Y2474981D03*
G01X7769190Y2424994D03*
G01X7769089Y2374981D03*
G54D38*
G01X7769165Y2310008D03*
G01X7769165Y2229998D03*
G54D40*
G01X7810897Y2029998D03*
G01X7810897Y3070001D03*
G54D41*
G01X8230911Y2029998D03*
G01X8230911Y3070001D03*
G54D33*
G01X4590000Y1020000D03*
G01X4790000Y1020000D03*
G01X5770000Y1080000D03*
G01X5570000Y1080000D03*
G54D42*
G01X5340000Y640000D03*
G01X5340000Y840000D03*
G54D33*
G01X6110000Y1370000D03*
G01X6310000Y1370000D03*
G54D42*
G01X6530000Y120000D03*
G01X6530000Y320000D03*
G54D33*
G01X7040000Y600000D03*
G01X7240000Y600000D03*
G54D43*
G01X6060000Y1129989D03*
G01X6060000Y690011D03*
G54D44*
G01X5195862Y496113D03*
G01X5195862Y546113D03*
G01X5195862Y596113D03*
G01X5195862Y646113D03*
G01X5195862Y696110D03*
G54D45*
G01X5098143Y889412D03*
G01X4948144Y889412D03*
G54D44*
G01X4850422Y846112D03*
G01X4850422Y796112D03*
G01X4850422Y746113D03*
G01X4850422Y696110D03*
G01X4850422Y646113D03*
G54D45*
G01X4948144Y452415D03*
G01X5098143Y452415D03*
G54D44*
G01X5195862Y746110D03*
G01X4850422Y596113D03*
G01X5195862Y796110D03*
G01X5195862Y846110D03*
G01X4850422Y546113D03*
G01X4850422Y496113D03*
G36*
G01X5008542Y417411D02*
G01X4985542Y417411D01*
G01X4982014Y418868D01*
G01X4980541Y422389D01*
G01X4980163Y503890D01*
G01X4966561Y504112D01*
G01X4963095Y505587D01*
G01X4961641Y509061D01*
G01X4961593Y513721D01*
G01X4921531Y513809D01*
G01X4918002Y515278D01*
G01X4916541Y518810D01*
G01X4916541Y823511D01*
G01X4918018Y827060D01*
G01X4921576Y828513D01*
G01X4961042Y828247D01*
G01X4961042Y833011D01*
G01X4962479Y836519D01*
G01X4965964Y838012D01*
G01X4980041Y838234D01*
G01X4980041Y919412D01*
G01X4981506Y922948D01*
G01X4985042Y924413D01*
G01X5008443Y924413D01*
G01X5011980Y922948D01*
G01X5013444Y919412D01*
G01X5013444Y838065D01*
G01X5031842Y838260D01*
G01X5031842Y919412D01*
G01X5033306Y922948D01*
G01X5036843Y924413D01*
G01X5060241Y924413D01*
G01X5063778Y922948D01*
G01X5065243Y919412D01*
G01X5065243Y838092D01*
G01X5079164Y838311D01*
G01X5082752Y836875D01*
G01X5084244Y833311D01*
G01X5084244Y828513D01*
G01X5124541Y828513D01*
G01X5128077Y827049D01*
G01X5129543Y823515D01*
G01X5129743Y518711D01*
G01X5128279Y515175D01*
G01X5124742Y513710D01*
G01X5084844Y513710D01*
G01X5084844Y508912D01*
G01X5083370Y505367D01*
G01X5079817Y503911D01*
G01X5065542Y503984D01*
G01X5065542Y422811D01*
G01X5064077Y419275D01*
G01X5060541Y417810D01*
G01X5037420Y417912D01*
G01X5033898Y419384D01*
G01X5032441Y422913D01*
G01X5032534Y504094D01*
G01X5013827Y504028D01*
G01X5013543Y422395D01*
G01X5012072Y418870D01*
G01X5008542Y417411D01*
G37*
G54D46*
G01X6333150Y927511D03*
G01X6333150Y862487D03*
G01X6333150Y797488D03*
G01X6333150Y732490D03*
G54D47*
G01X6432489Y633150D03*
G01X6497488Y633150D03*
G01X6562486Y633150D03*
G01X6627510Y633150D03*
G54D46*
G01X6726850Y732490D03*
G01X6726850Y797488D03*
G01X6726850Y862487D03*
G01X6726850Y927511D03*
G54D47*
G01X6627510Y1026850D03*
G01X6562486Y1026850D03*
G01X6497488Y1026850D03*
G01X6432489Y1026850D03*
G54D48*
G01X6530000Y830000D03*
G54D49*
G01X5673142Y903707D03*
G01X5673142Y498120D03*
G54D50*
G01X5947206Y240000D03*
G01X6352793Y240000D03*
G54D27*
G01X6680000Y1179990D03*
G01X6680000Y1340010D03*
G01X6510000Y1179990D03*
G01X6510000Y1340010D03*
G01X5530000Y1329990D03*
G01X5530000Y1490010D03*
G54D51*
G01X2410000Y1605004D03*
G01X2410000Y1794996D03*
G01X2210000Y1700000D03*
G54D23*
G01X4433282Y1890000D03*
G01X4346719Y1890000D03*
G01X4433282Y1770000D03*
G01X4346719Y1770000D03*
G54D13*
G01X5010000Y246718D03*
G01X5010000Y333282D03*
G54D19*
G01X6807879Y1530000D03*
G01X6512121Y1530000D03*
G54D23*
G01X6913282Y1320000D03*
G01X6826718Y1320000D03*
G01X7083281Y2850000D03*
G01X6996718Y2850000D03*
G54D17*
G01X6750000Y112121D03*
G01X6750000Y407879D03*
G54D52*
G01X6735000Y1870336D03*
G01X6735000Y1719664D03*
G54D17*
G01X6990000Y112121D03*
G01X6990000Y407879D03*
G54D23*
G01X6826718Y1200000D03*
G01X6913282Y1200000D03*
G54D17*
G01X7230000Y112121D03*
G01X7230000Y407879D03*
G54D53*
G01X1410000Y1062012D03*
G01X1410000Y977988D03*
G54D54*
G01X6319707Y2890293D03*
G01X6260293Y2949707D03*
G01X6409707Y2970293D03*
G01X6350293Y3029707D03*
G54D53*
G01X1390000Y622012D03*
G01X1390000Y537989D03*
G01X6865000Y2357988D03*
G01X6865000Y2442012D03*
G01X5470000Y2607988D03*
G01X5470000Y2692012D03*
G54D55*
G01X1402012Y390000D03*
G01X1317988Y390000D03*
G01X1402012Y270000D03*
G01X1317988Y270000D03*
G54D53*
G01X5470000Y2847988D03*
G01X5470000Y2932011D03*
G01X5590000Y2847988D03*
G01X5590000Y2932011D03*
G54D55*
G01X5932012Y2720000D03*
G01X5847988Y2720000D03*
G54D53*
G01X2130000Y1062012D03*
G01X2130000Y977988D03*
G01X2150000Y357988D03*
G01X2150000Y442012D03*
G01X4890000Y247988D03*
G01X4890000Y332012D03*
G54D54*
G01X6390293Y2109707D03*
G01X6449707Y2050293D03*
G01X6480293Y2199707D03*
G01X6539707Y2140293D03*
G54D53*
G01X4710000Y737988D03*
G01X4710000Y822012D03*
G01X4770000Y332012D03*
G01X4770000Y247988D03*
G54D55*
G01X3307988Y1630000D03*
G01X3392012Y1630000D03*
G01X3747968Y1609971D03*
G01X3831991Y1609971D03*
G54D53*
G01X5700000Y2147988D03*
G01X5700000Y2232012D03*
G01X3979980Y1621983D03*
G01X3979980Y1537960D03*
G54D55*
G01X5922012Y3100000D03*
G01X5837988Y3100000D03*
G54D53*
G01X4099980Y1621983D03*
G01X4099980Y1537960D03*
G54D56*
G01X6833923Y2908814D03*
G01X6866077Y2831186D03*
G54D55*
G01X5062012Y990000D03*
G01X4977989Y990000D03*
G54D53*
G01X5190000Y1072012D03*
G01X5190000Y987988D03*
G54D57*
G01X6090293Y2800293D03*
G01X6149707Y2859707D03*
G54D53*
G01X5130000Y247988D03*
G01X5130000Y332012D03*
G54D58*
G01X6571186Y2963923D03*
G01X6648814Y2996077D03*
G54D55*
G01X3307988Y2350000D03*
G01X3392012Y2350000D03*
G01X3952012Y2440000D03*
G01X3867988Y2440000D03*
G01X6277988Y1210000D03*
G01X6362012Y1210000D03*
G01X6247988Y530000D03*
G01X6332011Y530000D03*
G54D53*
G01X6870000Y642011D03*
G01X6870000Y557988D03*
G01X6870000Y757988D03*
G01X6870000Y842012D03*
G54D59*
G01X5996563Y2900013D03*
G01X5963437Y2979987D03*
G54D33*
G01X5000000Y1230000D03*
G01X4800000Y1230000D03*
G54D60*
G01X5129997Y2035750D03*
G01X4900000Y2035750D03*
G01X4670003Y2035750D03*
G54D61*
G01X4900000Y1464250D03*
G54D13*
G01X5680000Y1416718D03*
G01X5680000Y1503281D03*
G54D62*
G01X1599999Y1637503D03*
G01X1500000Y1637503D03*
G01X1400000Y1637503D03*
G01X1300000Y1637503D03*
G01X1200000Y1637503D03*
G01X1100000Y1637503D03*
G01X1000001Y1637503D03*
G01X900001Y1637503D03*
G54D63*
G01X1842493Y1862497D03*
G01X657507Y1862497D03*
G54D64*
G01X5481509Y1900000D03*
G01X5918491Y1900000D03*
G54D13*
G01X5370000Y246718D03*
G01X5370000Y333282D03*
G01X5250000Y246718D03*
G01X5250000Y333282D03*
G54D23*
G01X4556718Y370000D03*
G01X4643282Y370000D03*
G54D52*
G01X4570000Y504664D03*
G01X4570000Y655337D03*
G54D13*
G01X4710000Y536719D03*
G01X4710000Y623282D03*
G54D65*
G01X4574664Y110000D03*
G01X4725336Y110000D03*
G54D23*
G01X4556718Y250000D03*
G01X4643282Y250000D03*
G54D52*
G01X6585000Y1870336D03*
G01X6585000Y1719664D03*
G54D66*
G01X473000Y679997D03*
G01X727000Y679997D03*
G54D67*
G01X165000Y320003D03*
G01X1035000Y320003D03*
G54D66*
G01X3823000Y679997D03*
G01X4077000Y679997D03*
G54D67*
G01X3515000Y320003D03*
G01X4385000Y320003D03*
G54D68*
G01X7500000Y450001D03*
G01X7500000Y950000D03*
G01X7500000Y699987D03*
G04 Pad End*

M02*

