G04 Layer: TopLayer*
G04 EasyEDA Pro v3.2.91, 2026-03-10 20:08:44*
G04 Gerber Generator version 0.3*
G04 Scale: 100 percent, Rotated: No, Reflected: No*
G04 Dimensions in millimeters*
G04 Leading zeros omitted, absolute positions, 4 integers and 5 decimals*
G04 Generated by one-click*
%FSLAX45Y45*%
%MOMM*%
%AMRect*21,1,$1,$2,0,0,$3*%
%AMPolygonMacro1*4,1,29,-0.146,-2.485,-0.376,-2.485,-0.38001,-1.62102,-0.565,-1.61799,-0.56599,-1.52201,-1.016,-1.52102,-1.016,1.52599,-0.57099,1.523,-0.57099,1.62099,-0.381,1.62399,-0.381,2.485,-0.14699,2.485,-0.14699,1.62099,0.13701,1.62399,0.13701,2.485,0.37099,2.485,0.37099,1.62099,0.56101,1.62399,0.56101,1.52599,1.01399,1.52599,1.016,-1.52201,0.567,-1.52201,0.567,-1.62,0.37399,-1.61901,0.37399,-2.48101,0.143,-2.47999,0.14399,-1.61799,-0.14501,-1.61901,-0.143,-1.62102,-0.146,-2.485,0*%
%ADD10C,0.2032*%
%ADD11C,0.254*%
%ADD12C,1.524*%
%ADD13R,3.49999X1.2*%
%ADD14R,1.2X3.49999*%
%ADD15R,0.54X0.56566*%
%ADD16R,3.49999X2.3*%
%ADD17R,1.8X0.5*%
%ADD18R,0.9X2.2*%
%ADD19R,1.7056X1.20752*%
%ADD20R,1.70101X1.20752*%
%ADD21R,1.20752X1.70101*%
%ADD22R,3.19999X3.19999*%
%ADD23O,0.9X0.28001*%
%ADD24O,0.28001X0.9*%
%ADD25R,0.56566X0.54*%
%ADD26R,1.2X1.2*%
%ADD27R,1.6X1.5*%
%ADD28R,0.8X0.8*%
%ADD29R,0.532X1.07201*%
%ADD30R,1.5X1.6*%
%ADD31R,1.1X2.49999*%
%ADD32R,3.59999X2.34*%
%ADD33R,1.41X1.35001*%
%ADD34Rect,0.65001X0.28001X135.0*%
%ADD35Rect,0.28001X0.65001X135.0*%
%ADD36Rect,3.79999X3.79999X135.0*%
%ADD37Rect,0.8X0.7X112.5*%
%ADD38R,1.14X0.5*%
%ADD39R,1.14X0.3*%
%ADD40R,1.2X1.7*%
%ADD41R,1.5X1.7*%
%ADD42R,1.35001X1.41*%
%ADD43R,2.0X2.0*%
%ADD44R,0.7X0.24384*%
%ADD45R,0.24384X0.7*%
%ADD46PolygonMacro1*%
%ADD47O,1.08699X0.36401*%
%ADD48O,0.36401X1.08699*%
%ADD49R,2.1X2.1*%
%ADD50R,2.12001X1.4*%
%ADD51R,1.4X2.12001*%
%ADD52R,1.25001X0.7*%
%ADD53R,0.86401X0.80648*%
%ADD54R,0.54X0.5*%
%ADD55Rect,0.5X0.54X135.0*%
%ADD56R,0.5X0.54*%
%ADD57Rect,0.5X0.54X112.5*%
%ADD58Rect,0.5X0.54X45.0*%
%ADD59Rect,0.5X0.54X22.5*%
%ADD60Rect,0.56566X0.54X112.5*%
%ADD61R,1.05001X2.46499*%
%ADD62R,3.54X2.46499*%
%ADD63R,0.6X2.0*%
%ADD64R,2.59999X2.1*%
%ADD65R,1.23X1.85999*%
%ADD66R,0.80648X0.86401*%
%ADD67R,1.2X5.69999*%
%ADD68R,2.45001X1.2*%
%ADD69C,0.61*%
%ADD70C,1.016*%
%ADD71C,0.28*%
%ADD72C,0.508*%
%ADD73C,0.5*%
G75*


G04 Copper Start*
G36*
G01X1964732Y840160D02*
G01X1919087Y840160D01*
G01X1919878Y849000D01*
G01X1919877Y911224D01*
G01X1919877Y925931D01*
G01X2035051Y925931D01*
G01X2046118Y927684D01*
G01X2056101Y932771D01*
G01X2064025Y940694D01*
G01X2069112Y950678D01*
G01X2070865Y961745D01*
G01X2070865Y1009658D01*
G01X2079879Y1009661D01*
G01X2086849Y1005046D01*
G01X2094698Y1002173D01*
G01X2103000Y1001198D01*
G01X2157000Y1001198D01*
G01X2165316Y1002177D01*
G01X2173178Y1005060D01*
G01X2180155Y1009690D01*
G01X2544254Y1009794D01*
G01X2546527Y999269D01*
G01X2551826Y989895D01*
G01X2559672Y982520D01*
G01X2569355Y977810D01*
G01X2580000Y976191D01*
G01X2681486Y976191D01*
G01X2681486Y480095D01*
G01X2679905Y478514D01*
G01X2598514Y478514D01*
G01X2598514Y509483D01*
G01X2596861Y522039D01*
G01X2592014Y533740D01*
G01X2584305Y543787D01*
G01X2558905Y569187D01*
G01X2548857Y576897D01*
G01X2537156Y581744D01*
G01X2524600Y583397D01*
G01X2455213Y583397D01*
G01X2448514Y590095D01*
G01X2448514Y620000D01*
G01X2446861Y632556D01*
G01X2442014Y644257D01*
G01X2434305Y654305D01*
G01X2404305Y684305D01*
G01X2394257Y692014D01*
G01X2382556Y696861D01*
G01X2370000Y698514D01*
G01X2130095Y698514D01*
G01X2114254Y714355D01*
G01X2107772Y719794D01*
G01X2100443Y724024D01*
G01X2100800Y728913D01*
G01X2154497Y728913D01*
G01X2170152Y724548D01*
G01X2186398Y724122D01*
G01X2202260Y727660D01*
G01X2216785Y734951D01*
G01X2229101Y745555D01*
G01X2238468Y758836D01*
G01X2244323Y773997D01*
G01X2246314Y790127D01*
G01X2244323Y806256D01*
G01X2238468Y821417D01*
G01X2229101Y834698D01*
G01X2216785Y845303D01*
G01X2202260Y852593D01*
G01X2186398Y856131D01*
G01X2170152Y855705D01*
G01X2154497Y851341D01*
G01X2000000Y851341D01*
G01X1987559Y850063D01*
G01X1975637Y846284D01*
G01X1964732Y840160D01*
G37*
G36*
G01X5908802Y2747000D02*
G01X5908689Y2749840D01*
G01X6046502Y2749840D01*
G01X6063592Y2732696D01*
G01X6082078Y2709626D01*
G01X6085515Y2702710D01*
G01X6090356Y2696692D01*
G01X6128849Y2658198D01*
G01X6093223Y2622572D01*
G01X6054729Y2661066D01*
G01X6047047Y2666909D01*
G01X6019651Y2694305D01*
G01X6009603Y2702014D01*
G01X5997903Y2706861D01*
G01X5985346Y2708514D01*
G01X5908802Y2708514D01*
G01X5908802Y2747000D01*
G37*
G36*
G01X6213468Y2711885D02*
G01X6210160Y2717253D01*
G01X6210160Y2805792D01*
G01X6365673Y2961305D01*
G01X6374203Y2967613D01*
G01X6411111Y3004520D01*
G01X6460194Y2955437D01*
G01X6332816Y2828059D01*
G01X6330303Y2823906D01*
G01X6321308Y2810868D01*
G01X6315662Y2796068D01*
G01X6313687Y2780352D01*
G01X6315495Y2764615D01*
G01X6320984Y2749756D01*
G01X6329840Y2736623D01*
G01X6329840Y2712400D01*
G01X6320208Y2703616D01*
G01X6314740Y2700478D01*
G01X6309907Y2696430D01*
G01X6271413Y2657936D01*
G01X6225324Y2704024D01*
G01X6219790Y2708550D01*
G01X6213468Y2711885D01*
G37*
G36*
G01X3408234Y2290836D02*
G01X3374010Y2290836D01*
G01X3373735Y2888543D01*
G01X3884926Y2888543D01*
G01X3884926Y2668514D01*
G01X3785400Y2668514D01*
G01X3772844Y2666861D01*
G01X3761143Y2662014D01*
G01X3751096Y2654305D01*
G01X3705695Y2608904D01*
G01X3697986Y2598857D01*
G01X3693139Y2587156D01*
G01X3691486Y2574600D01*
G01X3691486Y2350355D01*
G01X3658364Y2317233D01*
G01X3649945Y2319759D01*
G01X3641214Y2320767D01*
G01X3641214Y2324497D01*
G01X3645579Y2340152D01*
G01X3646005Y2356398D01*
G01X3642466Y2372261D01*
G01X3635176Y2386786D01*
G01X3624572Y2399101D01*
G01X3611290Y2408468D01*
G01X3596129Y2414323D01*
G01X3580000Y2416314D01*
G01X3563870Y2414323D01*
G01X3548710Y2408468D01*
G01X3535428Y2399101D01*
G01X3524824Y2386786D01*
G01X3517534Y2372261D01*
G01X3513995Y2356398D01*
G01X3514421Y2340152D01*
G01X3518786Y2324497D01*
G01X3518786Y2220000D01*
G01X3519840Y2208689D01*
G01X3519840Y2139849D01*
G01X3458756Y2139848D01*
G01X3444048Y2139848D01*
G01X3444048Y2255022D01*
G01X3442295Y2266089D01*
G01X3437208Y2276073D01*
G01X3429285Y2283996D01*
G01X3419301Y2289083D01*
G01X3408234Y2290836D01*
G37*
G36*
G01X3370160Y1600160D02*
G01X3370160Y1689107D01*
G01X3408234Y1689107D01*
G01X3419301Y1690859D01*
G01X3429285Y1695946D01*
G01X3437208Y1703870D01*
G01X3442295Y1713853D01*
G01X3444048Y1724921D01*
G01X3444048Y1838680D01*
G01X3537960Y1838680D01*
G01X3537960Y1711285D01*
G01X3527739Y1700821D01*
G01X3520061Y1688370D01*
G01X3515299Y1674539D01*
G01X3513686Y1660000D01*
G01X3515299Y1645461D01*
G01X3520061Y1631630D01*
G01X3527739Y1619179D01*
G01X3537960Y1608715D01*
G01X3537960Y1600160D01*
G01X3370160Y1600160D01*
G37*
G36*
G01X1540000Y851214D02*
G01X1368620Y851214D01*
G01X1368620Y1004211D01*
G01X1375654Y1001959D01*
G01X1383000Y1001198D01*
G01X1437000Y1001198D01*
G01X1445391Y1002195D01*
G01X1453316Y1005130D01*
G01X1460331Y1009840D01*
G01X1469135Y1009840D01*
G01X1469135Y961745D01*
G01X1470888Y950678D01*
G01X1475975Y940694D01*
G01X1483899Y932771D01*
G01X1493882Y927684D01*
G01X1504949Y925931D01*
G01X1620097Y925931D01*
G01X1620097Y910999D01*
G01X1620097Y849000D01*
G01X1621548Y837066D01*
G01X1625815Y825826D01*
G01X1609988Y825826D01*
G01X1601004Y824681D01*
G01X1592595Y821320D01*
G01X1585046Y831449D01*
G01X1575578Y839813D01*
G01X1564596Y846055D01*
G01X1552565Y849910D01*
G01X1540000Y851214D01*
G37*
G36*
G01X6280924Y130160D02*
G01X6280924Y468076D01*
G01X6292021Y472662D01*
G01X6300978Y480657D01*
G01X6306790Y491163D01*
G01X6308802Y503000D01*
G01X6308802Y557000D01*
G01X6308202Y563530D01*
G01X6306421Y569840D01*
G01X6313417Y569840D01*
G01X6326482Y567172D01*
G01X6339817Y567172D01*
G01X6352883Y569840D01*
G01X6385800Y569840D01*
G01X6393646Y559468D01*
G01X6403743Y551271D01*
G01X6415507Y545726D01*
G01X6428255Y543153D01*
G01X6441248Y543701D01*
G01X6453734Y547340D01*
G01X6464989Y553857D01*
G01X6477084Y546988D01*
G01X6490533Y543436D01*
G01X6504443Y543436D01*
G01X6517892Y546988D01*
G01X6529987Y553857D01*
G01X6541485Y547236D01*
G01X6554251Y543618D01*
G01X6567513Y543221D01*
G01X6580472Y546069D01*
G01X6592346Y551990D01*
G01X6602418Y560628D01*
G01X6610081Y571460D01*
G01X6614871Y583833D01*
G01X6616501Y597001D01*
G01X6616501Y669299D01*
G01X6615544Y679422D01*
G01X6612707Y689186D01*
G01X6635000Y689186D01*
G01X6642854Y690058D01*
G01X6657277Y690058D01*
G01X6658951Y688792D01*
G01X6659410Y503638D01*
G01X6649746Y500682D01*
G01X6641294Y495144D01*
G01X6634724Y487466D01*
G01X6630561Y478259D01*
G01X6629135Y468255D01*
G01X6629135Y347503D01*
G01X6630888Y336436D01*
G01X6635975Y326452D01*
G01X6643898Y318529D01*
G01X6653882Y313442D01*
G01X6664949Y311689D01*
G01X6835051Y311689D01*
G01X6843194Y312627D01*
G01X6850911Y315392D01*
G01X6857797Y319840D01*
G01X6882203Y319840D01*
G01X6889089Y315392D01*
G01X6896806Y312627D01*
G01X6904949Y311689D01*
G01X7075051Y311689D01*
G01X7083194Y312627D01*
G01X7090911Y315392D01*
G01X7097797Y319840D01*
G01X7122203Y319840D01*
G01X7129089Y315392D01*
G01X7136806Y312627D01*
G01X7144949Y311689D01*
G01X7309979Y311689D01*
G01X7310365Y35814D01*
G01X6650160Y35814D01*
G01X6650160Y230000D01*
G01X6648799Y235080D01*
G01X6645080Y238799D01*
G01X6640000Y240160D01*
G01X6440000Y240160D01*
G01X6434920Y238799D01*
G01X6431201Y235080D01*
G01X6429840Y230000D01*
G01X6429840Y205198D01*
G01X6427483Y198017D01*
G01X6426685Y190501D01*
G01X6426685Y130160D01*
G01X6280924Y130160D01*
G37*
G36*
G01X6297001Y916501D02*
G01X6289248Y915942D01*
G01X6281656Y914276D01*
G01X6281656Y1147186D01*
G01X6302988Y1147186D01*
G01X6314056Y1148939D01*
G01X6324039Y1154026D01*
G01X6331963Y1161949D01*
G01X6337050Y1171933D01*
G01X6338802Y1183000D01*
G01X6338802Y1237000D01*
G01X6337050Y1248067D01*
G01X6331963Y1258051D01*
G01X6324039Y1265974D01*
G01X6314056Y1271061D01*
G01X6302988Y1272814D01*
G01X6281656Y1272814D01*
G01X6281656Y1290370D01*
G01X6280279Y1295476D01*
G01X6276523Y1299199D01*
G01X6271405Y1300530D01*
G01X6240126Y1300251D01*
G01X6239090Y1609840D01*
G01X6569840Y1609840D01*
G01X6569840Y1409826D01*
G01X6560363Y1414292D01*
G01X6550000Y1415824D01*
G01X6470000Y1415824D01*
G01X6458933Y1414071D01*
G01X6448949Y1408984D01*
G01X6441026Y1401061D01*
G01X6435939Y1391077D01*
G01X6434186Y1380010D01*
G01X6434186Y1300010D01*
G01X6436053Y1288598D01*
G01X6441459Y1278376D01*
G01X6449840Y1270409D01*
G01X6449840Y1249591D01*
G01X6441459Y1241624D01*
G01X6436053Y1231402D01*
G01X6434186Y1219990D01*
G01X6434186Y1139990D01*
G01X6435942Y1128913D01*
G01X6441038Y1118923D01*
G01X6448974Y1110998D01*
G01X6448974Y1086747D01*
G01X6444867Y1075187D01*
G01X6443474Y1062999D01*
G01X6443474Y990701D01*
G01X6444431Y980578D01*
G01X6447268Y970814D01*
G01X6425000Y970814D01*
G01X6413933Y969061D01*
G01X6403949Y963974D01*
G01X6396026Y956051D01*
G01X6390939Y946067D01*
G01X6389186Y935000D01*
G01X6389186Y912707D01*
G01X6379422Y915544D01*
G01X6369299Y916501D01*
G01X6297001Y916501D01*
G37*
G36*
G01X4521214Y1084497D02*
G01X4523187Y1089878D01*
G01X4669840Y1090294D01*
G01X4669840Y880320D01*
G01X4660623Y874974D01*
G01X4653386Y867153D01*
G01X4648771Y857549D01*
G01X4647186Y847012D01*
G01X4647186Y797012D01*
G01X4649078Y785524D01*
G01X4654555Y775251D01*
G01X4663038Y767277D01*
G01X4673630Y762445D01*
G01X4676615Y760781D01*
G01X4679983Y760200D01*
G01X4788748Y760022D01*
G01X4796394Y753580D01*
G01X4805522Y749502D01*
G01X4815422Y748106D01*
G01X4885422Y748106D01*
G01X4885728Y748108D01*
G01X4885728Y644118D01*
G01X4885422Y644119D01*
G01X4857424Y644119D01*
G01X4850422Y644627D01*
G01X4796113Y644627D01*
G01X4783556Y642974D01*
G01X4771856Y638127D01*
G01X4761808Y630417D01*
G01X4732206Y600815D01*
G01X4683000Y600815D01*
G01X4673742Y599598D01*
G01X4665113Y596029D01*
G01X4657700Y590350D01*
G01X4652007Y582948D01*
G01X4643012Y579046D01*
G01X4634985Y573414D01*
G01X4624702Y578904D01*
G01X4613200Y580801D01*
G01X4526800Y580801D01*
G01X4520160Y580181D01*
G01X4520160Y798690D01*
G01X4521214Y810000D01*
G01X4521214Y1084497D01*
G37*
G36*
G01X5160862Y844116D02*
G01X5155436Y843702D01*
G01X5155436Y1009212D01*
G01X5269878Y1007845D01*
G01X5275010Y1009165D01*
G01X5278778Y1012889D01*
G01X5280160Y1018004D01*
G01X5280160Y1149840D01*
G01X5629840Y1149840D01*
G01X5629840Y990000D01*
G01X5631201Y984920D01*
G01X5634920Y981201D01*
G01X5640000Y979840D01*
G01X5684803Y979840D01*
G01X5691984Y977483D01*
G01X5699500Y976686D01*
G01X5840500Y976686D01*
G01X5848016Y977483D01*
G01X5855197Y979840D01*
G01X5939840Y979840D01*
G01X5939840Y819611D01*
G01X5931459Y811644D01*
G01X5926053Y801422D01*
G01X5924186Y790010D01*
G01X5924186Y590011D01*
G01X5926053Y578599D01*
G01X5931459Y568377D01*
G01X5939840Y560410D01*
G01X5939840Y450160D01*
G01X5814957Y450160D01*
G01X5814957Y568120D01*
G01X5813200Y579199D01*
G01X5808101Y589192D01*
G01X5800162Y597117D01*
G01X5790160Y602197D01*
G01X5790160Y824784D01*
G01X5788799Y829864D01*
G01X5785080Y833583D01*
G01X5780000Y834944D01*
G01X5443314Y834944D01*
G01X5443314Y910500D01*
G01X5441562Y921567D01*
G01X5436475Y931551D01*
G01X5428551Y939474D01*
G01X5418568Y944561D01*
G01X5407500Y946314D01*
G01X5272499Y946314D01*
G01X5261432Y944561D01*
G01X5251449Y939474D01*
G01X5243525Y931551D01*
G01X5238438Y921567D01*
G01X5236685Y910500D01*
G01X5236685Y844624D01*
G01X5195862Y844624D01*
G01X5188860Y844116D01*
G01X5160862Y844116D01*
G37*
G36*
G01X5841392Y311756D02*
G01X5312814Y311756D01*
G01X5312814Y361564D01*
G01X5311120Y372449D01*
G01X5306198Y382304D01*
G01X5298514Y390197D01*
G01X5298514Y419905D01*
G01X5309704Y431095D01*
G01X5317414Y441143D01*
G01X5322261Y452844D01*
G01X5323914Y465400D01*
G01X5323914Y514600D01*
G01X5322261Y527156D01*
G01X5317414Y538857D01*
G01X5309705Y548904D01*
G01X5278192Y580417D01*
G01X5268144Y588127D01*
G01X5256444Y592974D01*
G01X5243887Y594627D01*
G01X5195862Y594627D01*
G01X5188860Y594119D01*
G01X5160862Y594119D01*
G01X5160506Y594117D01*
G01X5160405Y748107D01*
G01X5160862Y748104D01*
G01X5188860Y748104D01*
G01X5195862Y747596D01*
G01X5244165Y747596D01*
G01X5252027Y740114D01*
G01X5261771Y735330D01*
G01X5272499Y733686D01*
G01X5407500Y733686D01*
G01X5418568Y735438D01*
G01X5428551Y740525D01*
G01X5436475Y748449D01*
G01X5441562Y758432D01*
G01X5443314Y769500D01*
G01X5443314Y788970D01*
G01X5744186Y788970D01*
G01X5744186Y440000D01*
G01X5745939Y428933D01*
G01X5751026Y418949D01*
G01X5758949Y411026D01*
G01X5768933Y405939D01*
G01X5780000Y404186D01*
G01X5844405Y404186D01*
G01X5844405Y360378D01*
G01X5842154Y353346D01*
G01X5841392Y346001D01*
G01X5841392Y311756D01*
G37*
G36*
G01X5870160Y35814D02*
G01X5870160Y269355D01*
G01X5878464Y274922D01*
G01X5884906Y282568D01*
G01X5888984Y291696D01*
G01X5890379Y301596D01*
G01X5890379Y404186D01*
G01X5950000Y404186D01*
G01X5961067Y405939D01*
G01X5971051Y411026D01*
G01X5978974Y418949D01*
G01X5984061Y428933D01*
G01X5985814Y440000D01*
G01X5985814Y879840D01*
G01X6241249Y879840D01*
G01X6249243Y870957D01*
G01X6259713Y865198D01*
G01X6271496Y863204D01*
G01X6389186Y863204D01*
G01X6389186Y782710D01*
G01X6379422Y785547D01*
G01X6369299Y786504D01*
G01X6297001Y786504D01*
G01X6283463Y784780D01*
G01X6270790Y779718D01*
G01X6168836Y779718D01*
G01X6163756Y778357D01*
G01X6160037Y774638D01*
G01X6158676Y769558D01*
G01X6158676Y35814D01*
G01X5870160Y35814D01*
G37*
G36*
G01X6762999Y743474D02*
G01X6771527Y744151D01*
G01X6779840Y746166D01*
G01X6779840Y590347D01*
G01X6781201Y585267D01*
G01X6784920Y581548D01*
G01X6790000Y580187D01*
G01X6933686Y580187D01*
G01X6933686Y532499D01*
G01X6935439Y521432D01*
G01X6940526Y511448D01*
G01X6948449Y503525D01*
G01X6958433Y498438D01*
G01X6969500Y496685D01*
G01X7110500Y496685D01*
G01X7121568Y498438D01*
G01X7131551Y503525D01*
G01X7139475Y511448D01*
G01X7144562Y521432D01*
G01X7146314Y532499D01*
G01X7146314Y667500D01*
G01X7144369Y679142D01*
G01X7138746Y689519D01*
G01X7130054Y697505D01*
G01X7119239Y702232D01*
G01X7120334Y1010815D01*
G01X7151431Y1010790D01*
G01X7160227Y1005698D01*
G01X7169892Y1002551D01*
G01X7180000Y1001486D01*
G01X7631486Y1001486D01*
G01X7631486Y665564D01*
G01X7330870Y665564D01*
G01X7319803Y663811D01*
G01X7309819Y658724D01*
G01X7301896Y650801D01*
G01X7296809Y640817D01*
G01X7295056Y629750D01*
G01X7295056Y365814D01*
G01X6705725Y365814D01*
G01X6704896Y700307D01*
G01X6703228Y711023D01*
G01X6698428Y720749D01*
G01X6690937Y728591D01*
G01X6681442Y733832D01*
G01X6670814Y735990D01*
G01X6670814Y747268D01*
G01X6680578Y744431D01*
G01X6690701Y743474D01*
G01X6762999Y743474D01*
G37*
G36*
G01X7629830Y35814D02*
G01X7356339Y35814D01*
G01X7355927Y330050D01*
G01X7354632Y339546D01*
G01X7350865Y348357D01*
G01X7350865Y468255D01*
G01X7349724Y477221D01*
G01X7346375Y485617D01*
G01X7341030Y492906D01*
G01X7341030Y513776D01*
G01X7344968Y522772D01*
G01X7346314Y532499D01*
G01X7346314Y619590D01*
G01X7348062Y619590D01*
G01X7356019Y611331D01*
G01X7366179Y606010D01*
G01X7377500Y604174D01*
G01X7622500Y604174D01*
G01X7629830Y604932D01*
G01X7629830Y35814D01*
G37*
G36*
G01X6755814Y1380010D02*
G01X6754371Y1390072D01*
G01X6750160Y1399323D01*
G01X6750160Y1609840D01*
G01X7071486Y1609840D01*
G01X7071486Y1270160D01*
G01X6882587Y1270160D01*
G01X6887076Y1277067D01*
G01X6889868Y1284817D01*
G01X6890815Y1293000D01*
G01X6890815Y1347000D01*
G01X6889062Y1358067D01*
G01X6883975Y1368051D01*
G01X6876052Y1375974D01*
G01X6866068Y1381061D01*
G01X6855001Y1382814D01*
G01X6798435Y1382814D01*
G01X6787551Y1381120D01*
G01X6777696Y1376198D01*
G01X6769803Y1368514D01*
G01X6755814Y1368514D01*
G01X6755814Y1380010D01*
G37*
G36*
G01X420414Y1400000D02*
G01X418440Y1429437D01*
G01X412551Y1458347D01*
G01X402855Y1486211D01*
G01X389523Y1512531D01*
G01X372797Y1536835D01*
G01X352974Y1558687D01*
G01X330410Y1577695D01*
G01X305510Y1593520D01*
G01X278719Y1605878D01*
G01X250518Y1614547D01*
G01X221412Y1619372D01*
G01X191922Y1620266D01*
G01X162577Y1617214D01*
G01X133903Y1610270D01*
G01X106412Y1599559D01*
G01X80599Y1585272D01*
G01X56925Y1567666D01*
G01X35814Y1547055D01*
G01X35814Y3300000D01*
G01X37835Y3325684D01*
G01X43850Y3350736D01*
G01X53709Y3374539D01*
G01X67171Y3396506D01*
G01X83903Y3416097D01*
G01X103494Y3432829D01*
G01X125461Y3446291D01*
G01X149264Y3456150D01*
G01X174316Y3462165D01*
G01X200000Y3464186D01*
G01X2155577Y3464186D01*
G01X2135695Y3444305D01*
G01X2127986Y3434257D01*
G01X2123139Y3422556D01*
G01X2121486Y3410000D01*
G01X2121486Y2190000D01*
G01X2123139Y2177444D01*
G01X2127986Y2165743D01*
G01X2135695Y2155695D01*
G01X2185695Y2105695D01*
G01X2195743Y2097986D01*
G01X2207444Y2093139D01*
G01X2220000Y2091486D01*
G01X2609905Y2091486D01*
G01X2631486Y2069905D01*
G01X2631486Y2025312D01*
G01X2617173Y2026254D01*
G01X2602991Y2024096D01*
G01X2589606Y2018939D01*
G01X2577643Y2011024D01*
G01X2567662Y2000722D01*
G01X2560129Y1988514D01*
G01X2170095Y1988514D01*
G01X2114304Y2044305D01*
G01X2104257Y2052014D01*
G01X2092556Y2056861D01*
G01X2080000Y2058514D01*
G01X1570000Y2058514D01*
G01X1557444Y2056861D01*
G01X1545743Y2052014D01*
G01X1535695Y2044305D01*
G01X1465695Y1974304D01*
G01X1457985Y1964256D01*
G01X1453139Y1952556D01*
G01X1451486Y1939999D01*
G01X1451486Y1768161D01*
G01X1450000Y1767213D01*
G01X1440455Y1771757D01*
G01X1430000Y1773317D01*
G01X1370000Y1773317D01*
G01X1359544Y1771757D01*
G01X1350000Y1767213D01*
G01X1340455Y1771757D01*
G01X1330000Y1773317D01*
G01X1270000Y1773317D01*
G01X1259545Y1771757D01*
G01X1250000Y1767213D01*
G01X1240456Y1771757D01*
G01X1230000Y1773317D01*
G01X1170000Y1773317D01*
G01X1159545Y1771757D01*
G01X1150000Y1767213D01*
G01X1140456Y1771757D01*
G01X1130000Y1773317D01*
G01X1070000Y1773317D01*
G01X1059545Y1771757D01*
G01X1050000Y1767213D01*
G01X1040456Y1771757D01*
G01X1030000Y1773317D01*
G01X970001Y1773317D01*
G01X959545Y1771757D01*
G01X950001Y1767213D01*
G01X940456Y1771757D01*
G01X930001Y1773317D01*
G01X870001Y1773317D01*
G01X858934Y1771564D01*
G01X848950Y1766477D01*
G01X841027Y1758554D01*
G01X835940Y1748570D01*
G01X834187Y1737503D01*
G01X834187Y1537504D01*
G01X835359Y1528416D01*
G01X838799Y1519922D01*
G01X838799Y1149987D01*
G01X839975Y1138045D01*
G01X843459Y1126561D01*
G01X849116Y1115978D01*
G01X856728Y1106702D01*
G01X946715Y1016715D01*
G01X955991Y1009102D01*
G01X966574Y1003446D01*
G01X978058Y999962D01*
G01X990000Y998786D01*
G01X1174644Y998786D01*
G01X1199860Y973570D01*
G01X1183898Y976347D01*
G01X1167698Y976102D01*
G01X1151828Y972845D01*
G01X1136841Y966689D01*
G01X1123263Y957849D01*
G01X1111569Y946636D01*
G01X1102168Y933441D01*
G01X1095389Y918726D01*
G01X1091469Y903006D01*
G01X1090545Y886831D01*
G01X1092649Y870767D01*
G01X1097709Y855375D01*
G01X1105546Y841195D01*
G01X1115887Y828723D01*
G01X1115887Y802456D01*
G01X1091439Y778009D01*
G01X822814Y778009D01*
G01X822814Y964997D01*
G01X821061Y976064D01*
G01X815974Y986047D01*
G01X808051Y993971D01*
G01X798067Y999058D01*
G01X787000Y1000811D01*
G01X667000Y1000811D01*
G01X655933Y999058D01*
G01X645949Y993971D01*
G01X638026Y986047D01*
G01X632939Y976064D01*
G01X631186Y964997D01*
G01X631186Y394998D01*
G01X632939Y383931D01*
G01X638026Y373947D01*
G01X645949Y366024D01*
G01X655933Y360937D01*
G01X667000Y359184D01*
G01X787000Y359184D01*
G01X798067Y360937D01*
G01X808051Y366024D01*
G01X815974Y373947D01*
G01X821061Y383931D01*
G01X822814Y394998D01*
G01X822814Y655581D01*
G01X1091439Y655581D01*
G01X1108786Y638234D01*
G01X1108786Y450000D01*
G01X1109962Y438058D01*
G01X1113446Y426575D01*
G01X1119102Y415991D01*
G01X1126715Y406715D01*
G01X1186715Y346715D01*
G01X1195991Y339102D01*
G01X1206574Y333446D01*
G01X1218058Y329962D01*
G01X1230000Y328786D01*
G01X1282403Y328786D01*
G01X1292989Y327186D01*
G01X1342988Y327186D01*
G01X1351762Y328277D01*
G01X1360000Y331484D01*
G01X1363096Y330000D01*
G01X1354159Y324576D01*
G01X1347170Y316802D01*
G01X1342723Y307342D01*
G01X1341198Y297000D01*
G01X1341198Y243000D01*
G01X1342951Y231933D01*
G01X1348038Y221949D01*
G01X1355961Y214026D01*
G01X1365945Y208939D01*
G01X1377012Y207186D01*
G01X1427012Y207186D01*
G01X1437896Y208880D01*
G01X1447751Y213802D01*
G01X1455644Y221486D01*
G01X1480000Y221486D01*
G01X1487186Y222021D01*
G01X1487186Y204999D01*
G01X1488018Y197321D01*
G01X1490478Y190000D01*
G01X1488018Y182679D01*
G01X1487186Y175001D01*
G01X1487186Y118435D01*
G01X1488939Y107368D01*
G01X1494026Y97384D01*
G01X1501949Y89461D01*
G01X1511933Y84374D01*
G01X1523000Y82621D01*
G01X1577000Y82621D01*
G01X1588385Y84479D01*
G01X1598589Y89859D01*
G01X1606553Y98204D01*
G01X1613447Y98204D01*
G01X1621411Y89859D01*
G01X1631615Y84479D01*
G01X1643000Y82621D01*
G01X1697000Y82621D01*
G01X1708385Y84479D01*
G01X1718589Y89859D01*
G01X1726553Y98204D01*
G01X1733447Y98204D01*
G01X1741411Y89859D01*
G01X1751615Y84479D01*
G01X1763000Y82621D01*
G01X1817000Y82621D01*
G01X1828529Y84528D01*
G01X1843222Y80929D01*
G01X1858348Y80754D01*
G01X1873121Y84011D01*
G01X1883000Y82621D01*
G01X1937000Y82621D01*
G01X1948067Y84374D01*
G01X1958051Y89461D01*
G01X1965974Y97384D01*
G01X1971061Y107368D01*
G01X1972814Y118435D01*
G01X1972814Y175001D01*
G01X1971982Y182679D01*
G01X1969522Y190000D01*
G01X1970000Y191083D01*
G01X1975424Y182146D01*
G01X1983198Y175157D01*
G01X1992658Y170710D01*
G01X2003000Y169185D01*
G01X2057000Y169185D01*
G01X2067342Y170710D01*
G01X2076802Y175157D01*
G01X2084576Y182146D01*
G01X2090000Y191083D01*
G01X2090478Y190000D01*
G01X2088018Y182679D01*
G01X2087186Y175001D01*
G01X2087186Y118435D01*
G01X2088293Y109601D01*
G01X2091544Y101313D01*
G01X2086363Y88651D01*
G01X2083890Y75195D01*
G01X2084231Y61518D01*
G01X2087371Y48202D01*
G01X2093177Y35814D01*
G01X200000Y35814D01*
G01X174317Y37835D01*
G01X149266Y43849D01*
G01X125465Y53707D01*
G01X103498Y67167D01*
G01X83908Y83898D01*
G01X67176Y103487D01*
G01X53714Y125452D01*
G01X43853Y149253D01*
G01X37837Y174303D01*
G01X35814Y199985D01*
G01X35814Y1252945D01*
G01X56925Y1232334D01*
G01X80599Y1214728D01*
G01X106412Y1200441D01*
G01X133903Y1189730D01*
G01X162577Y1182786D01*
G01X191922Y1179734D01*
G01X221412Y1180628D01*
G01X250518Y1185453D01*
G01X278719Y1194122D01*
G01X305510Y1206480D01*
G01X330410Y1222305D01*
G01X352974Y1241313D01*
G01X372797Y1263165D01*
G01X389523Y1287469D01*
G01X402855Y1313789D01*
G01X412551Y1341653D01*
G01X418440Y1370563D01*
G01X420414Y1400000D01*
G37*
G36*
G01X1231214Y475356D02*
G01X1231214Y561180D01*
G01X1243000Y559185D01*
G01X1297000Y559185D01*
G01X1307612Y560793D01*
G01X1317271Y565474D01*
G01X1325110Y572806D01*
G01X1330423Y582132D01*
G01X1331484Y580000D01*
G01X1328277Y571762D01*
G01X1327186Y562988D01*
G01X1327186Y512989D01*
G01X1328939Y501921D01*
G01X1334026Y491938D01*
G01X1341949Y484014D01*
G01X1351933Y478927D01*
G01X1363000Y477175D01*
G01X1380133Y477175D01*
G01X1374147Y465376D01*
G01X1371571Y452398D01*
G01X1365619Y450954D01*
G01X1360000Y448516D01*
G01X1351762Y451723D01*
G01X1342988Y452814D01*
G01X1292989Y452814D01*
G01X1282403Y451214D01*
G01X1255356Y451214D01*
G01X1231214Y475356D01*
G37*
G36*
G01X2176156Y1818786D02*
G01X2594497Y1818786D01*
G01X2606492Y1815076D01*
G01X2618970Y1813694D01*
G01X2631486Y1814688D01*
G01X2631486Y1805477D01*
G01X2621664Y1800330D01*
G01X2613888Y1792425D01*
G01X2608902Y1782520D01*
G01X2607186Y1771565D01*
G01X2607186Y1714999D01*
G01X2608543Y1705233D01*
G01X2606553Y1705233D01*
G01X2598589Y1713577D01*
G01X2588385Y1718958D01*
G01X2577000Y1720815D01*
G01X2523000Y1720815D01*
G01X2511933Y1719063D01*
G01X2501949Y1713976D01*
G01X2494026Y1706052D01*
G01X2488939Y1696069D01*
G01X2487186Y1685001D01*
G01X2487186Y1675795D01*
G01X2484968Y1673577D01*
G01X2478834Y1675253D01*
G01X2472500Y1675818D01*
G01X2347499Y1675818D01*
G01X2336432Y1674065D01*
G01X2326448Y1668978D01*
G01X2318525Y1661055D01*
G01X2313438Y1651071D01*
G01X2311685Y1640004D01*
G01X2311685Y1570004D01*
G01X2313438Y1558937D01*
G01X2318525Y1548953D01*
G01X2326448Y1541030D01*
G01X2336432Y1535943D01*
G01X2347499Y1534190D01*
G01X2472500Y1534190D01*
G01X2484313Y1536194D01*
G01X2494804Y1541983D01*
G01X2502798Y1550907D01*
G01X2507401Y1561969D01*
G01X2513689Y1565879D01*
G01X2519308Y1570699D01*
G01X2541231Y1592622D01*
G01X2577000Y1592622D01*
G01X2588385Y1594479D01*
G01X2598589Y1599860D01*
G01X2606553Y1608205D01*
G01X2613447Y1608205D01*
G01X2621411Y1599860D01*
G01X2631615Y1594479D01*
G01X2643000Y1592622D01*
G01X2681486Y1592622D01*
G01X2681486Y1055807D01*
G01X2070865Y1055632D01*
G01X2070865Y1082497D01*
G01X2069112Y1093564D01*
G01X2064025Y1103548D01*
G01X2056101Y1111471D01*
G01X2046118Y1116558D01*
G01X2035051Y1118311D01*
G01X1870963Y1118311D01*
G01X1870963Y1145690D01*
G01X1869787Y1157632D01*
G01X1866304Y1169116D01*
G01X1860647Y1179699D01*
G01X1853034Y1188975D01*
G01X1781821Y1260188D01*
G01X1772545Y1267800D01*
G01X1761962Y1273457D01*
G01X1750479Y1276941D01*
G01X1738537Y1278117D01*
G01X1372599Y1278117D01*
G01X1375941Y1292976D01*
G01X1375804Y1308207D01*
G01X1372196Y1323004D01*
G01X1365307Y1336588D01*
G01X1355501Y1348241D01*
G01X1343294Y1357350D01*
G01X1329331Y1363434D01*
G01X1314348Y1366171D01*
G01X1299136Y1365418D01*
G01X1284497Y1361214D01*
G01X1275356Y1361214D01*
G01X1261214Y1375356D01*
G01X1261214Y1432216D01*
G01X1316715Y1376715D01*
G01X1325991Y1369102D01*
G01X1336574Y1363446D01*
G01X1348058Y1359962D01*
G01X1360000Y1358786D01*
G01X2110000Y1358786D01*
G01X2121942Y1359962D01*
G01X2133426Y1363446D01*
G01X2144009Y1369102D01*
G01X2153285Y1376715D01*
G01X2223285Y1446715D01*
G01X2230898Y1455991D01*
G01X2236554Y1466575D01*
G01X2240038Y1478058D01*
G01X2241214Y1490000D01*
G01X2241214Y1629186D01*
G01X2272501Y1629186D01*
G01X2283568Y1630939D01*
G01X2293552Y1636026D01*
G01X2301475Y1643949D01*
G01X2306562Y1653933D01*
G01X2308315Y1665000D01*
G01X2308315Y1735000D01*
G01X2306562Y1746067D01*
G01X2301475Y1756051D01*
G01X2293552Y1763974D01*
G01X2283568Y1769061D01*
G01X2272501Y1770814D01*
G01X2161214Y1770814D01*
G01X2161214Y1803844D01*
G01X2176156Y1818786D01*
G37*
G36*
G01X1469135Y1078786D02*
G01X1469135Y1055814D01*
G01X1358460Y1055814D01*
G01X1347514Y1054100D01*
G01X1337615Y1049122D01*
G01X1329711Y1041357D01*
G01X1324559Y1031548D01*
G01X1322652Y1020634D01*
G01X1318034Y1027711D01*
G01X1312485Y1034085D01*
G01X1267783Y1078786D01*
G01X1469135Y1078786D01*
G37*
G36*
G01X1640000Y764186D02*
G01X1650979Y765910D01*
G01X1660901Y770917D01*
G01X1668810Y778725D01*
G01X1673945Y788581D01*
G01X1675811Y799536D01*
G01X1685697Y801753D01*
G01X1694930Y805924D01*
G01X1706994Y800900D01*
G01X1719949Y799186D01*
G01X1732905Y800900D01*
G01X1744968Y805924D01*
G01X1757032Y800900D01*
G01X1769987Y799186D01*
G01X1782943Y800900D01*
G01X1795006Y805924D01*
G01X1807070Y800900D01*
G01X1820025Y799186D01*
G01X1832981Y800900D01*
G01X1845044Y805924D01*
G01X1856518Y801062D01*
G01X1868840Y799201D01*
G01X1881238Y800455D01*
G01X1890885Y795789D01*
G01X1901480Y794186D01*
G01X1938921Y794186D01*
G01X1939248Y782620D01*
G01X1939687Y773076D01*
G01X1941940Y763792D01*
G01X1945924Y755108D01*
G01X1940900Y743044D01*
G01X1939186Y730089D01*
G01X1940900Y717133D01*
G01X1945924Y705070D01*
G01X1940912Y693053D01*
G01X1939186Y680148D01*
G01X1940862Y667236D01*
G01X1945827Y655199D01*
G01X1953742Y644861D01*
G01X1964065Y636926D01*
G01X1976092Y631938D01*
G01X1989000Y630236D01*
G01X2029238Y630236D01*
G01X2029238Y629789D01*
G01X1989000Y629789D01*
G01X1976092Y628088D01*
G01X1964065Y623099D01*
G01X1953742Y615165D01*
G01X1945827Y604826D01*
G01X1940862Y592790D01*
G01X1939186Y579878D01*
G01X1940912Y566973D01*
G01X1945924Y554956D01*
G01X1940900Y542892D01*
G01X1939186Y529937D01*
G01X1940900Y516981D01*
G01X1945924Y504918D01*
G01X1940744Y492263D01*
G01X1939201Y478676D01*
G01X1941409Y465182D01*
G01X1947204Y452797D01*
G01X1934818Y458591D01*
G01X1921324Y460799D01*
G01X1907737Y459256D01*
G01X1895082Y454076D01*
G01X1883019Y459100D01*
G01X1870063Y460814D01*
G01X1857108Y459100D01*
G01X1845044Y454076D01*
G01X1832981Y459100D01*
G01X1820025Y460814D01*
G01X1807070Y459100D01*
G01X1795006Y454076D01*
G01X1782943Y459100D01*
G01X1769987Y460814D01*
G01X1757032Y459100D01*
G01X1744968Y454076D01*
G01X1732905Y459100D01*
G01X1719949Y460814D01*
G01X1706994Y459100D01*
G01X1694930Y454076D01*
G01X1682867Y459100D01*
G01X1669911Y460814D01*
G01X1656956Y459100D01*
G01X1644892Y454076D01*
G01X1632250Y459252D01*
G01X1618677Y460800D01*
G01X1605194Y458602D01*
G01X1592815Y452825D01*
G01X1598598Y465206D01*
G01X1600800Y478693D01*
G01X1599254Y492271D01*
G01X1594076Y504918D01*
G01X1599100Y516981D01*
G01X1600814Y529937D01*
G01X1599100Y542892D01*
G01X1594076Y554956D01*
G01X1599100Y567019D01*
G01X1600814Y579975D01*
G01X1599100Y592930D01*
G01X1594076Y604994D01*
G01X1599088Y617011D01*
G01X1600814Y629916D01*
G01X1599138Y642828D01*
G01X1594173Y654864D01*
G01X1586258Y665203D01*
G01X1575935Y673137D01*
G01X1563908Y678126D01*
G01X1551000Y679827D01*
G01X1489001Y679827D01*
G01X1477693Y678527D01*
G01X1434013Y678527D01*
G01X1429268Y680659D01*
G01X1430184Y681575D01*
G01X1477693Y681575D01*
G01X1489001Y680274D01*
G01X1551000Y680274D01*
G01X1563908Y681976D01*
G01X1575935Y686964D01*
G01X1586258Y694899D01*
G01X1594173Y705237D01*
G01X1599138Y717274D01*
G01X1600814Y730186D01*
G01X1599088Y743091D01*
G01X1594076Y755108D01*
G01X1598195Y764186D01*
G01X1640000Y764186D01*
G37*
G36*
G01X1548514Y1919904D02*
G01X1590095Y1961486D01*
G01X2059905Y1961486D01*
G01X2102811Y1918580D01*
G01X2056715Y1872485D01*
G01X2049103Y1863209D01*
G01X2043446Y1852626D01*
G01X2039962Y1841142D01*
G01X2038786Y1829200D01*
G01X2038786Y1565356D01*
G01X2024644Y1551214D01*
G01X1565813Y1551214D01*
G01X1565813Y1737503D01*
G01X1564638Y1746602D01*
G01X1561190Y1755104D01*
G01X1555695Y1762451D01*
G01X1548514Y1768161D01*
G01X1548514Y1919904D01*
G37*
G36*
G01X2302021Y425210D02*
G01X2302021Y355814D01*
G01X2265864Y355814D01*
G01X2261137Y365717D01*
G01X2254304Y374305D01*
G01X2236316Y392293D01*
G01X2226855Y399659D01*
G01X2215877Y404479D01*
G01X2204051Y406459D01*
G01X2196349Y413126D01*
G01X2187083Y417354D01*
G01X2177000Y418802D01*
G01X2123000Y418802D01*
G01X2119938Y418671D01*
G01X2113001Y425608D01*
G01X2302021Y425210D01*
G37*
G36*
G01X2754304Y2284305D02*
G01X2744257Y2292014D01*
G01X2732556Y2296861D01*
G01X2720000Y2298514D01*
G01X2330095Y2298514D01*
G01X2318514Y2310095D01*
G01X2318514Y3289905D01*
G01X2340095Y3311486D01*
G01X3893057Y3311486D01*
G01X3888598Y3303116D01*
G01X3885853Y3294038D01*
G01X3884926Y3284600D01*
G01X3884926Y2934517D01*
G01X3363570Y2934517D01*
G01X3352500Y2932763D01*
G01X3342514Y2927673D01*
G01X3334590Y2919746D01*
G01X3329505Y2909758D01*
G01X3327756Y2898687D01*
G01X3328036Y2290836D01*
G01X3301214Y2290836D01*
G01X3301214Y2530000D01*
G01X3300038Y2541942D01*
G01X3296554Y2553426D01*
G01X3290897Y2564009D01*
G01X3283285Y2573285D01*
G01X3241810Y2614759D01*
G01X3256971Y2619432D01*
G01X3270588Y2627571D01*
G01X3281883Y2638712D01*
G01X3290207Y2652217D01*
G01X3295086Y2667313D01*
G01X3296240Y2683135D01*
G01X3293603Y2698779D01*
G01X3287326Y2713348D01*
G01X3277768Y2726010D01*
G01X3265476Y2736040D01*
G01X3251154Y2742863D01*
G01X3235621Y2746088D01*
G01X3219766Y2745533D01*
G01X3204497Y2741227D01*
G01X2935343Y2741227D01*
G01X2883272Y2793298D01*
G01X2873996Y2800910D01*
G01X2863413Y2806567D01*
G01X2851929Y2810051D01*
G01X2839987Y2811227D01*
G01X2825556Y2811227D01*
G01X2827619Y2817983D01*
G01X2828316Y2825013D01*
G01X2828316Y2875013D01*
G01X2827619Y2882042D01*
G01X2825556Y2888798D01*
G01X3150332Y2888798D01*
G01X3168682Y2870449D01*
G01X3176665Y2856293D01*
G01X3187852Y2844503D01*
G01X3201570Y2835789D01*
G01X3216996Y2830674D01*
G01X3233203Y2829463D01*
G01X3249217Y2832232D01*
G01X3264078Y2838812D01*
G01X3276891Y2848809D01*
G01X3286888Y2861622D01*
G01X3293468Y2876483D01*
G01X3296237Y2892497D01*
G01X3295026Y2908704D01*
G01X3289911Y2924130D01*
G01X3281197Y2937848D01*
G01X3269407Y2949035D01*
G01X3255251Y2957018D01*
G01X3218972Y2993297D01*
G01X3209696Y3000910D01*
G01X3199113Y3006567D01*
G01X3187630Y3010050D01*
G01X3175688Y3011226D01*
G01X2702502Y3011226D01*
G01X2695515Y3010826D01*
G01X2612502Y3010826D01*
G01X2601435Y3009073D01*
G01X2591451Y3003986D01*
G01X2583528Y2996063D01*
G01X2578441Y2986079D01*
G01X2576688Y2975012D01*
G01X2576688Y2925012D01*
G01X2577479Y2917527D01*
G01X2579817Y2910372D01*
G01X2567685Y2907010D01*
G01X2556498Y2901237D01*
G01X2546728Y2893297D01*
G01X2496715Y2843285D01*
G01X2489102Y2834009D01*
G01X2483446Y2823426D01*
G01X2479962Y2811942D01*
G01X2478786Y2800000D01*
G01X2478786Y2620000D01*
G01X2479962Y2608058D01*
G01X2483446Y2596575D01*
G01X2489102Y2585992D01*
G01X2496715Y2576715D01*
G01X2546715Y2526715D01*
G01X2555991Y2519102D01*
G01X2566574Y2513446D01*
G01X2578058Y2509962D01*
G01X2590000Y2508786D01*
G01X2764644Y2508786D01*
G01X2797515Y2475915D01*
G01X2806791Y2468302D01*
G01X2817374Y2462646D01*
G01X2828858Y2459162D01*
G01X2840800Y2457986D01*
G01X3075444Y2457986D01*
G01X3098786Y2434644D01*
G01X3098786Y2000000D01*
G01X3099962Y1988058D01*
G01X3103446Y1976574D01*
G01X3109102Y1965991D01*
G01X3116715Y1956715D01*
G01X3166715Y1906715D01*
G01X3175992Y1899102D01*
G01X3186575Y1893446D01*
G01X3198058Y1889962D01*
G01X3210000Y1888786D01*
G01X3251669Y1888786D01*
G01X3251669Y1724921D01*
G01X3253421Y1713853D01*
G01X3258508Y1703870D01*
G01X3266432Y1695946D01*
G01X3276415Y1690859D01*
G01X3287483Y1689107D01*
G01X3324186Y1689107D01*
G01X3324186Y1590000D01*
G01X3325361Y1580901D01*
G01X3328809Y1572399D01*
G01X3334305Y1565052D01*
G01X3341486Y1559343D01*
G01X3341486Y1460000D01*
G01X3342570Y1449804D01*
G01X3345772Y1440064D01*
G01X3350949Y1431214D01*
G01X2925356Y1431214D01*
G01X2901214Y1455356D01*
G01X2901214Y1854497D01*
G01X2905233Y1868076D01*
G01X2906277Y1882200D01*
G01X2904299Y1896222D01*
G01X2899388Y1909505D01*
G01X2891769Y1921443D01*
G01X2881789Y1931490D01*
G01X2869903Y1939189D01*
G01X2856653Y1944189D01*
G01X2842644Y1946261D01*
G01X2828514Y1945312D01*
G01X2828514Y2190000D01*
G01X2826861Y2202556D01*
G01X2822014Y2214257D01*
G01X2814305Y2224305D01*
G01X2754304Y2284305D01*
G37*
G36*
G01X4667054Y35814D02*
G01X2464423Y35814D01*
G01X2474305Y45695D01*
G01X2482014Y55743D01*
G01X2486861Y67443D01*
G01X2488514Y80000D01*
G01X2488514Y189905D01*
G01X2490095Y191486D01*
G01X2722670Y191486D01*
G01X2735283Y183998D01*
G01X2749316Y179726D01*
G01X2763962Y178914D01*
G01X2778381Y181611D01*
G01X2791744Y187660D01*
G01X2803285Y196715D01*
G01X2861885Y255315D01*
G01X2869497Y264591D01*
G01X2875154Y275174D01*
G01X2878638Y286658D01*
G01X2879814Y298600D01*
G01X2879814Y547962D01*
G01X2894665Y543900D01*
G01X2910000Y542532D01*
G01X3599146Y542532D01*
G01X3616645Y544318D01*
G01X3633422Y549602D01*
G01X3648786Y558168D01*
G01X3648786Y360800D01*
G01X3649962Y348858D01*
G01X3653446Y337374D01*
G01X3659102Y326791D01*
G01X3666715Y317515D01*
G01X3717515Y266715D01*
G01X3726791Y259102D01*
G01X3737374Y253446D01*
G01X3748858Y249962D01*
G01X3760800Y248786D01*
G01X4140000Y248786D01*
G01X4151942Y249962D01*
G01X4163426Y253446D01*
G01X4174009Y259102D01*
G01X4183285Y266715D01*
G01X4233285Y316715D01*
G01X4240898Y325991D01*
G01X4246554Y336575D01*
G01X4250038Y348058D01*
G01X4251214Y360000D01*
G01X4251214Y555467D01*
G01X4265122Y548827D01*
G01X4279986Y544757D01*
G01X4295336Y543386D01*
G01X4478273Y543386D01*
G01X4483716Y535673D01*
G01X4490986Y529650D01*
G01X4490986Y464340D01*
G01X4492720Y453330D01*
G01X4497755Y443387D01*
G01X4505602Y435473D01*
G01X4515502Y430354D01*
G01X4526497Y428527D01*
G01X4530571Y421735D01*
G01X4535695Y415696D01*
G01X4555695Y395696D01*
G01X4566524Y387544D01*
G01X4579185Y382707D01*
G01X4579185Y343000D01*
G01X4580710Y332658D01*
G01X4585157Y323198D01*
G01X4592146Y315424D01*
G01X4601083Y310000D01*
G01X4592146Y304576D01*
G01X4585157Y296802D01*
G01X4580710Y287342D01*
G01X4579185Y277000D01*
G01X4579185Y223000D01*
G01X4580938Y211933D01*
G01X4586025Y201949D01*
G01X4593948Y194026D01*
G01X4603932Y188939D01*
G01X4614999Y187186D01*
G01X4671564Y187186D01*
G01X4673959Y187266D01*
G01X4663971Y182181D01*
G01X4656043Y174257D01*
G01X4650953Y164271D01*
G01X4649199Y153200D01*
G01X4649199Y66800D01*
G01X4650415Y57545D01*
G01X4653982Y48919D01*
G01X4659657Y41507D01*
G01X4667054Y35814D01*
G37*
G36*
G01X2948514Y1177263D02*
G01X2964222Y1173938D01*
G01X2980268Y1174486D01*
G01X2995713Y1178874D01*
G01X3009650Y1186845D01*
G01X3021263Y1197933D01*
G01X3029871Y1211486D01*
G01X3349905Y1211486D01*
G01X3375695Y1185696D01*
G01X3385743Y1177986D01*
G01X3397443Y1173139D01*
G01X3410000Y1171486D01*
G01X3500000Y1171486D01*
G01X3512556Y1173139D01*
G01X3524257Y1177986D01*
G01X3534305Y1185696D01*
G01X3560095Y1211486D01*
G01X4088784Y1211486D01*
G01X4083158Y1202372D01*
G01X4079668Y1192246D01*
G01X4078486Y1181600D01*
G01X4078486Y1000811D01*
G01X4017000Y1000811D01*
G01X4005933Y999058D01*
G01X3995949Y993971D01*
G01X3988026Y986047D01*
G01X3982939Y976064D01*
G01X3981186Y964997D01*
G01X3981186Y394998D01*
G01X3982230Y386412D01*
G01X3985303Y378327D01*
G01X3990224Y371214D01*
G01X3786156Y371214D01*
G01X3771214Y386156D01*
G01X3771214Y710000D01*
G01X3770038Y721942D01*
G01X3766554Y733426D01*
G01X3760898Y744009D01*
G01X3753285Y753285D01*
G01X3703285Y803285D01*
G01X3694009Y810898D01*
G01X3683426Y816554D01*
G01X3671942Y820038D01*
G01X3660000Y821214D01*
G01X3033598Y821214D01*
G01X3036159Y835466D01*
G01X3035566Y849934D01*
G01X3031846Y863929D01*
G01X3025178Y876783D01*
G01X3015879Y887882D01*
G01X3004392Y896699D01*
G01X2991265Y902812D01*
G01X2977124Y905930D01*
G01X2962644Y905905D01*
G01X2948514Y902737D01*
G01X2948514Y1177263D01*
G37*
G36*
G01X3564055Y1914901D02*
G01X3569080Y1926965D01*
G01X3570794Y1939920D01*
G01X3569080Y1952876D01*
G01X3564055Y1964939D01*
G01X3569080Y1977003D01*
G01X3570794Y1989958D01*
G01X3569080Y2002914D01*
G01X3564055Y2014977D01*
G01X3569080Y2027041D01*
G01X3570794Y2039996D01*
G01X3569080Y2052952D01*
G01X3564055Y2065015D01*
G01X3568931Y2076537D01*
G01X3570781Y2088911D01*
G01X3569491Y2101355D01*
G01X3565140Y2113085D01*
G01X3565773Y2118276D01*
G01X3569423Y2128466D01*
G01X3570786Y2139203D01*
G01X3569799Y2149981D01*
G01X3566506Y2160292D01*
G01X3576856Y2158867D01*
G01X3587297Y2159222D01*
G01X3596862Y2159652D01*
G01X3606168Y2161904D01*
G01X3614872Y2165895D01*
G01X3626936Y2160871D01*
G01X3639891Y2159157D01*
G01X3652846Y2160871D01*
G01X3664910Y2165895D01*
G01X3676927Y2160883D01*
G01X3689832Y2159157D01*
G01X3702744Y2160833D01*
G01X3714780Y2165798D01*
G01X3725119Y2173713D01*
G01X3733053Y2184036D01*
G01X3738042Y2196063D01*
G01X3739743Y2208971D01*
G01X3739743Y2253523D01*
G01X3740190Y2253525D01*
G01X3740190Y2208971D01*
G01X3741892Y2196063D01*
G01X3746880Y2184036D01*
G01X3754815Y2173713D01*
G01X3765154Y2165798D01*
G01X3777190Y2160833D01*
G01X3790102Y2159157D01*
G01X3803007Y2160883D01*
G01X3815024Y2165895D01*
G01X3827088Y2160871D01*
G01X3840043Y2159157D01*
G01X3852998Y2160871D01*
G01X3865062Y2165895D01*
G01X3877717Y2160716D01*
G01X3891303Y2159172D01*
G01X3904798Y2161380D01*
G01X3917183Y2167175D01*
G01X3911389Y2154789D01*
G01X3909180Y2141295D01*
G01X3910724Y2127708D01*
G01X3915904Y2115053D01*
G01X3910879Y2102990D01*
G01X3909165Y2090034D01*
G01X3910879Y2077079D01*
G01X3915904Y2065015D01*
G01X3910879Y2052952D01*
G01X3909165Y2039996D01*
G01X3910879Y2027041D01*
G01X3915904Y2014977D01*
G01X3910879Y2002914D01*
G01X3909165Y1989958D01*
G01X3910879Y1977003D01*
G01X3915904Y1964939D01*
G01X3910879Y1952876D01*
G01X3909165Y1939920D01*
G01X3910879Y1926965D01*
G01X3915904Y1914901D01*
G01X3910879Y1902838D01*
G01X3909165Y1889882D01*
G01X3910879Y1876927D01*
G01X3915904Y1864863D01*
G01X3910727Y1852221D01*
G01X3909180Y1838648D01*
G01X3911377Y1825165D01*
G01X3917155Y1812786D01*
G01X3904773Y1818570D01*
G01X3891286Y1820771D01*
G01X3877709Y1819225D01*
G01X3865062Y1814047D01*
G01X3852998Y1819071D01*
G01X3840043Y1820786D01*
G01X3827088Y1819071D01*
G01X3815024Y1814047D01*
G01X3802960Y1819071D01*
G01X3790005Y1820786D01*
G01X3777050Y1819071D01*
G01X3764986Y1814047D01*
G01X3752969Y1819059D01*
G01X3740064Y1820785D01*
G01X3727152Y1819109D01*
G01X3715116Y1814144D01*
G01X3704777Y1806229D01*
G01X3696842Y1795906D01*
G01X3691854Y1783880D01*
G01X3690152Y1770971D01*
G01X3690152Y1708972D01*
G01X3691453Y1697664D01*
G01X3691453Y1653984D01*
G01X3688405Y1646354D01*
G01X3688405Y1697664D01*
G01X3689705Y1708972D01*
G01X3689705Y1770971D01*
G01X3688004Y1783880D01*
G01X3683015Y1795906D01*
G01X3675081Y1806229D01*
G01X3664742Y1814144D01*
G01X3652706Y1819109D01*
G01X3639794Y1820785D01*
G01X3626889Y1819059D01*
G01X3614872Y1814047D01*
G01X3605101Y1818394D01*
G01X3594628Y1820556D01*
G01X3583934Y1820433D01*
G01X3583934Y1848840D01*
G01X3582196Y1859861D01*
G01X3577151Y1869812D01*
G01X3569289Y1877728D01*
G01X3570791Y1890434D01*
G01X3569007Y1903104D01*
G01X3564055Y1914901D01*
G37*
G36*
G01X3789979Y1551455D02*
G01X3798218Y1548248D01*
G01X3806991Y1547157D01*
G01X3856991Y1547157D01*
G01X3868058Y1548910D01*
G01X3878042Y1553997D01*
G01X3885965Y1561920D01*
G01X3891052Y1571904D01*
G01X3892805Y1582971D01*
G01X3892805Y1600104D01*
G01X3904604Y1594118D01*
G01X3917581Y1591542D01*
G01X3919026Y1585590D01*
G01X3921464Y1579971D01*
G01X3918257Y1571733D01*
G01X3917165Y1562960D01*
G01X3917165Y1512960D01*
G01X3918859Y1502075D01*
G01X3923781Y1492220D01*
G01X3931466Y1484328D01*
G01X3931466Y1480566D01*
G01X3929414Y1478514D01*
G01X3810795Y1478514D01*
G01X3810795Y1516971D01*
G01X3809186Y1527583D01*
G01X3804506Y1537242D01*
G01X3797173Y1545081D01*
G01X3787847Y1550394D01*
G01X3789979Y1551455D01*
G37*
G36*
G01X4595677Y2699174D02*
G01X4591553Y2714674D01*
G01X4583828Y2728731D01*
G01X4572955Y2740522D01*
G01X4559568Y2749357D01*
G01X4544452Y2754720D01*
G01X4528490Y2756297D01*
G01X4512617Y2753995D01*
G01X4497760Y2747950D01*
G01X4484790Y2738514D01*
G01X4480000Y2738514D01*
G01X4467444Y2736861D01*
G01X4455743Y2732014D01*
G01X4445695Y2724305D01*
G01X4431724Y2710333D01*
G01X4426992Y2721138D01*
G01X4419007Y2729820D01*
G01X4408635Y2735436D01*
G01X4397000Y2737379D01*
G01X4343000Y2737379D01*
G01X4331615Y2735521D01*
G01X4321411Y2730141D01*
G01X4313447Y2721796D01*
G01X4096813Y2721796D01*
G01X4078494Y2740115D01*
G01X4078494Y2776664D01*
G01X4089980Y2776664D01*
G01X4101047Y2778417D01*
G01X4111031Y2783504D01*
G01X4118954Y2791427D01*
G01X4124041Y2801411D01*
G01X4125794Y2812478D01*
G01X4125794Y2932478D01*
G01X4124041Y2943545D01*
G01X4118954Y2953529D01*
G01X4111031Y2961452D01*
G01X4101047Y2966539D01*
G01X4089980Y2968292D01*
G01X3981954Y2968292D01*
G01X3981954Y3261486D01*
G01X5137314Y3261486D01*
G01X5181486Y3217314D01*
G01X5181486Y2340000D01*
G01X5183139Y2327444D01*
G01X5187986Y2315743D01*
G01X5195695Y2305695D01*
G01X5200177Y2301214D01*
G01X5106314Y2301214D01*
G01X5106314Y2337501D01*
G01X5104879Y2347537D01*
G01X5100689Y2356769D01*
G01X5108798Y2364712D01*
G01X5114015Y2374795D01*
G01X5115814Y2386003D01*
G01X5115814Y2620003D01*
G01X5114061Y2631070D01*
G01X5108974Y2641054D01*
G01X5101051Y2648977D01*
G01X5091067Y2654064D01*
G01X5080000Y2655817D01*
G01X4961214Y2655817D01*
G01X4961214Y2664841D01*
G01X4965027Y2677340D01*
G01X4966314Y2690344D01*
G01X4965027Y2703348D01*
G01X4961214Y2715847D01*
G01X4961214Y2936724D01*
G01X4970696Y2939804D01*
G01X4978962Y2945378D01*
G01X4985371Y2953015D01*
G01X4989426Y2962122D01*
G01X4990814Y2971995D01*
G01X4990814Y3221994D01*
G01X4989061Y3233061D01*
G01X4983974Y3243045D01*
G01X4976051Y3250968D01*
G01X4966067Y3256055D01*
G01X4955000Y3257808D01*
G01X4845000Y3257808D01*
G01X4833933Y3256055D01*
G01X4823949Y3250968D01*
G01X4816026Y3243045D01*
G01X4810939Y3233061D01*
G01X4809186Y3221994D01*
G01X4809186Y2971995D01*
G01X4810574Y2962122D01*
G01X4814629Y2953015D01*
G01X4821038Y2945378D01*
G01X4829304Y2939804D01*
G01X4838786Y2936724D01*
G01X4838786Y2715847D01*
G01X4834974Y2703348D01*
G01X4833686Y2690344D01*
G01X4834974Y2677340D01*
G01X4838786Y2664841D01*
G01X4838786Y2655817D01*
G01X4731217Y2655817D01*
G01X4731217Y2936724D01*
G01X4740699Y2939804D01*
G01X4748965Y2945378D01*
G01X4755374Y2953015D01*
G01X4759429Y2962122D01*
G01X4760817Y2971995D01*
G01X4760817Y3221994D01*
G01X4759064Y3233061D01*
G01X4753977Y3243045D01*
G01X4746054Y3250968D01*
G01X4736070Y3256055D01*
G01X4725003Y3257808D01*
G01X4615003Y3257808D01*
G01X4603936Y3256055D01*
G01X4593952Y3250968D01*
G01X4586029Y3243045D01*
G01X4580942Y3233061D01*
G01X4579189Y3221994D01*
G01X4579189Y2971995D01*
G01X4580577Y2962122D01*
G01X4584632Y2953015D01*
G01X4591041Y2945378D01*
G01X4599307Y2939804D01*
G01X4608789Y2936724D01*
G01X4608789Y2358676D01*
G01X4580000Y2329914D01*
G01X4530000Y2329914D01*
G01X4514664Y2328546D01*
G01X4499814Y2324484D01*
G01X4499814Y2630955D01*
G01X4514873Y2625434D01*
G01X4530818Y2623691D01*
G01X4546714Y2625827D01*
G01X4561633Y2631717D01*
G01X4574701Y2641017D01*
G01X4585154Y2653182D01*
G01X4592381Y2667501D01*
G01X4595958Y2683137D01*
G01X4595677Y2699174D01*
G37*
G36*
G01X4042794Y1512960D02*
G01X4042794Y1562960D01*
G01X4041703Y1571733D01*
G01X4038496Y1579971D01*
G01X4039980Y1583067D01*
G01X4045404Y1574131D01*
G01X4053177Y1567141D01*
G01X4062638Y1562694D01*
G01X4072979Y1561169D01*
G01X4118786Y1561169D01*
G01X4118786Y1446156D01*
G01X4103844Y1431214D01*
G01X4018679Y1431214D01*
G01X4024046Y1440178D01*
G01X4027369Y1450084D01*
G01X4028494Y1460471D01*
G01X4028494Y1484328D01*
G01X4036178Y1492220D01*
G01X4041100Y1502075D01*
G01X4042794Y1512960D01*
G37*
G36*
G01X4178897Y2189971D02*
G01X4187833Y2195395D01*
G01X4194822Y2203169D01*
G01X4199269Y2212629D01*
G01X4200795Y2222971D01*
G01X4200795Y2276971D01*
G01X4199269Y2287313D01*
G01X4194822Y2296774D01*
G01X4187833Y2304547D01*
G01X4178897Y2309971D01*
G01X4179979Y2310449D01*
G01X4187300Y2307990D01*
G01X4194978Y2307157D01*
G01X4251544Y2307157D01*
G01X4262428Y2308851D01*
G01X4272283Y2313773D01*
G01X4280176Y2321457D01*
G01X4319934Y2321457D01*
G01X4321486Y2319905D01*
G01X4321486Y2060095D01*
G01X4319876Y2058485D01*
G01X4280176Y2058485D01*
G01X4271775Y2066524D01*
G01X4271775Y2073418D01*
G01X4280120Y2081383D01*
G01X4285500Y2091586D01*
G01X4287358Y2102971D01*
G01X4287358Y2156971D01*
G01X4285605Y2168038D01*
G01X4280518Y2178022D01*
G01X4272595Y2185945D01*
G01X4262611Y2191032D01*
G01X4251544Y2192785D01*
G01X4194978Y2192785D01*
G01X4187300Y2191953D01*
G01X4179979Y2189493D01*
G01X4178897Y2189971D01*
G37*
G36*
G01X4731248Y1778757D02*
G01X4742020Y1791883D01*
G01X4750024Y1806857D01*
G01X4754953Y1823105D01*
G01X4756617Y1840003D01*
G01X4756617Y1901596D01*
G01X4758318Y1912500D01*
G01X4758318Y2159000D01*
G01X4757005Y2168606D01*
G01X4753164Y2177508D01*
G01X4747969Y2191023D01*
G01X4740595Y2203484D01*
G01X4731248Y2214542D01*
G01X4684530Y2261261D01*
G01X4713288Y2290018D01*
G01X4720901Y2299295D01*
G01X4726557Y2309878D01*
G01X4730041Y2321361D01*
G01X4731217Y2333303D01*
G01X4731217Y2350189D01*
G01X4896009Y2350189D01*
G01X4894271Y2343950D01*
G01X4893686Y2337501D01*
G01X4893686Y2202500D01*
G01X4894520Y2194814D01*
G01X4847500Y2194814D01*
G01X4836432Y2193061D01*
G01X4826449Y2187974D01*
G01X4818525Y2180051D01*
G01X4813438Y2170067D01*
G01X4811686Y2159000D01*
G01X4811686Y1912500D01*
G01X4813633Y1900852D01*
G01X4819262Y1890471D01*
G01X4827962Y1882485D01*
G01X4838786Y1877763D01*
G01X4838786Y1623314D01*
G01X4723000Y1623314D01*
G01X4711933Y1621561D01*
G01X4701949Y1616474D01*
G01X4694026Y1608551D01*
G01X4688939Y1598567D01*
G01X4687186Y1587500D01*
G01X4687186Y1341000D01*
G01X4688939Y1329933D01*
G01X4694026Y1319949D01*
G01X4701949Y1312026D01*
G01X4711933Y1306939D01*
G01X4723000Y1305186D01*
G01X4894520Y1305186D01*
G01X4893686Y1297501D01*
G01X4893686Y1162500D01*
G01X4895439Y1151432D01*
G01X4900526Y1141449D01*
G01X4908449Y1133525D01*
G01X4918433Y1128438D01*
G01X4929500Y1126686D01*
G01X4935819Y1126686D01*
G01X4933764Y1113220D01*
G01X4934504Y1099618D01*
G01X4938007Y1086455D01*
G01X4944125Y1074285D01*
G01X4952602Y1063622D01*
G01X4963078Y1054915D01*
G01X4975112Y1048533D01*
G01X4988196Y1044745D01*
G01X5001779Y1043710D01*
G01X5015286Y1045472D01*
G01X5007711Y1037595D01*
G01X5002865Y1027800D01*
G01X5001198Y1017000D01*
G01X5001198Y963000D01*
G01X5002951Y951933D01*
G01X5008038Y941949D01*
G01X5015961Y934026D01*
G01X5025945Y928939D01*
G01X5037012Y927186D01*
G01X5049629Y927186D01*
G01X5049629Y889412D01*
G01X5050137Y882409D01*
G01X5050137Y854412D01*
G01X5051890Y843345D01*
G01X5056977Y833361D01*
G01X5064900Y825438D01*
G01X5074884Y820351D01*
G01X5085951Y818598D01*
G01X5110000Y818598D01*
G01X5111591Y812620D01*
G01X5114186Y807005D01*
G01X5114186Y569420D01*
G01X5115452Y559982D01*
G01X5119160Y551212D01*
G01X5125048Y543728D01*
G01X5125048Y533921D01*
G01X5125645Y527408D01*
G01X5127417Y521113D01*
G01X5126759Y519241D01*
G01X5118786Y522218D01*
G01X5110335Y523229D01*
G01X5085951Y523229D01*
G01X5074884Y521476D01*
G01X5064900Y516389D01*
G01X5056977Y508466D01*
G01X5051890Y498482D01*
G01X5050137Y487415D01*
G01X5050137Y459417D01*
G01X5049629Y452415D01*
G01X5049629Y401857D01*
G01X5050133Y394884D01*
G01X5041516Y397093D01*
G01X5014791Y423819D01*
G01X5004743Y431529D01*
G01X4993042Y436376D01*
G01X4980486Y438029D01*
G01X4900580Y438029D01*
G01X4898936Y439673D01*
G01X4898936Y450755D01*
G01X4908022Y456138D01*
G01X4915143Y463938D01*
G01X4919679Y473475D01*
G01X4921236Y483921D01*
G01X4921236Y508305D01*
G01X4920639Y514818D01*
G01X4918867Y521113D01*
G01X4921123Y531078D01*
G01X4929009Y538997D01*
G01X4934070Y548961D01*
G01X4935814Y560000D01*
G01X4935814Y770000D01*
G01X4934085Y780994D01*
G01X4929064Y790927D01*
G01X4921236Y798839D01*
G01X4921236Y808304D01*
G01X4919483Y819372D01*
G01X4914396Y829355D01*
G01X4906473Y837279D01*
G01X4896489Y842366D01*
G01X4885422Y844118D01*
G01X4815422Y844118D01*
G01X4804355Y842366D01*
G01X4794371Y837279D01*
G01X4786448Y829355D01*
G01X4781361Y819372D01*
G01X4779608Y808304D01*
G01X4779608Y806011D01*
G01X4715814Y806116D01*
G01X4715814Y1100483D01*
G01X4714055Y1111570D01*
G01X4708950Y1121567D01*
G01X4701002Y1129493D01*
G01X4690990Y1134569D01*
G01X4679898Y1136297D01*
G01X4676614Y1136288D01*
G01X4676614Y1724124D01*
G01X4731248Y1778757D01*
G37*
G36*
G01X5824186Y35814D02*
G01X4783619Y35814D01*
G01X4791016Y41507D01*
G01X4796691Y48919D01*
G01X4800258Y57545D01*
G01X4801474Y66800D01*
G01X4801474Y153200D01*
G01X4800528Y161381D01*
G01X4797737Y169128D01*
G01X4804305Y175696D01*
G01X4810528Y183334D01*
G01X4815080Y192073D01*
G01X4822431Y197770D01*
G01X4828066Y205168D01*
G01X4831607Y213767D01*
G01X4832814Y222988D01*
G01X4832814Y272988D01*
G01X4831238Y283498D01*
G01X4835986Y283498D01*
G01X4843683Y276854D01*
G01X4852936Y272641D01*
G01X4863000Y271198D01*
G01X4917000Y271198D01*
G01X4927090Y272648D01*
G01X4936362Y276882D01*
G01X4944066Y283557D01*
G01X4949577Y292132D01*
G01X4954890Y282806D01*
G01X4962729Y275474D01*
G01X4972388Y270793D01*
G01X4983000Y269185D01*
G01X5037000Y269185D01*
G01X5047612Y270793D01*
G01X5057271Y275474D01*
G01X5065109Y282806D01*
G01X5070423Y292132D01*
G01X5075934Y283557D01*
G01X5083638Y276882D01*
G01X5092910Y272648D01*
G01X5103000Y271198D01*
G01X5157000Y271198D01*
G01X5167090Y272648D01*
G01X5176362Y276882D01*
G01X5184065Y283557D01*
G01X5189577Y292132D01*
G01X5190478Y290000D01*
G01X5188018Y282679D01*
G01X5187186Y275001D01*
G01X5187186Y218435D01*
G01X5188939Y207368D01*
G01X5194026Y197384D01*
G01X5201949Y189461D01*
G01X5211933Y184374D01*
G01X5223000Y182621D01*
G01X5277000Y182621D01*
G01X5288385Y184479D01*
G01X5298588Y189859D01*
G01X5306553Y198204D01*
G01X5313447Y198204D01*
G01X5321411Y189859D01*
G01X5331615Y184479D01*
G01X5343000Y182621D01*
G01X5397000Y182621D01*
G01X5408067Y184374D01*
G01X5418051Y189461D01*
G01X5425974Y197384D01*
G01X5431061Y207368D01*
G01X5432814Y218435D01*
G01X5432814Y265782D01*
G01X5824186Y265782D01*
G01X5824186Y35814D01*
G37*
G36*
G01X4961214Y1877763D02*
G01X4972038Y1882485D01*
G01X4980738Y1890471D01*
G01X4986368Y1900852D01*
G01X4988315Y1912500D01*
G01X4988315Y2159000D01*
G01X4987480Y2166686D01*
G01X5070500Y2166686D01*
G01X5080479Y2168104D01*
G01X5089668Y2172247D01*
G01X5097339Y2178786D01*
G01X5313159Y2178786D01*
G01X5306327Y2165658D01*
G01X5302577Y2151342D01*
G01X5302095Y2136550D01*
G01X5304905Y2122020D01*
G01X5310868Y2108475D01*
G01X5319687Y2096590D01*
G01X5319687Y1788514D01*
G01X5175400Y1788514D01*
G01X5162844Y1786861D01*
G01X5151143Y1782014D01*
G01X5141096Y1774305D01*
G01X5105695Y1738905D01*
G01X5097986Y1728857D01*
G01X5093139Y1717156D01*
G01X5091486Y1704600D01*
G01X5091486Y1620253D01*
G01X5084403Y1622540D01*
G01X5077000Y1623314D01*
G01X4961214Y1623314D01*
G01X4961214Y1877763D01*
G37*
G36*
G01X5728604Y1688786D02*
G01X5740547Y1689962D01*
G01X5752030Y1693446D01*
G01X5762613Y1699102D01*
G01X5771889Y1706715D01*
G01X5790000Y1724826D01*
G01X5808111Y1706715D01*
G01X5817387Y1699102D01*
G01X5827970Y1693446D01*
G01X5839453Y1689962D01*
G01X5851396Y1688786D01*
G01X6020000Y1688786D01*
G01X6031942Y1689962D01*
G01X6043425Y1693446D01*
G01X6054008Y1699102D01*
G01X6063285Y1706715D01*
G01X6123285Y1766715D01*
G01X6130898Y1775991D01*
G01X6136554Y1786574D01*
G01X6140038Y1798058D01*
G01X6141214Y1810000D01*
G01X6141214Y1829312D01*
G01X6145861Y1821705D01*
G01X6151486Y1814790D01*
G01X6151486Y1760000D01*
G01X6153139Y1747444D01*
G01X6157986Y1735743D01*
G01X6165695Y1725695D01*
G01X6206032Y1685359D01*
G01X6216080Y1677649D01*
G01X6227780Y1672803D01*
G01X6240337Y1671150D01*
G01X6506935Y1671150D01*
G01X6509929Y1663002D01*
G01X6514796Y1655814D01*
G01X6228896Y1655814D01*
G01X6217806Y1654054D01*
G01X6207807Y1648946D01*
G01X6199880Y1640993D01*
G01X6194806Y1630976D01*
G01X6193083Y1619880D01*
G01X6194186Y1289880D01*
G01X6195989Y1278781D01*
G01X6201144Y1268788D01*
G01X6209143Y1260886D01*
G01X6219199Y1255853D01*
G01X6230320Y1254187D01*
G01X6235682Y1254235D01*
G01X6235682Y925814D01*
G01X5985814Y925814D01*
G01X5985814Y990000D01*
G01X5984061Y1001067D01*
G01X5978974Y1011051D01*
G01X5971051Y1018974D01*
G01X5961067Y1024061D01*
G01X5950000Y1025814D01*
G01X5676315Y1025814D01*
G01X5676315Y1147501D01*
G01X5675814Y1153468D01*
G01X5675814Y1160000D01*
G01X5674061Y1171067D01*
G01X5668974Y1181051D01*
G01X5661051Y1188974D01*
G01X5651067Y1194061D01*
G01X5640000Y1195814D01*
G01X5270000Y1195814D01*
G01X5258933Y1194061D01*
G01X5248949Y1188974D01*
G01X5241026Y1181051D01*
G01X5235939Y1171067D01*
G01X5234186Y1160000D01*
G01X5234186Y1054249D01*
G01X5145704Y1055306D01*
G01X5133894Y1053452D01*
G01X5123353Y1047815D01*
G01X5115254Y1039023D01*
G01X5107401Y1046443D01*
G01X5097693Y1051184D01*
G01X5087012Y1052814D01*
G01X5037012Y1052814D01*
G01X5033233Y1052614D01*
G01X5044794Y1061102D01*
G01X5054260Y1071877D01*
G01X5061188Y1084435D01*
G01X5065254Y1098189D01*
G01X5066267Y1112496D01*
G01X5064181Y1126686D01*
G01X5070500Y1126686D01*
G01X5081567Y1128438D01*
G01X5091551Y1133525D01*
G01X5099474Y1141449D01*
G01X5104561Y1151432D01*
G01X5106314Y1162500D01*
G01X5106314Y1297501D01*
G01X5105143Y1306584D01*
G01X5101707Y1315073D01*
G01X5107724Y1322597D01*
G01X5111518Y1331453D01*
G01X5112814Y1341000D01*
G01X5112814Y1408577D01*
G01X5137472Y1383919D01*
G01X5140230Y1373985D01*
G01X5145705Y1365249D01*
G01X5153441Y1358434D01*
G01X5162798Y1354105D01*
G01X5173000Y1352621D01*
G01X5227000Y1352621D01*
G01X5238385Y1354479D01*
G01X5248589Y1359859D01*
G01X5256553Y1368204D01*
G01X5274186Y1368204D01*
G01X5274186Y1289990D01*
G01X5275939Y1278923D01*
G01X5281026Y1268939D01*
G01X5288949Y1261016D01*
G01X5298933Y1255929D01*
G01X5310000Y1254176D01*
G01X5390000Y1254176D01*
G01X5401067Y1255929D01*
G01X5411051Y1261016D01*
G01X5418974Y1268939D01*
G01X5424061Y1278923D01*
G01X5425814Y1289990D01*
G01X5425814Y1369990D01*
G01X5423830Y1381745D01*
G01X5418097Y1392198D01*
G01X5409251Y1400190D01*
G01X5398272Y1404835D01*
G01X5396220Y1414740D01*
G01X5405701Y1417821D01*
G01X5413965Y1423396D01*
G01X5420372Y1431032D01*
G01X5424427Y1440139D01*
G01X5425814Y1450010D01*
G01X5425814Y1530010D01*
G01X5425068Y1537282D01*
G01X5422861Y1544251D01*
G01X5431023Y1552414D01*
G01X5436619Y1559123D01*
G01X5440000Y1560478D01*
G01X5443381Y1559123D01*
G01X5448977Y1552414D01*
G01X5457140Y1544251D01*
G01X5454932Y1537282D01*
G01X5454186Y1530010D01*
G01X5454186Y1450010D01*
G01X5455817Y1439327D01*
G01X5460559Y1429617D01*
G01X5467982Y1421764D01*
G01X5477410Y1416482D01*
G01X5487983Y1414253D01*
G01X5483959Y1405291D01*
G01X5474430Y1402242D01*
G01X5466116Y1396677D01*
G01X5459666Y1389030D01*
G01X5455584Y1379896D01*
G01X5454186Y1369990D01*
G01X5454186Y1289990D01*
G01X5455939Y1278923D01*
G01X5461026Y1268939D01*
G01X5468949Y1261016D01*
G01X5478933Y1255929D01*
G01X5490000Y1254176D01*
G01X5570000Y1254176D01*
G01X5581067Y1255929D01*
G01X5591051Y1261016D01*
G01X5598974Y1268939D01*
G01X5604061Y1278923D01*
G01X5605814Y1289990D01*
G01X5605814Y1368204D01*
G01X5623447Y1368204D01*
G01X5631412Y1359859D01*
G01X5641615Y1354479D01*
G01X5653000Y1352621D01*
G01X5707000Y1352621D01*
G01X5718067Y1354374D01*
G01X5728051Y1359461D01*
G01X5735974Y1367384D01*
G01X5741061Y1377368D01*
G01X5742814Y1388435D01*
G01X5742814Y1445001D01*
G01X5741061Y1456068D01*
G01X5735974Y1466052D01*
G01X5728051Y1473975D01*
G01X5718067Y1479062D01*
G01X5707000Y1480815D01*
G01X5653000Y1480815D01*
G01X5641615Y1478957D01*
G01X5631412Y1473577D01*
G01X5623447Y1465232D01*
G01X5605814Y1465232D01*
G01X5605814Y1530010D01*
G01X5604127Y1540871D01*
G01X5599226Y1550710D01*
G01X5591572Y1558598D01*
G01X5581886Y1563794D01*
G01X5571080Y1565808D01*
G01X5570396Y1566866D01*
G01X5577168Y1571362D01*
G01X5583285Y1576715D01*
G01X5613285Y1606715D01*
G01X5620898Y1615991D01*
G01X5626554Y1626574D01*
G01X5630038Y1638058D01*
G01X5631214Y1650000D01*
G01X5631214Y1688786D01*
G01X5728604Y1688786D01*
G37*
G36*
G01X5378514Y2895012D02*
G01X5378514Y2971347D01*
G01X5388676Y2966023D01*
G01X5400000Y2964186D01*
G01X5600000Y2964186D01*
G01X5611067Y2965939D01*
G01X5621051Y2971026D01*
G01X5628974Y2978949D01*
G01X5634061Y2988933D01*
G01X5635814Y3000000D01*
G01X5635814Y3189586D01*
G01X5885994Y3189586D01*
G01X5885994Y3161077D01*
G01X5875992Y3155997D01*
G01X5868053Y3148072D01*
G01X5862954Y3138080D01*
G01X5861198Y3127000D01*
G01X5861198Y3073000D01*
G01X5863200Y3061193D01*
G01X5868983Y3050706D01*
G01X5877899Y3042712D01*
G01X5888953Y3038104D01*
G01X5894939Y3010325D01*
G01X5892245Y3001059D01*
G01X5892123Y2991410D01*
G01X5894581Y2982079D01*
G01X5916227Y2929819D01*
G01X5919935Y2923044D01*
G01X5925009Y2917222D01*
G01X5925538Y2909517D01*
G01X5927707Y2902105D01*
G01X5949354Y2849845D01*
G01X5954237Y2841479D01*
G01X5961183Y2834728D01*
G01X5969684Y2830086D01*
G01X5979119Y2827891D01*
G01X5991885Y2811495D01*
G01X6005520Y2795814D01*
G01X5987367Y2795814D01*
G01X5977793Y2808226D01*
G01X5892734Y2893285D01*
G01X5883457Y2900898D01*
G01X5872874Y2906554D01*
G01X5861391Y2910038D01*
G01X5849449Y2911214D01*
G01X5842150Y2911214D01*
G01X5831564Y2912814D01*
G01X5774999Y2912814D01*
G01X5767321Y2911981D01*
G01X5760000Y2909522D01*
G01X5752679Y2911981D01*
G01X5745001Y2912814D01*
G01X5688435Y2912814D01*
G01X5677850Y2911214D01*
G01X5420000Y2911214D01*
G01X5404961Y2909338D01*
G01X5390844Y2903824D01*
G01X5378514Y2895012D01*
G37*
G36*
G01X5416715Y1766222D02*
G01X5416715Y2026716D01*
G01X5453115Y1990315D01*
G01X5462392Y1982702D01*
G01X5472975Y1977045D01*
G01X5484458Y1973562D01*
G01X5496400Y1972386D01*
G01X5703844Y1972386D01*
G01X5728786Y1947444D01*
G01X5728786Y1836751D01*
G01X5703249Y1811214D01*
G01X5598158Y1811214D01*
G01X5586216Y1810038D01*
G01X5574732Y1806554D01*
G01X5564149Y1800898D01*
G01X5554873Y1793285D01*
G01X5526715Y1765127D01*
G01X5519102Y1755851D01*
G01X5513446Y1745268D01*
G01X5509962Y1733784D01*
G01X5508786Y1721842D01*
G01X5508786Y1709823D01*
G01X5494305Y1724305D01*
G01X5484257Y1732014D01*
G01X5472556Y1736861D01*
G01X5460000Y1738514D01*
G01X5408024Y1738514D01*
G01X5412785Y1747095D01*
G01X5415722Y1756459D01*
G01X5416715Y1766222D01*
G37*
G36*
G01X5451214Y2787174D02*
G01X5497000Y2787174D01*
G01X5507623Y2788786D01*
G01X5541486Y2788786D01*
G01X5541486Y2750197D01*
G01X5533802Y2742304D01*
G01X5528880Y2732449D01*
G01X5527186Y2721565D01*
G01X5527186Y2664999D01*
G01X5528208Y2656502D01*
G01X5524014Y2656502D01*
G01X5516317Y2663146D01*
G01X5507064Y2667359D01*
G01X5497000Y2668802D01*
G01X5451214Y2668802D01*
G01X5451214Y2787174D01*
G37*
G36*
G01X5619905Y2201486D02*
G01X5621010Y2200381D01*
G01X5631058Y2192671D01*
G01X5642759Y2187824D01*
G01X5650752Y2178946D01*
G01X5661221Y2173190D01*
G01X5673000Y2171198D01*
G01X5727000Y2171198D01*
G01X5735682Y2172266D01*
G01X5743845Y2175406D01*
G01X5746115Y2162215D01*
G01X5750988Y2149748D01*
G01X5758266Y2138514D01*
G01X5581734Y2138514D01*
G01X5588981Y2149688D01*
G01X5593848Y2162085D01*
G01X5596140Y2175204D01*
G01X5595765Y2188517D01*
G01X5592737Y2201486D01*
G01X5619905Y2201486D01*
G37*
G36*
G01X5677850Y2788786D02*
G01X5688435Y2787186D01*
G01X5745001Y2787186D01*
G01X5752679Y2788018D01*
G01X5760000Y2790478D01*
G01X5767321Y2788018D01*
G01X5774999Y2787186D01*
G01X5825693Y2787186D01*
G01X5854186Y2758693D01*
G01X5854186Y2708514D01*
G01X5733677Y2708514D01*
G01X5728107Y2721956D01*
G01X5719739Y2733859D01*
G01X5708977Y2743651D01*
G01X5696338Y2750859D01*
G01X5682431Y2755138D01*
G01X5667926Y2756282D01*
G01X5653521Y2754234D01*
G01X5639909Y2749094D01*
G01X5638514Y2750197D01*
G01X5638514Y2788786D01*
G01X5677850Y2788786D01*
G37*
G36*
G01X6115324Y2574676D02*
G01X6175525Y2634876D01*
G01X6180409Y2640963D01*
G01X6183859Y2647963D01*
G01X6186967Y2650729D01*
G01X6196349Y2660111D01*
G01X6251784Y2604676D01*
G01X6259514Y2598806D01*
G01X6268535Y2595227D01*
G01X6283744Y2580019D01*
G01X6292751Y2573462D01*
G01X6299308Y2564454D01*
G01X6319108Y2544654D01*
G01X6328104Y2538104D01*
G01X6334654Y2529108D01*
G01X6354454Y2509308D01*
G01X6363462Y2502751D01*
G01X6370019Y2493744D01*
G01X6389818Y2473944D01*
G01X6398814Y2467393D01*
G01X6405365Y2458397D01*
G01X6425165Y2438598D01*
G01X6434172Y2432041D01*
G01X6440729Y2423033D01*
G01X6453762Y2410000D01*
G01X6440729Y2396967D01*
G01X6434172Y2387959D01*
G01X6425165Y2381402D01*
G01X6405365Y2361603D01*
G01X6398814Y2352607D01*
G01X6389818Y2346056D01*
G01X6370019Y2326256D01*
G01X6363462Y2317249D01*
G01X6354454Y2310692D01*
G01X6334654Y2290892D01*
G01X6328104Y2281896D01*
G01X6319108Y2275346D01*
G01X6299308Y2255546D01*
G01X6292751Y2246538D01*
G01X6283744Y2239981D01*
G01X6263944Y2220182D01*
G01X6257393Y2211186D01*
G01X6248397Y2204635D01*
G01X6228598Y2184835D01*
G01X6222041Y2175828D01*
G01X6213033Y2169271D01*
G01X6200000Y2156238D01*
G01X6186967Y2169271D01*
G01X6177959Y2175828D01*
G01X6171402Y2184835D01*
G01X6151603Y2204635D01*
G01X6142607Y2211186D01*
G01X6136056Y2220182D01*
G01X6116256Y2239981D01*
G01X6107249Y2246538D01*
G01X6100692Y2255546D01*
G01X6080892Y2275346D01*
G01X6071896Y2281896D01*
G01X6065346Y2290892D01*
G01X6045546Y2310692D01*
G01X6036538Y2317249D01*
G01X6029981Y2326256D01*
G01X6010182Y2346056D01*
G01X6001186Y2352607D01*
G01X5994635Y2361603D01*
G01X5974835Y2381402D01*
G01X5965828Y2387959D01*
G01X5959271Y2396967D01*
G01X5946238Y2410000D01*
G01X5959271Y2423033D01*
G01X5965828Y2432041D01*
G01X5974835Y2438598D01*
G01X5994635Y2458397D01*
G01X6001186Y2467393D01*
G01X6010182Y2473944D01*
G01X6029981Y2493744D01*
G01X6036538Y2502751D01*
G01X6045546Y2509308D01*
G01X6065346Y2529108D01*
G01X6071896Y2538104D01*
G01X6080892Y2544654D01*
G01X6100692Y2564454D01*
G01X6102546Y2566455D01*
G01X6109376Y2569880D01*
G01X6115324Y2574676D01*
G37*
G36*
G01X7800000Y35814D02*
G01X7675804Y35814D01*
G01X7675804Y360008D01*
G01X7734196Y360008D01*
G01X7735962Y343206D01*
G01X7741182Y327138D01*
G01X7749630Y312506D01*
G01X7760935Y299951D01*
G01X7774603Y290020D01*
G01X7790038Y283149D01*
G01X7806563Y279636D01*
G01X7823458Y279636D01*
G01X7839984Y283149D01*
G01X7855418Y290020D01*
G01X7869087Y299951D01*
G01X7880392Y312506D01*
G01X7888839Y327138D01*
G01X7894060Y343206D01*
G01X7895826Y360008D01*
G01X7894060Y376811D01*
G01X7888839Y392879D01*
G01X7880392Y407510D01*
G01X7869087Y420066D01*
G01X7855418Y429996D01*
G01X7839984Y436868D01*
G01X7823458Y440381D01*
G01X7806563Y440381D01*
G01X7790038Y436868D01*
G01X7774603Y429996D01*
G01X7760935Y420066D01*
G01X7749630Y407510D01*
G01X7741182Y392879D01*
G01X7735962Y376811D01*
G01X7734196Y360008D01*
G01X7734196Y360008D01*
G01X7675804Y360008D01*
G01X7675804Y556365D01*
G01X7682744Y560484D01*
G01X7688905Y565695D01*
G01X7714305Y591095D01*
G01X7722014Y601143D01*
G01X7726861Y612844D01*
G01X7728514Y625400D01*
G01X7728514Y1024600D01*
G01X7726861Y1037156D01*
G01X7725686Y1039992D01*
G01X7734196Y1039992D01*
G01X7735962Y1023189D01*
G01X7741182Y1007121D01*
G01X7749630Y992490D01*
G01X7760935Y979934D01*
G01X7774603Y970004D01*
G01X7790038Y963132D01*
G01X7806563Y959619D01*
G01X7823458Y959619D01*
G01X7839984Y963132D01*
G01X7855418Y970004D01*
G01X7869087Y979934D01*
G01X7880392Y992490D01*
G01X7888839Y1007121D01*
G01X7894060Y1023189D01*
G01X7895826Y1039992D01*
G01X7894060Y1056794D01*
G01X7888839Y1072862D01*
G01X7880392Y1087494D01*
G01X7869087Y1100049D01*
G01X7855418Y1109980D01*
G01X7839984Y1116852D01*
G01X7823458Y1120364D01*
G01X7806563Y1120364D01*
G01X7790038Y1116852D01*
G01X7774603Y1109980D01*
G01X7760935Y1100049D01*
G01X7749630Y1087494D01*
G01X7741182Y1072862D01*
G01X7735962Y1056794D01*
G01X7734196Y1039992D01*
G01X7734196Y1039992D01*
G01X7725686Y1039992D01*
G01X7722014Y1048857D01*
G01X7714305Y1058905D01*
G01X7688905Y1084305D01*
G01X7678857Y1092014D01*
G01X7667156Y1096861D01*
G01X7654600Y1098514D01*
G01X7200095Y1098514D01*
G01X7168514Y1130095D01*
G01X7168514Y1680000D01*
G01X7166861Y1692556D01*
G01X7162014Y1704257D01*
G01X7154305Y1714305D01*
G01X7114641Y1753968D01*
G01X7104593Y1761678D01*
G01X7092893Y1766524D01*
G01X7080336Y1768178D01*
G01X6813065Y1768178D01*
G01X6809409Y1777557D01*
G01X6803286Y1785548D01*
G01X6795181Y1791520D01*
G01X6785734Y1795000D01*
G01X6794857Y1798307D01*
G01X6802756Y1803942D01*
G01X6808853Y1811491D01*
G01X6812700Y1820399D01*
G01X6814015Y1830013D01*
G01X6814015Y1910660D01*
G01X6812883Y1919592D01*
G01X6817498Y1922405D01*
G01X6827418Y1917400D01*
G01X6838396Y1915676D01*
G01X6891596Y1915676D01*
G01X6902663Y1917429D01*
G01X6912647Y1922516D01*
G01X6920570Y1930439D01*
G01X6925657Y1940423D01*
G01X6927410Y1951490D01*
G01X6927410Y1988204D01*
G01X6943447Y1988204D01*
G01X6951411Y1979859D01*
G01X6961615Y1974479D01*
G01X6973000Y1972621D01*
G01X7027000Y1972621D01*
G01X7038067Y1974374D01*
G01X7048051Y1979461D01*
G01X7055974Y1987384D01*
G01X7061061Y1997368D01*
G01X7062814Y2008435D01*
G01X7062814Y2065001D01*
G01X7061981Y2072679D01*
G01X7059522Y2080000D01*
G01X7061981Y2087321D01*
G01X7062814Y2094999D01*
G01X7062814Y2151564D01*
G01X7061572Y2160914D01*
G01X7057932Y2169616D01*
G01X7057932Y2187186D01*
G01X7111564Y2187186D01*
G01X7123366Y2189186D01*
G01X7150000Y2189186D01*
G01X7161864Y2190354D01*
G01X7173272Y2193815D01*
G01X7183786Y2199435D01*
G01X7193002Y2206998D01*
G01X7235190Y2249186D01*
G01X7483557Y2249186D01*
G01X7496246Y2245128D01*
G01X7509489Y2243688D01*
G01X7522753Y2244924D01*
G01X7535503Y2248786D01*
G01X7584497Y2248786D01*
G01X7597236Y2244926D01*
G01X7610490Y2243688D01*
G01X7623725Y2245122D01*
G01X7636406Y2249170D01*
G01X7769141Y2249170D01*
G01X7770854Y2249194D01*
G01X7813153Y2249194D01*
G01X7817781Y2234211D01*
G01X7825821Y2220749D01*
G01X7836818Y2209570D01*
G01X7850148Y2201311D01*
G01X7865053Y2196439D01*
G01X7880687Y2195231D01*
G01X7896164Y2197756D01*
G01X7910603Y2203871D01*
G01X7923187Y2213228D01*
G01X7933199Y2225297D01*
G01X7940072Y2239391D01*
G01X7943416Y2254712D01*
G01X7943041Y2270388D01*
G01X7938968Y2285531D01*
G01X7931428Y2299280D01*
G01X7920850Y2310856D01*
G01X7907833Y2319600D01*
G01X7893117Y2325017D01*
G01X7877538Y2326799D01*
G01X7861979Y2324845D01*
G01X7861979Y2335008D01*
G01X7861403Y2341405D01*
G01X7859693Y2347597D01*
G01X7861346Y2353691D01*
G01X7861903Y2359981D01*
G01X7861903Y2389981D01*
G01X7860527Y2399813D01*
G01X7862004Y2409994D01*
G01X7862004Y2427304D01*
G01X7880415Y2431546D01*
G01X7897677Y2439224D01*
G01X7913157Y2450055D01*
G01X7926284Y2463642D01*
G01X7936577Y2479485D01*
G01X7943657Y2497002D01*
G01X7947263Y2515547D01*
G01X7947263Y2534440D01*
G01X7943657Y2552986D01*
G01X7936577Y2570502D01*
G01X7926284Y2586345D01*
G01X7913157Y2599932D01*
G01X7897677Y2610764D01*
G01X7880415Y2618442D01*
G01X7862004Y2622683D01*
G01X7862004Y2639993D01*
G01X7860534Y2650149D01*
G01X7861903Y2659955D01*
G01X7861903Y2689955D01*
G01X7860523Y2699800D01*
G01X7862004Y2709993D01*
G01X7862004Y2739993D01*
G01X7861434Y2746361D01*
G01X7859740Y2752527D01*
G01X7861415Y2758660D01*
G01X7861979Y2764992D01*
G01X7861979Y2775130D01*
G01X7877536Y2773176D01*
G01X7893115Y2774957D01*
G01X7907830Y2780373D01*
G01X7920846Y2789115D01*
G01X7931424Y2800689D01*
G01X7938965Y2814436D01*
G01X7943040Y2829577D01*
G01X7943417Y2845253D01*
G01X7940076Y2860572D01*
G01X7933206Y2874667D01*
G01X7923197Y2886736D01*
G01X7910617Y2896096D01*
G01X7896180Y2902213D01*
G01X7880705Y2904743D01*
G01X7865072Y2903540D01*
G01X7850167Y2898673D01*
G01X7836836Y2890418D01*
G01X7825835Y2879244D01*
G01X7817791Y2865786D01*
G01X7813158Y2850806D01*
G01X7712165Y2850806D01*
G01X7710850Y2850782D01*
G01X7636517Y2850782D01*
G01X7623814Y2854859D01*
G01X7610551Y2856312D01*
G01X7597266Y2855080D01*
G01X7584497Y2851214D01*
G01X7535503Y2851214D01*
G01X7523004Y2855027D01*
G01X7510000Y2856314D01*
G01X7496996Y2855027D01*
G01X7484497Y2851214D01*
G01X7235356Y2851214D01*
G01X7193285Y2893285D01*
G01X7184009Y2900897D01*
G01X7173426Y2906554D01*
G01X7161942Y2910038D01*
G01X7150000Y2911214D01*
G01X7123788Y2911214D01*
G01X7130528Y2922909D01*
G01X7134760Y2935726D01*
G01X7136308Y2949135D01*
G01X7135110Y2962580D01*
G01X7131214Y2975503D01*
G01X7131214Y3040000D01*
G01X7130038Y3051942D01*
G01X7126554Y3063426D01*
G01X7120897Y3074009D01*
G01X7113285Y3083285D01*
G01X7063285Y3133285D01*
G01X7054009Y3140897D01*
G01X7043426Y3146554D01*
G01X7031942Y3150038D01*
G01X7020000Y3151214D01*
G01X6490000Y3151214D01*
G01X6478058Y3150038D01*
G01X6466574Y3146554D01*
G01X6455991Y3140897D01*
G01X6446715Y3133285D01*
G01X6406715Y3093285D01*
G01X6399102Y3084009D01*
G01X6393446Y3073426D01*
G01X6389962Y3061942D01*
G01X6388786Y3050000D01*
G01X6388786Y3048855D01*
G01X6384676Y3045324D01*
G01X6174676Y2835324D01*
G01X6168984Y2827907D01*
G01X6165406Y2819269D01*
G01X6164186Y2810000D01*
G01X6164186Y2763758D01*
G01X6160804Y2767140D01*
G01X6159481Y2768397D01*
G01X6153822Y2775075D01*
G01X6159698Y2784127D01*
G01X6162610Y2794518D01*
G01X6162296Y2805306D01*
G01X6158781Y2815510D01*
G01X6152387Y2824203D01*
G01X6114203Y2862387D01*
G01X6104737Y2869174D01*
G01X6093594Y2872565D01*
G01X6081953Y2872201D01*
G01X6071043Y2868120D01*
G01X6066508Y2873511D01*
G01X6068054Y2881659D01*
G01X6067684Y2889943D01*
G01X6065419Y2897921D01*
G01X6043772Y2950181D01*
G01X6040065Y2956956D01*
G01X6034991Y2962778D01*
G01X6034462Y2970483D01*
G01X6032293Y2977895D01*
G01X6010646Y3030155D01*
G01X6004608Y3039922D01*
G01X5995790Y3047276D01*
G01X5985098Y3051461D01*
G01X5982764Y3070896D01*
G01X5982825Y3073000D01*
G01X5982825Y3095536D01*
G01X5982886Y3096361D01*
G01X5983022Y3100000D01*
G01X5983022Y3189586D01*
G01X8364186Y3189586D01*
G01X8364186Y1785814D01*
G01X8000000Y1785814D01*
G01X7988933Y1784061D01*
G01X7978949Y1778974D01*
G01X7971026Y1771051D01*
G01X7965939Y1761067D01*
G01X7964186Y1750000D01*
G01X7964186Y1547055D01*
G01X7943075Y1567665D01*
G01X7919401Y1585272D01*
G01X7893588Y1599559D01*
G01X7866097Y1610270D01*
G01X7837423Y1617214D01*
G01X7808078Y1620266D01*
G01X7778588Y1619371D01*
G01X7749482Y1614546D01*
G01X7721281Y1605877D01*
G01X7694490Y1593520D01*
G01X7669590Y1577695D01*
G01X7647026Y1558686D01*
G01X7627203Y1536834D01*
G01X7610477Y1512531D01*
G01X7597145Y1486211D01*
G01X7587449Y1458347D01*
G01X7581560Y1429437D01*
G01X7579586Y1400000D01*
G01X7581560Y1370563D01*
G01X7587449Y1341653D01*
G01X7597145Y1313788D01*
G01X7610477Y1287469D01*
G01X7627203Y1263165D01*
G01X7647026Y1241313D01*
G01X7669590Y1222305D01*
G01X7694490Y1206480D01*
G01X7721281Y1194122D01*
G01X7749482Y1185453D01*
G01X7778588Y1180628D01*
G01X7808078Y1179734D01*
G01X7837423Y1182786D01*
G01X7866097Y1189730D01*
G01X7893588Y1200441D01*
G01X7919401Y1214728D01*
G01X7943075Y1232334D01*
G01X7964186Y1252944D01*
G01X7964186Y200000D01*
G01X7962165Y174316D01*
G01X7956150Y149264D01*
G01X7946291Y125461D01*
G01X7932829Y103494D01*
G01X7916097Y83903D01*
G01X7896506Y67171D01*
G01X7874539Y53709D01*
G01X7850736Y43850D01*
G01X7825684Y37835D01*
G01X7800000Y35814D01*
G37*
G36*
G01X6604186Y35814D02*
G01X6204650Y35814D01*
G01X6204650Y733744D01*
G01X6243001Y733744D01*
G01X6244053Y721808D01*
G01X6247711Y710397D01*
G01X6253794Y700074D01*
G01X6262004Y691346D01*
G01X6271936Y684643D01*
G01X6271936Y658653D01*
G01X6267847Y644684D01*
G01X6266903Y630159D01*
G01X6269152Y615778D01*
G01X6258477Y613640D01*
G01X6248938Y608395D01*
G01X6241416Y600526D01*
G01X6236605Y590760D01*
G01X6234950Y580000D01*
G01X6234950Y120000D01*
G01X6236703Y108933D01*
G01X6241790Y98949D01*
G01X6249713Y91026D01*
G01X6259697Y85939D01*
G01X6270764Y84186D01*
G01X6440000Y84186D01*
G01X6451067Y85939D01*
G01X6461051Y91026D01*
G01X6468974Y98949D01*
G01X6474061Y108933D01*
G01X6475814Y120000D01*
G01X6475814Y194186D01*
G01X6604186Y194186D01*
G01X6604186Y35814D01*
G37*
G36*
G01X6248514Y1780095D02*
G01X6248514Y1814790D01*
G01X6258081Y1827997D01*
G01X6264135Y1843139D01*
G01X6266310Y1859300D01*
G01X6264476Y1875505D01*
G01X6286718Y1875505D01*
G01X6298661Y1876681D01*
G01X6310144Y1880164D01*
G01X6320727Y1885821D01*
G01X6330003Y1893434D01*
G01X6373871Y1937302D01*
G01X6381484Y1946578D01*
G01X6387141Y1957161D01*
G01X6390624Y1968644D01*
G01X6391801Y1980587D01*
G01X6391801Y2024644D01*
G01X6612590Y2245434D01*
G01X6612590Y2181309D01*
G01X6614343Y2170242D01*
G01X6619430Y2160258D01*
G01X6627353Y2152335D01*
G01X6637337Y2147248D01*
G01X6648404Y2145495D01*
G01X6648783Y2145495D01*
G01X6645212Y2134143D01*
G01X6643727Y2122336D01*
G01X6640699Y2119309D01*
G01X6633335Y2109850D01*
G01X6628515Y2098874D01*
G01X6626533Y2087051D01*
G01X6619034Y2079186D01*
G01X6614239Y2069433D01*
G01X6612590Y2058691D01*
G01X6612590Y1951490D01*
G01X6614343Y1940423D01*
G01X6619430Y1930439D01*
G01X6627353Y1922516D01*
G01X6637337Y1917429D01*
G01X6648404Y1915676D01*
G01X6656339Y1915676D01*
G01X6656024Y1912319D01*
G01X6646032Y1904641D01*
G01X6625696Y1884305D01*
G01X6617986Y1874257D01*
G01X6613139Y1862557D01*
G01X6611486Y1850000D01*
G01X6611486Y1795801D01*
G01X6541800Y1795801D01*
G01X6530025Y1793810D01*
G01X6519559Y1788058D01*
G01X6511566Y1779185D01*
G01X6506935Y1768178D01*
G01X6260432Y1768178D01*
G01X6248514Y1780095D01*
G37*
G36*
G01X6523421Y2920325D02*
G01X6526116Y2910861D01*
G01X6530665Y2902136D01*
G01X6536882Y2894509D01*
G01X6537271Y2894120D01*
G01X6534517Y2892979D01*
G01X6525160Y2887291D01*
G01X6517959Y2879042D01*
G01X6513587Y2869003D01*
G01X6512453Y2858111D01*
G01X6514663Y2847386D01*
G01X6466790Y2817816D01*
G01X6420467Y2785871D01*
G01X6375814Y2751632D01*
G01X6375814Y2806040D01*
G01X6497469Y2927695D01*
G01X6503160Y2935113D01*
G01X6506738Y2943750D01*
G01X6507958Y2953019D01*
G01X6507958Y2957654D01*
G01X6523421Y2920325D01*
G37*
G36*
G01X6460000Y863204D02*
G01X6471067Y864957D01*
G01X6481051Y870044D01*
G01X6488974Y877967D01*
G01X6494061Y887951D01*
G01X6495814Y899018D01*
G01X6495814Y936712D01*
G01X6507930Y937705D01*
G01X6519516Y941382D01*
G01X6529987Y947557D01*
G01X6542086Y940687D01*
G01X6555538Y937135D01*
G01X6569451Y937137D01*
G01X6582902Y940693D01*
G01X6594998Y947567D01*
G01X6604639Y941768D01*
G01X6615272Y938091D01*
G01X6626435Y936697D01*
G01X6637646Y937646D01*
G01X6636792Y924131D01*
G01X6639327Y910829D01*
G01X6645090Y898575D01*
G01X6653721Y888140D01*
G01X6664675Y880180D01*
G01X6677266Y875194D01*
G01X6690701Y873496D01*
G01X6762999Y873496D01*
G01X6777122Y875375D01*
G01X6790262Y880881D01*
G01X6801505Y889631D01*
G01X6810070Y901017D01*
G01X6815359Y914246D01*
G01X6817006Y928397D01*
G01X6821486Y932877D01*
G01X6821486Y895644D01*
G01X6815624Y890103D01*
G01X6805384Y887587D01*
G01X6795929Y882918D01*
G01X6787707Y876316D01*
G01X6762893Y851502D01*
G01X6690701Y851502D01*
G01X6677312Y849817D01*
G01X6664759Y844865D01*
G01X6653825Y836956D01*
G01X6645192Y826584D01*
G01X6639400Y814395D01*
G01X6636811Y801151D01*
G01X6637584Y787679D01*
G01X6629948Y779793D01*
G01X6625059Y769965D01*
G01X6623377Y759117D01*
G01X6623377Y736032D01*
G01X6598027Y736032D01*
G01X6586960Y734279D01*
G01X6576976Y729192D01*
G01X6569053Y721269D01*
G01X6563966Y711285D01*
G01X6562213Y700218D01*
G01X6562213Y615814D01*
G01X6551502Y615814D01*
G01X6551502Y669299D01*
G01X6549873Y682467D01*
G01X6545082Y694841D01*
G01X6537420Y705673D01*
G01X6527347Y714310D01*
G01X6515474Y720231D01*
G01X6502515Y723079D01*
G01X6489252Y722682D01*
G01X6476487Y719064D01*
G01X6464989Y712443D01*
G01X6455350Y718238D01*
G01X6444720Y721911D01*
G01X6433560Y723303D01*
G01X6422354Y722354D01*
G01X6423302Y731397D01*
G01X6422721Y740470D01*
G01X6430709Y748381D01*
G01X6435852Y758379D01*
G01X6437641Y769478D01*
G01X6437850Y863204D01*
G01X6460000Y863204D01*
G37*
G36*
G01X6475348Y2638635D02*
G01X6528985Y2669976D01*
G01X6583888Y2699042D01*
G01X6639960Y2725782D01*
G01X6652734Y2730295D01*
G01X6666085Y2732598D01*
G01X6679633Y2732625D01*
G01X6692992Y2730375D01*
G01X6714018Y2679615D01*
G01X6719872Y2670061D01*
G01X6728393Y2662784D01*
G01X6738745Y2658496D01*
G01X6749915Y2657617D01*
G01X6760811Y2660233D01*
G01X6825482Y2687021D01*
G01X6834767Y2692647D01*
G01X6841938Y2700797D01*
G01X6846339Y2710722D01*
G01X6847564Y2721508D01*
G01X6861996Y2733075D01*
G01X6874842Y2746382D01*
G01X6885892Y2761213D01*
G01X6894968Y2777329D01*
G01X6914295Y2785334D01*
G01X6923848Y2791189D01*
G01X6931126Y2799709D01*
G01X6935414Y2810061D01*
G01X6936293Y2821232D01*
G01X6933677Y2832127D01*
G01X6914543Y2878321D01*
G01X6908688Y2887875D01*
G01X6900168Y2895152D01*
G01X6889816Y2899440D01*
G01X6878645Y2900320D01*
G01X6867750Y2897704D01*
G01X6817860Y2877039D01*
G01X6808306Y2871184D01*
G01X6801029Y2862664D01*
G01X6796741Y2852311D01*
G01X6795862Y2841141D01*
G01X6798477Y2830245D01*
G01X6801182Y2823715D01*
G01X6790527Y2828587D01*
G01X6778869Y2829760D01*
G01X6767457Y2827107D01*
G01X6741280Y2816264D01*
G01X6719886Y2823621D01*
G01X6697731Y2828196D01*
G01X6675173Y2829913D01*
G01X6645982Y2900385D01*
G01X6644380Y2903747D01*
G01X6644380Y2904134D01*
G01X6643427Y2913701D01*
G01X6640607Y2922892D01*
G01X6636030Y2931346D01*
G01X6639694Y2941323D01*
G01X6640269Y2951936D01*
G01X6637704Y2962250D01*
G01X6617039Y3012140D01*
G01X6611298Y3021560D01*
G01X6602963Y3028786D01*
G01X6994644Y3028786D01*
G01X7008786Y3014644D01*
G01X7008786Y2975503D01*
G01X7004811Y2962163D01*
G01X7003708Y2948287D01*
G01X7005526Y2934486D01*
G01X7010185Y2921369D01*
G01X7017479Y2909514D01*
G01X7027088Y2899442D01*
G01X7022773Y2892625D01*
G01X7020093Y2885016D01*
G01X7019185Y2877000D01*
G01X7019185Y2823000D01*
G01X7020710Y2812658D01*
G01X7025157Y2803197D01*
G01X7032146Y2795424D01*
G01X7041083Y2790000D01*
G01X7032146Y2784576D01*
G01X7025157Y2776802D01*
G01X7020710Y2767342D01*
G01X7019185Y2757000D01*
G01X7019185Y2703000D01*
G01X7020710Y2692658D01*
G01X7025157Y2683197D01*
G01X7032146Y2675424D01*
G01X7041083Y2670000D01*
G01X7040000Y2669522D01*
G01X7032679Y2671981D01*
G01X7025001Y2672814D01*
G01X6968435Y2672814D01*
G01X6957368Y2671061D01*
G01X6947384Y2665974D01*
G01X6939461Y2658051D01*
G01X6934374Y2648067D01*
G01X6932621Y2637000D01*
G01X6932621Y2618514D01*
G01X6536767Y2618514D01*
G01X6524211Y2616861D01*
G01X6512510Y2612014D01*
G01X6502463Y2604304D01*
G01X6477572Y2579413D01*
G01X6466630Y2590355D01*
G01X6457622Y2596912D01*
G01X6451066Y2605920D01*
G01X6441669Y2615316D01*
G01X6458183Y2627446D01*
G01X6475348Y2638635D01*
G37*
G36*
G01X6662610Y2376040D02*
G01X6684497Y2376040D01*
G01X6697752Y2372081D01*
G01X6711541Y2370958D01*
G01X6725263Y2372720D01*
G01X6738320Y2377291D01*
G01X6750145Y2384472D01*
G01X6760222Y2393950D01*
G01X6768114Y2405312D01*
G01X6773477Y2418065D01*
G01X6776077Y2431652D01*
G01X6775801Y2445484D01*
G01X6772662Y2458957D01*
G01X6766795Y2471486D01*
G01X6932621Y2471486D01*
G01X6932621Y2463000D01*
G01X6934374Y2451933D01*
G01X6939461Y2441949D01*
G01X6947384Y2434026D01*
G01X6957368Y2428939D01*
G01X6968435Y2427186D01*
G01X7025001Y2427186D01*
G01X7032679Y2428018D01*
G01X7040000Y2430478D01*
G01X7041083Y2430000D01*
G01X7032146Y2424576D01*
G01X7025157Y2416802D01*
G01X7020710Y2407342D01*
G01X7019185Y2397000D01*
G01X7019185Y2343000D01*
G01X7020710Y2332658D01*
G01X7025157Y2323197D01*
G01X7032146Y2315424D01*
G01X7041083Y2310000D01*
G01X7040000Y2309522D01*
G01X7032679Y2311981D01*
G01X7025001Y2312814D01*
G01X6968435Y2312814D01*
G01X6957850Y2311214D01*
G01X6926214Y2311214D01*
G01X6926214Y2322403D01*
G01X6927814Y2332988D01*
G01X6927814Y2382988D01*
G01X6926061Y2394056D01*
G01X6920974Y2404039D01*
G01X6913051Y2411963D01*
G01X6903067Y2417050D01*
G01X6892000Y2418802D01*
G01X6871987Y2418802D01*
G01X6858013Y2418802D01*
G01X6838000Y2418802D01*
G01X6826933Y2417050D01*
G01X6816949Y2411963D01*
G01X6809026Y2404039D01*
G01X6803939Y2394056D01*
G01X6802186Y2382988D01*
G01X6802186Y2332988D01*
G01X6803786Y2322403D01*
G01X6803786Y2297719D01*
G01X6802582Y2288510D01*
G01X6802582Y2181309D01*
G01X6803235Y2174502D01*
G01X6805169Y2167943D01*
G01X6795311Y2165332D01*
G01X6786215Y2160718D01*
G01X6778286Y2154305D01*
G01X6770695Y2146714D01*
G01X6762469Y2160553D01*
G01X6751150Y2172002D01*
G01X6737406Y2180386D01*
G01X6737418Y2181309D01*
G01X6737418Y2288510D01*
G01X6735665Y2299577D01*
G01X6730578Y2309561D01*
G01X6722655Y2317484D01*
G01X6712671Y2322571D01*
G01X6701604Y2324324D01*
G01X6648404Y2324324D01*
G01X6641214Y2323595D01*
G01X6641214Y2354644D01*
G01X6662610Y2376040D01*
G37*
G36*
G01X6918514Y954790D02*
G01X6927696Y967308D01*
G01X6933715Y981618D01*
G01X6936243Y996935D01*
G01X6935141Y1012420D01*
G01X6930468Y1027225D01*
G01X6922481Y1040537D01*
G01X6911619Y1051628D01*
G01X6898475Y1059889D01*
G01X6883771Y1064868D01*
G01X6868312Y1066293D01*
G01X6852946Y1064084D01*
G01X6838514Y1058363D01*
G01X6838514Y1082495D01*
G01X6861023Y1105004D01*
G01X6868733Y1115052D01*
G01X6873579Y1126752D01*
G01X6875232Y1139309D01*
G01X6875232Y1143447D01*
G01X6883577Y1151411D01*
G01X6888958Y1161615D01*
G01X6890815Y1173000D01*
G01X6890815Y1224186D01*
G01X7071486Y1224186D01*
G01X7071486Y1110000D01*
G01X7073139Y1097444D01*
G01X7077986Y1085743D01*
G01X7085695Y1075695D01*
G01X7104978Y1056413D01*
G01X7095256Y1053525D01*
G01X7086733Y1048029D01*
G01X7080093Y1040364D01*
G01X7075868Y1031144D01*
G01X7074396Y1021110D01*
G01X7072995Y626161D01*
G01X6825814Y626161D01*
G01X6825814Y760000D01*
G01X6825067Y767276D01*
G01X6822858Y774249D01*
G01X6831652Y783043D01*
G01X6843000Y781198D01*
G01X6897000Y781198D01*
G01X6908067Y782950D01*
G01X6918051Y788037D01*
G01X6925974Y795961D01*
G01X6931061Y805944D01*
G01X6932814Y817012D01*
G01X6932814Y867011D01*
G01X6931120Y877896D01*
G01X6926198Y887751D01*
G01X6918514Y895644D01*
G01X6918514Y954790D01*
G37*
G54D10*
G01X1964732Y840160D02*
G01X1919087Y840160D01*
G03X1919878Y849000I-49024J8840D01*
G01X1919877Y911224D01*
G01X1919877Y925931D01*
G01X2035051Y925931D01*
G03X2070865Y961745I0J35814D01*
G01X2070865Y1009658D01*
G01X2079879Y1009661D01*
G03X2103000Y1001198I23121J27351D01*
G01X2157000Y1001198D01*
G03X2180155Y1009690I0J35814D01*
G01X2544254Y1009794D01*
G03X2580000Y976191I35746J2211D01*
G01X2681486Y976191D01*
G01X2681486Y480095D01*
G01X2679905Y478514D01*
G01X2598514Y478514D01*
G01X2598514Y509483D01*
G03X2584305Y543787I-48514J0D01*
G01X2558905Y569187D01*
G03X2524600Y583397I-34305J-34305D01*
G01X2455213Y583397D01*
G01X2448514Y590095D01*
G01X2448514Y620000D01*
G03X2434305Y654305I-48514J0D01*
G01X2404305Y684305D01*
G03X2370000Y698514I-34305J-34305D01*
G01X2130095Y698514D01*
G01X2114254Y714355D01*
G03X2100443Y724024I-34305J-34305D01*
G03X2100800Y728913I-49444J6065D01*
G01X2154497Y728913D01*
G03X2246314Y790127I25503J61214D01*
G03X2154497Y851341I-66314J0D01*
G01X2000000Y851341D01*
G03X1964732Y840160I0J-61214D01*
G01X5908802Y2747000D02*
G03X5908689Y2749840I-35814J0D01*
G01X6046502Y2749840D01*
G01X6063592Y2732696D01*
G03X6082078Y2709626I451850J343119D01*
G03X6090356Y2696692I33602J12390D01*
G01X6128849Y2658198D01*
G01X6093223Y2622572D01*
G01X6054729Y2661066D01*
G03X6047047Y2666909I-25324J-25324D01*
G01X6019651Y2694305D01*
G03X5985346Y2708514I-34305J-34305D01*
G01X5908802Y2708514D01*
G01X5908802Y2747000D01*
G01X6213468Y2711885D02*
G03X6210160Y2717253I-32025J-16032D01*
G01X6210160Y2805792D01*
G01X6365673Y2961305D01*
G03X6374203Y2967613I-16794J31632D01*
G01X6411111Y3004520D01*
G01X6460194Y2955437D01*
G01X6332816Y2828059D01*
G03X6330303Y2823906I7184J-7184D01*
G03X6329840Y2736623I49697J-43906D01*
G01X6329840Y2712400D01*
G03X6320208Y2703616I747275J-829142D01*
G03X6309907Y2696430I15023J-32511D01*
G01X6271413Y2657936D01*
G01X6225324Y2704024D01*
G03X6213468Y2711885I-25324J-25324D01*
G01X3408234Y2290836D02*
G01X3374010Y2290836D01*
G01X3373735Y2888543D01*
G01X3884926Y2888543D01*
G01X3884926Y2668514D01*
G01X3785400Y2668514D01*
G03X3751096Y2654305I0J-48514D01*
G01X3705695Y2608904D01*
G03X3691486Y2574600I34305J-34305D01*
G01X3691486Y2350355D01*
G01X3658364Y2317233D01*
G03X3641214Y2320767I-18473J-46263D01*
G01X3641214Y2324497D01*
G03X3580000Y2416314I-61214J25503D01*
G03X3518786Y2324497I0J-66314D01*
G01X3518786Y2220000D01*
G03X3519840Y2208689I61214J0D01*
G01X3519840Y2139849D01*
G01X3458756Y2139848D01*
G01X3444048Y2139848D01*
G01X3444048Y2255022D01*
G03X3408234Y2290836I-35814J0D01*
G01X3370160Y1600160D02*
G01X3370160Y1689107D01*
G01X3408234Y1689107D01*
G03X3444048Y1724921I0J35814D01*
G01X3444048Y1838680D01*
G01X3537960Y1838680D01*
G01X3537960Y1711285D01*
G03X3513686Y1660000I42040J-51285D01*
G03X3537960Y1608715I66314J0D01*
G01X3537960Y1600160D01*
G01X3370160Y1600160D01*
G01X1540000Y851214D02*
G01X1368620Y851214D01*
G01X1368620Y1004211D01*
G03X1383000Y1001198I14380J32800D01*
G01X1437000Y1001198D01*
G03X1460331Y1009840I0J35814D01*
G01X1469135Y1009840D01*
G01X1469135Y961745D01*
G03X1504949Y925931I35814J0D01*
G01X1620097Y925931D01*
G01X1620097Y910999D01*
G01X1620097Y849000D01*
G03X1625815Y825826I49814J0D01*
G01X1609988Y825826D01*
G03X1592595Y821320I0J-35814D01*
G03X1540000Y851214I-52595J-31320D01*
G01X6280924Y130160D02*
G01X6280924Y468076D01*
G03X6308802Y503000I-7936J34924D01*
G01X6308802Y557000D01*
G03X6306421Y569840I-35814J0D01*
G01X6313417Y569840D01*
G03X6352883Y569840I19733J63310D01*
G01X6385800Y569840D01*
G03X6464989Y553857I46689J27161D01*
G03X6529987Y553857I32499J43143D01*
G03X6616501Y597001I32499J43143D01*
G01X6616501Y669299D01*
G03X6612707Y689186I-54014J0D01*
G01X6635000Y689186D01*
G03X6642854Y690058I0J35814D01*
G01X6657277Y690058D01*
G01X6658951Y688792D01*
G01X6659410Y503638D01*
G03X6629135Y468255I5540J-35383D01*
G01X6629135Y347503D01*
G03X6664949Y311689I35814J0D01*
G01X6835051Y311689D01*
G03X6857797Y319840I0J35814D01*
G01X6882203Y319840D01*
G03X6904949Y311689I22747J27663D01*
G01X7075051Y311689D01*
G03X7097797Y319840I0J35814D01*
G01X7122203Y319840D01*
G03X7144949Y311689I22747J27663D01*
G01X7309979Y311689D01*
G01X7310365Y35814D01*
G01X6650160Y35814D01*
G01X6650160Y230000D01*
G03X6640000Y240160I-10160J0D01*
G01X6440000Y240160D01*
G03X6429840Y230000I0J-10160D01*
G01X6429840Y205198D01*
G03X6426685Y190501I32659J-14697D01*
G01X6426685Y130160D01*
G01X6280924Y130160D01*
G01X6297001Y916501D02*
G03X6281656Y914276I0J-54014D01*
G01X6281656Y1147186D01*
G01X6302988Y1147186D01*
G03X6338802Y1183000I0J35814D01*
G01X6338802Y1237000D01*
G03X6302988Y1272814I-35814J0D01*
G01X6281656Y1272814D01*
G01X6281656Y1290370D01*
G03X6271405Y1300530I-10160J0D01*
G01X6240126Y1300251D01*
G01X6239090Y1609840D01*
G01X6569840Y1609840D01*
G01X6569840Y1409826D01*
G03X6550000Y1415824I-19840J-29816D01*
G01X6470000Y1415824D01*
G03X6434186Y1380010I0J-35814D01*
G01X6434186Y1300010D01*
G03X6449840Y1270409I35814J0D01*
G01X6449840Y1249591D01*
G03X6434186Y1219990I20160J-29601D01*
G01X6434186Y1139990D01*
G03X6448974Y1110998I35814J0D01*
G01X6448974Y1086747D01*
G03X6443474Y1062999I48514J-23748D01*
G01X6443474Y990701D01*
G03X6447268Y970814I54014J0D01*
G01X6425000Y970814D01*
G03X6389186Y935000I0J-35814D01*
G01X6389186Y912707D01*
G03X6369299Y916501I-19887J-50220D01*
G01X6297001Y916501D01*
G01X4521214Y1084497D02*
G03X4523187Y1089878I-61214J25503D01*
G01X4669840Y1090294D01*
G01X4669840Y880320D01*
G03X4647186Y847012I13160J-33309D01*
G01X4647186Y797012D01*
G03X4673630Y762445I35814J0D01*
G03X4679983Y760200I6370J7915D01*
G01X4788748Y760022D01*
G03X4815422Y748106I26674J23898D01*
G01X4885422Y748106D01*
G01X4885728Y748108D01*
G01X4885728Y644118D01*
G01X4885422Y644119D01*
G01X4857424Y644119D01*
G03X4850422Y644627I-7002J-48006D01*
G01X4796113Y644627D01*
G03X4761808Y630417I0J-48514D01*
G01X4732206Y600815D01*
G01X4683000Y600815D01*
G03X4652007Y582948I0J-35814D01*
G03X4634985Y573414I14711J-46230D01*
G03X4613200Y580801I-21784J-28427D01*
G01X4526800Y580801D01*
G03X4520160Y580181I0J-35814D01*
G01X4520160Y798690D01*
G03X4521214Y810000I-60160J11310D01*
G01X4521214Y1084497D01*
G01X5160862Y844116D02*
G03X5155436Y843702I0J-35814D01*
G01X5155436Y1009212D01*
G01X5269878Y1007845D01*
G03X5280160Y1018004I121J10159D01*
G01X5280160Y1149840D01*
G01X5629840Y1149840D01*
G01X5629840Y990000D01*
G03X5640000Y979840I10160J0D01*
G01X5684803Y979840D01*
G03X5699500Y976686I14697J32660D01*
G01X5840500Y976686D01*
G03X5855197Y979840I0J35814D01*
G01X5939840Y979840D01*
G01X5939840Y819611D01*
G03X5924186Y790010I20160J-29601D01*
G01X5924186Y590011D01*
G03X5939840Y560410I35814J0D01*
G01X5939840Y450160D01*
G01X5814957Y450160D01*
G01X5814957Y568120D01*
G03X5790160Y602197I-35814J0D01*
G01X5790160Y824784D01*
G03X5780000Y834944I-10160J0D01*
G01X5443314Y834944D01*
G01X5443314Y910500D01*
G03X5407500Y946314I-35814J0D01*
G01X5272499Y946314D01*
G03X5236685Y910500I0J-35814D01*
G01X5236685Y844624D01*
G01X5195862Y844624D01*
G03X5188860Y844116I0J-48514D01*
G01X5160862Y844116D01*
G01X5841392Y311756D02*
G01X5312814Y311756D01*
G01X5312814Y361564D01*
G03X5298514Y390197I-35814J0D01*
G01X5298514Y419905D01*
G01X5309704Y431095D01*
G03X5323914Y465400I-34305J34305D01*
G01X5323914Y514600D01*
G03X5309705Y548904I-48514J0D01*
G01X5278192Y580417D01*
G03X5243887Y594627I-34305J-34304D01*
G01X5195862Y594627D01*
G03X5188860Y594119I0J-48514D01*
G01X5160862Y594119D01*
G01X5160506Y594117D01*
G01X5160405Y748107D01*
G01X5160862Y748104D01*
G01X5188860Y748104D01*
G03X5195862Y747596I7002J48006D01*
G01X5244165Y747596D01*
G03X5272499Y733686I28335J21904D01*
G01X5407500Y733686D01*
G03X5443314Y769500I0J35814D01*
G01X5443314Y788970D01*
G01X5744186Y788970D01*
G01X5744186Y440000D01*
G03X5780000Y404186I35814J0D01*
G01X5844405Y404186D01*
G01X5844405Y360378D01*
G03X5841392Y346001I32801J-14378D01*
G01X5841392Y311756D01*
G01X5870160Y35814D02*
G01X5870160Y269355D01*
G03X5890379Y301596I-15595J32240D01*
G01X5890379Y404186D01*
G01X5950000Y404186D01*
G03X5985814Y440000I0J35814D01*
G01X5985814Y879840D01*
G01X6241249Y879840D01*
G03X6271496Y863204I30246J19178D01*
G01X6389186Y863204D01*
G01X6389186Y782710D01*
G03X6369299Y786504I-19887J-50220D01*
G01X6297001Y786504D01*
G03X6270790Y779718I0J-54014D01*
G01X6168836Y779718D01*
G03X6158676Y769558I0J-10160D01*
G01X6158676Y35814D01*
G01X5870160Y35814D01*
G01X6762999Y743474D02*
G03X6779840Y746166I0J54014D01*
G01X6779840Y590347D01*
G03X6790000Y580187I10160J0D01*
G01X6933686Y580187D01*
G01X6933686Y532499D01*
G03X6969500Y496685I35814J0D01*
G01X7110500Y496685D01*
G03X7146314Y532499I0J35814D01*
G01X7146314Y667500D01*
G03X7119239Y702232I-35814J0D01*
G01X7120334Y1010815D01*
G01X7151431Y1010790D01*
G03X7180000Y1001486I28569J39210D01*
G01X7631486Y1001486D01*
G01X7631486Y665564D01*
G01X7330870Y665564D01*
G03X7295056Y629750I0J-35814D01*
G01X7295056Y365814D01*
G01X6705725Y365814D01*
G01X6704896Y700307D01*
G03X6670814Y735990I-35814J-89D01*
G01X6670814Y747268D01*
G03X6690701Y743474I19887J50220D01*
G01X6762999Y743474D01*
G01X7629830Y35814D02*
G01X7356339Y35814D01*
G01X7355927Y330050D01*
G03X7350865Y348357I-35814J-50D01*
G01X7350865Y468255D01*
G03X7341030Y492906I-35814J0D01*
G01X7341030Y513776D01*
G03X7346314Y532499I-30530J18723D01*
G01X7346314Y619590D01*
G01X7348062Y619590D01*
G03X7377500Y604174I29438J20397D01*
G01X7622500Y604174D01*
G03X7629830Y604932I0J35814D01*
G01X7629830Y35814D01*
G01X6755814Y1380010D02*
G03X6750160Y1399323I-35814J0D01*
G01X6750160Y1609840D01*
G01X7071486Y1609840D01*
G01X7071486Y1270160D01*
G01X6882587Y1270160D01*
G03X6890815Y1293000I-27586J22840D01*
G01X6890815Y1347000D01*
G03X6855001Y1382814I-35814J0D01*
G01X6798435Y1382814D01*
G03X6769803Y1368514I0J-35814D01*
G01X6755814Y1368514D01*
G01X6755814Y1380010D01*
G01X420414Y1400000D02*
G03X35814Y1547055I-220414J0D01*
G01X35814Y3300000D01*
G02X200000Y3464186I164186J0D01*
G01X2155577Y3464186D01*
G01X2135695Y3444305D01*
G03X2121486Y3410000I34305J-34305D01*
G01X2121486Y2190000D01*
G03X2135695Y2155695I48514J0D01*
G01X2185695Y2105695D01*
G03X2220000Y2091486I34305J34305D01*
G01X2609905Y2091486D01*
G01X2631486Y2069905D01*
G01X2631486Y2025312D01*
G03X2560129Y1988514I-11486J-65312D01*
G01X2170095Y1988514D01*
G01X2114304Y2044305D01*
G03X2080000Y2058514I-34305J-34305D01*
G01X1570000Y2058514D01*
G03X1535695Y2044305I0J-48514D01*
G01X1465695Y1974304D01*
G03X1451486Y1939999I34305J-34305D01*
G01X1451486Y1768161D01*
G01X1450000Y1767213D01*
G03X1430000Y1773317I-20000J-29709D01*
G01X1370000Y1773317D01*
G03X1350000Y1767213I0J-35814D01*
G03X1330000Y1773317I-20000J-29709D01*
G01X1270000Y1773317D01*
G03X1250000Y1767213I0J-35814D01*
G03X1230000Y1773317I-20000J-29709D01*
G01X1170000Y1773317D01*
G03X1150000Y1767213I0J-35814D01*
G03X1130000Y1773317I-20000J-29709D01*
G01X1070000Y1773317D01*
G03X1050000Y1767213I0J-35814D01*
G03X1030000Y1773317I-20000J-29709D01*
G01X970001Y1773317D01*
G03X950001Y1767213I0J-35814D01*
G03X930001Y1773317I-20000J-29709D01*
G01X870001Y1773317D01*
G03X834187Y1737503I0J-35814D01*
G01X834187Y1537504D01*
G03X838799Y1519922I35814J0D01*
G01X838799Y1149987D01*
G03X856728Y1106702I61214J0D01*
G01X946715Y1016715D01*
G03X990000Y998786I43285J43285D01*
G01X1174644Y998786D01*
G01X1199860Y973570D01*
G03X1102168Y933441I-22759J-83570D01*
G03X1115887Y828723I74932J-43441D01*
G01X1115887Y802456D01*
G01X1091439Y778009D01*
G01X822814Y778009D01*
G01X822814Y964997D01*
G03X787000Y1000811I-35814J0D01*
G01X667000Y1000811D01*
G03X631186Y964997I0J-35814D01*
G01X631186Y394998D01*
G03X667000Y359184I35814J0D01*
G01X787000Y359184D01*
G03X822814Y394998I0J35814D01*
G01X822814Y655581D01*
G01X1091439Y655581D01*
G01X1108786Y638234D01*
G01X1108786Y450000D01*
G03X1126715Y406715I61214J0D01*
G01X1186715Y346715D01*
G03X1230000Y328786I43285J43285D01*
G01X1282403Y328786D01*
G03X1292989Y327186I10586J34214D01*
G01X1342988Y327186D01*
G03X1360000Y331484I0J35814D01*
G03X1363096Y330000I17012J31516D01*
G03X1341198Y297000I13916J-33000D01*
G01X1341198Y243000D01*
G03X1377012Y207186I35814J0D01*
G01X1427012Y207186D01*
G03X1455644Y221486I0J35814D01*
G01X1480000Y221486D01*
G03X1487186Y222021I0J48514D01*
G01X1487186Y204999D01*
G03X1490478Y190000I35814J0D01*
G03X1487186Y175001I32522J-14999D01*
G01X1487186Y118435D01*
G03X1523000Y82621I35814J0D01*
G01X1577000Y82621D01*
G03X1606553Y98204I0J35814D01*
G01X1613447Y98204D01*
G03X1643000Y82621I29552J20231D01*
G01X1697000Y82621D01*
G03X1726553Y98204I0J35814D01*
G01X1733447Y98204D01*
G03X1763000Y82621I29552J20231D01*
G01X1817000Y82621D01*
G03X1828529Y84528I0J35814D01*
G03X1873121Y84011I23020J62190D01*
G03X1883000Y82621I9879J34424D01*
G01X1937000Y82621D01*
G03X1972814Y118435I0J35814D01*
G01X1972814Y175001D01*
G03X1969522Y190000I-35814J0D01*
G01X1970000Y191083D01*
G03X2003000Y169185I33000J13916D01*
G01X2057000Y169185D01*
G03X2090000Y191083I0J35814D01*
G01X2090478Y190000D01*
G03X2087186Y175001I32522J-14999D01*
G01X2087186Y118435D01*
G03X2091544Y101313I35814J0D01*
G03X2093177Y35814I58456J-31313D01*
G01X200000Y35814D01*
G02X35814Y199985I0J164186D01*
G01X35814Y1252945D01*
G03X420414Y1400000I164186J147055D01*
G01X1231214Y475356D02*
G01X1231214Y561180D01*
G03X1243000Y559185I11786J33819D01*
G01X1297000Y559185D01*
G03X1330423Y582132I0J35814D01*
G01X1331484Y580000D01*
G03X1327186Y562988I31516J-17012D01*
G01X1327186Y512989D01*
G03X1363000Y477175I35814J0D01*
G01X1380133Y477175D01*
G03X1371571Y452398I39867J-27644D01*
G03X1360000Y448516I5441J-35398D01*
G03X1342988Y452814I-17012J-31516D01*
G01X1292989Y452814D01*
G03X1282403Y451214I0J-35814D01*
G01X1255356Y451214D01*
G01X1231214Y475356D01*
G01X2176156Y1818786D02*
G01X2594497Y1818786D01*
G03X2631486Y1814688I25503J61214D01*
G01X2631486Y1805477D01*
G03X2607186Y1771565I11514J-33913D01*
G01X2607186Y1714999D01*
G03X2608543Y1705233I35814J0D01*
G01X2606553Y1705233D01*
G03X2577000Y1720815I-29552J-20231D01*
G01X2523000Y1720815D01*
G03X2487186Y1685001I0J-35814D01*
G01X2487186Y1675795D01*
G01X2484968Y1673577D01*
G03X2472500Y1675818I-12468J-33574D01*
G01X2347499Y1675818D01*
G03X2311685Y1640004I0J-35814D01*
G01X2311685Y1570004D01*
G03X2347499Y1534190I35814J0D01*
G01X2472500Y1534190D01*
G03X2507401Y1561969I0J35814D01*
G03X2519308Y1570699I-22397J43034D01*
G01X2541231Y1592622D01*
G01X2577000Y1592622D01*
G03X2606553Y1608205I0J35814D01*
G01X2613447Y1608205D01*
G03X2643000Y1592622I29552J20231D01*
G01X2681486Y1592622D01*
G01X2681486Y1055807D01*
G01X2070865Y1055632D01*
G01X2070865Y1082497D01*
G03X2035051Y1118311I-35814J0D01*
G01X1870963Y1118311D01*
G01X1870963Y1145690D01*
G03X1853034Y1188975I-61214J0D01*
G01X1781821Y1260188D01*
G03X1738537Y1278117I-43285J-43285D01*
G01X1372599Y1278117D01*
G03X1355501Y1348241I-62599J21883D01*
G03X1284497Y1361214I-45501J-48241D01*
G01X1275356Y1361214D01*
G01X1261214Y1375356D01*
G01X1261214Y1432216D01*
G01X1316715Y1376715D01*
G03X1360000Y1358786I43285J43285D01*
G01X2110000Y1358786D01*
G03X2153285Y1376715I0J61214D01*
G01X2223285Y1446715D01*
G03X2241214Y1490000I-43285J43285D01*
G01X2241214Y1629186D01*
G01X2272501Y1629186D01*
G03X2308315Y1665000I0J35814D01*
G01X2308315Y1735000D01*
G03X2272501Y1770814I-35814J0D01*
G01X2161214Y1770814D01*
G01X2161214Y1803844D01*
G01X2176156Y1818786D01*
G01X1469135Y1078786D02*
G01X1469135Y1055814D01*
G01X1358460Y1055814D01*
G03X1322652Y1020634I0J-35814D01*
G03X1312485Y1034085I-53452J-29834D01*
G01X1267783Y1078786D01*
G01X1469135Y1078786D01*
G01X1640000Y764186D02*
G03X1675811Y799536I0J35814D01*
G03X1694930Y805924I-5900J49464D01*
G03X1744968Y805924I25019J43076D01*
G03X1795006Y805924I25019J43076D01*
G03X1845044Y805924I25019J43076D01*
G03X1881238Y800455I25019J43076D01*
G03X1901480Y794186I20242J29545D01*
G01X1938921Y794186D01*
G03X1939248Y782620I61079J-4059D01*
G03X1945924Y755108I49752J-2494D01*
G03X1945924Y705070I43076J-25019D01*
G03X1989000Y630236I43076J-25019D01*
G01X2029238Y630236D01*
G01X2029238Y629789D01*
G01X1989000Y629789D01*
G03X1945924Y554956I0J-49814D01*
G03X1945924Y504918I43076J-25019D01*
G03X1947204Y452797I43076J-25019D01*
G03X1895082Y454076I-27102J-41797D01*
G03X1845044Y454076I-25019J-43076D01*
G03X1795006Y454076I-25019J-43076D01*
G03X1744968Y454076I-25019J-43076D01*
G03X1694930Y454076I-25019J-43076D01*
G03X1644892Y454076I-25019J-43076D01*
G03X1592815Y452825I-25019J-43076D01*
G03X1594076Y504918I-41815J27074D01*
G03X1594076Y554956I-43076J25019D01*
G03X1594076Y604994I-43076J25019D01*
G03X1551000Y679827I-43076J25019D01*
G01X1489001Y679827D01*
G03X1477693Y678527I0J-49814D01*
G01X1434013Y678527D01*
G03X1429268Y680659I-17013J-31515D01*
G01X1430184Y681575D01*
G01X1477693Y681575D01*
G03X1489001Y680274I11308J48514D01*
G01X1551000Y680274D01*
G03X1594076Y755108I0J49814D01*
G03X1598195Y764186I-43076J25019D01*
G01X1640000Y764186D01*
G01X1548514Y1919904D02*
G01X1590095Y1961486D01*
G01X2059905Y1961486D01*
G01X2102811Y1918580D01*
G01X2056715Y1872485D01*
G03X2038786Y1829200I43285J-43285D01*
G01X2038786Y1565356D01*
G01X2024644Y1551214D01*
G01X1565813Y1551214D01*
G01X1565813Y1737503D01*
G03X1548514Y1768161I-35814J0D01*
G01X1548514Y1919904D01*
G01X2302021Y425210D02*
G01X2302021Y355814D01*
G01X2265864Y355814D01*
G03X2254304Y374305I-45864J-15814D01*
G01X2236316Y392293D01*
G03X2204051Y406459I-34305J-34305D01*
G03X2177000Y418802I-27051J-23471D01*
G01X2123000Y418802D01*
G03X2119938Y418671I0J-35814D01*
G01X2113001Y425608D01*
G01X2302021Y425210D01*
G01X2754304Y2284305D02*
G03X2720000Y2298514I-34305J-34305D01*
G01X2330095Y2298514D01*
G01X2318514Y2310095D01*
G01X2318514Y3289905D01*
G01X2340095Y3311486D01*
G01X3893057Y3311486D01*
G03X3884926Y3284600I40383J-26886D01*
G01X3884926Y2934517D01*
G01X3363570Y2934517D01*
G03X3327756Y2898687I0J-35814D01*
G01X3328036Y2290836D01*
G01X3301214Y2290836D01*
G01X3301214Y2530000D01*
G03X3283285Y2573285I-61214J0D01*
G01X3241810Y2614759D01*
G03X3293603Y2698779I-11811J65254D01*
G03X3204497Y2741227I-63603J-18766D01*
G01X2935343Y2741227D01*
G01X2883272Y2793298D01*
G03X2839987Y2811227I-43285J-43285D01*
G01X2825556Y2811227D01*
G03X2828316Y2825013I-33054J13786D01*
G01X2828316Y2875013D01*
G03X2825556Y2888798I-35814J0D01*
G01X3150332Y2888798D01*
G01X3168682Y2870449D01*
G03X3276891Y2848809I61318J25252D01*
G03X3255251Y2957018I-46891J46891D01*
G01X3218972Y2993297D01*
G03X3175688Y3011226I-43285J-43285D01*
G01X2702502Y3011226D01*
G03X2695515Y3010826I0J-61214D01*
G01X2612502Y3010826D01*
G03X2576688Y2975012I0J-35814D01*
G01X2576688Y2925012D01*
G03X2579817Y2910372I35814J0D01*
G03X2546728Y2893297I10195J-60359D01*
G01X2496715Y2843285D01*
G03X2478786Y2800000I43285J-43285D01*
G01X2478786Y2620000D01*
G03X2496715Y2576715I61214J0D01*
G01X2546715Y2526715D01*
G03X2590000Y2508786I43285J43285D01*
G01X2764644Y2508786D01*
G01X2797515Y2475915D01*
G03X2840800Y2457986I43285J43285D01*
G01X3075444Y2457986D01*
G01X3098786Y2434644D01*
G01X3098786Y2000000D01*
G03X3116715Y1956715I61214J0D01*
G01X3166715Y1906715D01*
G03X3210000Y1888786I43285J43285D01*
G01X3251669Y1888786D01*
G01X3251669Y1724921D01*
G03X3287483Y1689107I35814J0D01*
G01X3324186Y1689107D01*
G01X3324186Y1590000D01*
G03X3341486Y1559343I35814J0D01*
G01X3341486Y1460000D01*
G03X3350949Y1431214I48514J0D01*
G01X2925356Y1431214D01*
G01X2901214Y1455356D01*
G01X2901214Y1854497D01*
G03X2891769Y1921443I-61214J25503D01*
G03X2828514Y1945312I-51769J-41443D01*
G01X2828514Y2190000D01*
G03X2814305Y2224305I-48514J0D01*
G01X2754304Y2284305D01*
G01X4667054Y35814D02*
G01X2464423Y35814D01*
G01X2474305Y45695D01*
G03X2488514Y80000I-34305J34305D01*
G01X2488514Y189905D01*
G01X2490095Y191486D01*
G01X2722670Y191486D01*
G03X2803285Y196715I37330J48514D01*
G01X2861885Y255315D01*
G03X2879814Y298600I-43285J43285D01*
G01X2879814Y547962D01*
G03X2910000Y542532I30186J81184D01*
G01X3599146Y542532D01*
G03X3648786Y558168I0J86614D01*
G01X3648786Y360800D01*
G03X3666715Y317515I61214J0D01*
G01X3717515Y266715D01*
G03X3760800Y248786I43285J43285D01*
G01X4140000Y248786D01*
G03X4183285Y266715I0J61214D01*
G01X4233285Y316715D01*
G03X4251214Y360000I-43285J43285D01*
G01X4251214Y555467D01*
G03X4295336Y543386I44122J74533D01*
G01X4478273Y543386D01*
G03X4490986Y529650I31727J16614D01*
G01X4490986Y464340D01*
G03X4526497Y428527I35814J0D01*
G03X4535695Y415696I43503J21473D01*
G01X4555695Y395696D01*
G03X4579185Y382707I34305J34304D01*
G01X4579185Y343000D01*
G03X4601083Y310000I35814J0D01*
G03X4579185Y277000I13916J-33000D01*
G01X4579185Y223000D01*
G03X4614999Y187186I35814J0D01*
G01X4671564Y187186D01*
G01X4673959Y187266D01*
G03X4649199Y153200I11053J-34066D01*
G01X4649199Y66800D01*
G03X4667054Y35814I35814J0D01*
G01X2948514Y1177263D02*
G03X2995713Y1178874I21486J62737D01*
G03X3029871Y1211486I-25713J61126D01*
G01X3349905Y1211486D01*
G01X3375695Y1185696D01*
G03X3410000Y1171486I34305J34305D01*
G01X3500000Y1171486D01*
G03X3534305Y1185696I0J48514D01*
G01X3560095Y1211486D01*
G01X4088784Y1211486D01*
G03X4078486Y1181600I38216J-29886D01*
G01X4078486Y1000811D01*
G01X4017000Y1000811D01*
G03X3981186Y964997I0J-35814D01*
G01X3981186Y394998D01*
G03X3990224Y371214I35814J0D01*
G01X3786156Y371214D01*
G01X3771214Y386156D01*
G01X3771214Y710000D01*
G03X3753285Y753285I-61214J0D01*
G01X3703285Y803285D01*
G03X3660000Y821214I-43285J-43285D01*
G01X3033598Y821214D01*
G03X3015879Y887882I-63598J18786D01*
G03X2948514Y902737I-45878J-47882D01*
G01X2948514Y1177263D01*
G01X3564055Y1914901D02*
G03X3564055Y1964939I-43076J25019D01*
G03X3564055Y2014977I-43076J25019D01*
G03X3564055Y2065015I-43076J25019D01*
G03X3565140Y2113085I-43076J25019D01*
G03X3565773Y2118276I-35140J6915D01*
G03X3566506Y2160292I-44793J21796D01*
G03X3587297Y2159222I13494J59708D01*
G03X3614872Y2165895I2556J49749D01*
G03X3664910Y2165895I25019J43076D01*
G03X3739743Y2208971I25019J43076D01*
G01X3739743Y2253523D01*
G01X3740190Y2253525D01*
G01X3740190Y2208971D01*
G03X3815024Y2165895I49814J0D01*
G03X3865062Y2165895I25019J43076D01*
G03X3917183Y2167175I25019J43076D01*
G03X3915904Y2115053I41797J-27102D01*
G03X3915904Y2065015I43076J-25019D01*
G03X3915904Y2014977I43076J-25019D01*
G03X3915904Y1964939I43076J-25019D01*
G03X3915904Y1914901I43076J-25019D01*
G03X3915904Y1864863I43076J-25019D01*
G03X3917155Y1812786I43076J-25019D01*
G03X3865062Y1814047I-27074J-41815D01*
G03X3815024Y1814047I-25019J-43076D01*
G03X3764986Y1814047I-25019J-43076D01*
G03X3690152Y1770971I-25019J-43076D01*
G01X3690152Y1708972D01*
G03X3691453Y1697664I49814J0D01*
G01X3691453Y1653984D01*
G03X3688405Y1646354I31515J-17013D01*
G01X3688405Y1697664D01*
G03X3689705Y1708972I-48514J11308D01*
G01X3689705Y1770971D01*
G03X3614872Y1814047I-49814J0D01*
G03X3583934Y1820433I-25019J-43076D01*
G01X3583934Y1848840D01*
G03X3569289Y1877728I-35814J0D01*
G03X3564055Y1914901I-48309J12154D01*
G01X3789979Y1551455D02*
G03X3806991Y1547157I17012J31516D01*
G01X3856991Y1547157D01*
G03X3892805Y1582971I0J35814D01*
G01X3892805Y1600104D01*
G03X3917581Y1591542I27644J39867D01*
G03X3921464Y1579971I35398J5441D01*
G03X3917165Y1562960I31516J-17012D01*
G01X3917165Y1512960D01*
G03X3931466Y1484328I35814J0D01*
G01X3931466Y1480566D01*
G01X3929414Y1478514D01*
G01X3810795Y1478514D01*
G01X3810795Y1516971D01*
G03X3787847Y1550394I-35814J0D01*
G01X3789979Y1551455D01*
G01X4595677Y2699174D02*
G03X4484790Y2738514I-65676J-9174D01*
G01X4480000Y2738514D01*
G03X4445695Y2724305I0J-48514D01*
G01X4431724Y2710333D01*
G03X4397000Y2737379I-34724J-8769D01*
G01X4343000Y2737379D01*
G03X4313447Y2721796I0J-35814D01*
G01X4096813Y2721796D01*
G01X4078494Y2740115D01*
G01X4078494Y2776664D01*
G01X4089980Y2776664D01*
G03X4125794Y2812478I0J35814D01*
G01X4125794Y2932478D01*
G03X4089980Y2968292I-35814J0D01*
G01X3981954Y2968292D01*
G01X3981954Y3261486D01*
G01X5137314Y3261486D01*
G01X5181486Y3217314D01*
G01X5181486Y2340000D01*
G03X5195695Y2305695I48514J0D01*
G01X5200177Y2301214D01*
G01X5106314Y2301214D01*
G01X5106314Y2337501D01*
G03X5100689Y2356769I-35814J0D01*
G03X5115814Y2386003I-20689J29234D01*
G01X5115814Y2620003D01*
G03X5080000Y2655817I-35814J0D01*
G01X4961214Y2655817D01*
G01X4961214Y2664841D01*
G03X4961214Y2715847I-61214J25503D01*
G01X4961214Y2936724D01*
G03X4990814Y2971995I-6214J35271D01*
G01X4990814Y3221994D01*
G03X4955000Y3257808I-35814J0D01*
G01X4845000Y3257808D01*
G03X4809186Y3221994I0J-35814D01*
G01X4809186Y2971995D01*
G03X4838786Y2936724I35814J0D01*
G01X4838786Y2715847D01*
G03X4838786Y2664841I61214J-25503D01*
G01X4838786Y2655817D01*
G01X4731217Y2655817D01*
G01X4731217Y2936724D01*
G03X4760817Y2971995I-6214J35271D01*
G01X4760817Y3221994D01*
G03X4725003Y3257808I-35814J0D01*
G01X4615003Y3257808D01*
G03X4579189Y3221994I0J-35814D01*
G01X4579189Y2971995D01*
G03X4608789Y2936724I35814J0D01*
G01X4608789Y2358676D01*
G01X4580000Y2329914D01*
G01X4530000Y2329914D01*
G03X4499814Y2324484I0J-86614D01*
G01X4499814Y2630955D01*
G03X4595677Y2699174I30186J59045D01*
G01X4042794Y1512960D02*
G01X4042794Y1562960D01*
G03X4038496Y1579971I-35814J0D01*
G03X4039980Y1583067I-31516J17012D01*
G03X4072979Y1561169I33000J13916D01*
G01X4118786Y1561169D01*
G01X4118786Y1446156D01*
G01X4103844Y1431214D01*
G01X4018679Y1431214D01*
G03X4028494Y1460471I-38700J29257D01*
G01X4028494Y1484328D01*
G03X4042794Y1512960I-21514J28632D01*
G01X4178897Y2189971D02*
G03X4200795Y2222971I-13916J33000D01*
G01X4200795Y2276971D01*
G03X4178897Y2309971I-35814J0D01*
G01X4179979Y2310449D01*
G03X4194978Y2307157I14999J32522D01*
G01X4251544Y2307157D01*
G03X4280176Y2321457I0J35814D01*
G01X4319934Y2321457D01*
G01X4321486Y2319905D01*
G01X4321486Y2060095D01*
G01X4319876Y2058485D01*
G01X4280176Y2058485D01*
G03X4271775Y2066524I-28632J-21514D01*
G01X4271775Y2073418D01*
G03X4287358Y2102971I-20231J29552D01*
G01X4287358Y2156971D01*
G03X4251544Y2192785I-35814J0D01*
G01X4194978Y2192785D01*
G03X4179979Y2189493I0J-35814D01*
G01X4178897Y2189971D01*
G01X4731248Y1778757D02*
G03X4756617Y1840003I-61245J61245D01*
G01X4756617Y1901596D01*
G03X4758318Y1912500I-34113J10905D01*
G01X4758318Y2159000D01*
G03X4753164Y2177508I-35814J0D01*
G03X4731248Y2214542I-83161J-24211D01*
G01X4684530Y2261261D01*
G01X4713288Y2290018D01*
G03X4731217Y2333303I-43285J43285D01*
G01X4731217Y2350189D01*
G01X4896009Y2350189D01*
G03X4893686Y2337501I33491J-12688D01*
G01X4893686Y2202500D01*
G03X4894520Y2194814I35814J0D01*
G01X4847500Y2194814D01*
G03X4811686Y2159000I0J-35814D01*
G01X4811686Y1912500D01*
G03X4838786Y1877763I35814J0D01*
G01X4838786Y1623314D01*
G01X4723000Y1623314D01*
G03X4687186Y1587500I0J-35814D01*
G01X4687186Y1341000D01*
G03X4723000Y1305186I35814J0D01*
G01X4894520Y1305186D01*
G03X4893686Y1297501I34980J-7686D01*
G01X4893686Y1162500D01*
G03X4929500Y1126686I35814J0D01*
G01X4935819Y1126686D01*
G03X4952602Y1063622I64181J-16686D01*
G03X5015286Y1045472I47398J46379D01*
G03X5001198Y1017000I21726J-28472D01*
G01X5001198Y963000D01*
G03X5037012Y927186I35814J0D01*
G01X5049629Y927186D01*
G01X5049629Y889412D01*
G03X5050137Y882409I48514J0D01*
G01X5050137Y854412D01*
G03X5085951Y818598I35814J0D01*
G01X5110000Y818598D01*
G03X5114186Y807005I35276J6186D01*
G01X5114186Y569420D01*
G03X5125048Y543728I35814J0D01*
G01X5125048Y533921D01*
G03X5127417Y521113I35814J0D01*
G01X5126759Y519241D01*
G03X5110335Y523229I-16423J-31826D01*
G01X5085951Y523229D01*
G03X5050137Y487415I0J-35814D01*
G01X5050137Y459417D01*
G03X5049629Y452415I48006J-7002D01*
G01X5049629Y401857D01*
G03X5050133Y394884I48514J0D01*
G03X5041516Y397093I-13133J-33319D01*
G01X5014791Y423819D01*
G03X4980486Y438029I-34305J-34304D01*
G01X4900580Y438029D01*
G01X4898936Y439673D01*
G01X4898936Y450755D01*
G03X4921236Y483921I-13514J33166D01*
G01X4921236Y508305D01*
G03X4918867Y521113I-35814J0D01*
G03X4921123Y531078I-33445J12808D01*
G03X4935814Y560000I-21123J28922D01*
G01X4935814Y770000D01*
G03X4921236Y798839I-35814J0D01*
G01X4921236Y808304D01*
G03X4885422Y844118I-35814J0D01*
G01X4815422Y844118D01*
G03X4779608Y808304I0J-35814D01*
G01X4779608Y806011D01*
G01X4715814Y806116D01*
G01X4715814Y1100483D01*
G03X4679898Y1136297I-35814J0D01*
G01X4676614Y1136288D01*
G01X4676614Y1724124D01*
G01X4731248Y1778757D01*
G01X5824186Y35814D02*
G01X4783619Y35814D01*
G03X4801474Y66800I-17959J30986D01*
G01X4801474Y153200D01*
G03X4797737Y169128I-35814J0D01*
G01X4804305Y175696D01*
G03X4815080Y192073I-34305J34305D01*
G03X4832814Y222988I-18080J30915D01*
G01X4832814Y272988D01*
G03X4831238Y283498I-35814J0D01*
G01X4835986Y283498D01*
G03X4863000Y271198I27014J23514D01*
G01X4917000Y271198D01*
G03X4949577Y292132I0J35814D01*
G03X4983000Y269185I33423J12867D01*
G01X5037000Y269185D01*
G03X5070423Y292132I0J35814D01*
G03X5103000Y271198I32577J14880D01*
G01X5157000Y271198D01*
G03X5189577Y292132I0J35814D01*
G01X5190478Y290000D01*
G03X5187186Y275001I32522J-14999D01*
G01X5187186Y218435D01*
G03X5223000Y182621I35814J0D01*
G01X5277000Y182621D01*
G03X5306553Y198204I0J35814D01*
G01X5313447Y198204D01*
G03X5343000Y182621I29552J20231D01*
G01X5397000Y182621D01*
G03X5432814Y218435I0J35814D01*
G01X5432814Y265782D01*
G01X5824186Y265782D01*
G01X5824186Y35814D01*
G01X4961214Y1877763D02*
G03X4988315Y1912500I-8713J34738D01*
G01X4988315Y2159000D01*
G03X4987480Y2166686I-35814J0D01*
G01X5070500Y2166686D01*
G03X5097339Y2178786I0J35814D01*
G01X5313159Y2178786D01*
G03X5302095Y2136550I55041J-36986D01*
G03X5319687Y2096590I66106J5250D01*
G01X5319687Y1788514D01*
G01X5175400Y1788514D01*
G03X5141096Y1774305I0J-48514D01*
G01X5105695Y1738905D01*
G03X5091486Y1704600I34304J-34305D01*
G01X5091486Y1620253D01*
G03X5077000Y1623314I-14486J-32754D01*
G01X4961214Y1623314D01*
G01X4961214Y1877763D01*
G01X5728604Y1688786D02*
G03X5771889Y1706715I0J61214D01*
G01X5790000Y1724826D01*
G01X5808111Y1706715D01*
G03X5851396Y1688786I43285J43285D01*
G01X6020000Y1688786D01*
G03X6063285Y1706715I0J61214D01*
G01X6123285Y1766715D01*
G03X6141214Y1810000I-43285J43285D01*
G01X6141214Y1829312D01*
G03X6151486Y1814790I58786J30688D01*
G01X6151486Y1760000D01*
G03X6165695Y1725695I48514J0D01*
G01X6206032Y1685359D01*
G03X6240337Y1671150I34305J34305D01*
G01X6506935Y1671150D01*
G03X6514796Y1655814I34865J8190D01*
G01X6228896Y1655814D01*
G03X6193083Y1619880I0J-35814D01*
G01X6194186Y1289880D01*
G03X6230320Y1254187I35814J120D01*
G01X6235682Y1254235D01*
G01X6235682Y925814D01*
G01X5985814Y925814D01*
G01X5985814Y990000D01*
G03X5950000Y1025814I-35814J0D01*
G01X5676315Y1025814D01*
G01X5676315Y1147501D01*
G03X5675814Y1153468I-35814J0D01*
G01X5675814Y1160000D01*
G03X5640000Y1195814I-35814J0D01*
G01X5270000Y1195814D01*
G03X5234186Y1160000I0J-35814D01*
G01X5234186Y1054249D01*
G01X5145704Y1055306D01*
G03X5115254Y1039023I-428J-35811D01*
G03X5087012Y1052814I-28243J-22023D01*
G01X5037012Y1052814D01*
G03X5033233Y1052614I0J-35814D01*
G03X5064181Y1126686I-33233J57386D01*
G01X5070500Y1126686D01*
G03X5106314Y1162500I0J35814D01*
G01X5106314Y1297501D01*
G03X5101707Y1315073I-35814J0D01*
G03X5112814Y1341000I-24707J25927D01*
G01X5112814Y1408577D01*
G01X5137472Y1383919D01*
G03X5173000Y1352621I35528J4516D01*
G01X5227000Y1352621D01*
G03X5256553Y1368204I0J35814D01*
G01X5274186Y1368204D01*
G01X5274186Y1289990D01*
G03X5310000Y1254176I35814J0D01*
G01X5390000Y1254176D01*
G03X5425814Y1289990I0J35814D01*
G01X5425814Y1369990D01*
G03X5398272Y1404835I-35814J0D01*
G03X5396220Y1414740I-48272J-4835D01*
G03X5425814Y1450010I-6221J35270D01*
G01X5425814Y1530010D01*
G03X5422861Y1544251I-35814J0D01*
G01X5431023Y1552414D01*
G03X5436619Y1559123I-34305J34305D01*
G03X5440000Y1560478I-11618J33877D01*
G03X5443381Y1559123I14999J32522D01*
G03X5448977Y1552414I39901J27596D01*
G01X5457140Y1544251D01*
G03X5454186Y1530010I32861J-14241D01*
G01X5454186Y1450010D01*
G03X5487983Y1414253I35814J0D01*
G03X5483959Y1405291I42017J-24253D01*
G03X5454186Y1369990I6041J-35301D01*
G01X5454186Y1289990D01*
G03X5490000Y1254176I35814J0D01*
G01X5570000Y1254176D01*
G03X5605814Y1289990I0J35814D01*
G01X5605814Y1368204D01*
G01X5623447Y1368204D01*
G03X5653000Y1352621I29552J20231D01*
G01X5707000Y1352621D01*
G03X5742814Y1388435I0J35814D01*
G01X5742814Y1445001D01*
G03X5707000Y1480815I-35814J0D01*
G01X5653000Y1480815D01*
G03X5623447Y1465232I0J-35814D01*
G01X5605814Y1465232D01*
G01X5605814Y1530010D01*
G03X5571080Y1565808I-35814J0D01*
G01X5570396Y1566866D01*
G03X5583285Y1576715I-30396J53134D01*
G01X5613285Y1606715D01*
G03X5631214Y1650000I-43285J43285D01*
G01X5631214Y1688786D01*
G01X5728604Y1688786D01*
G01X5378514Y2895012D02*
G01X5378514Y2971347D01*
G03X5400000Y2964186I21486J28653D01*
G01X5600000Y2964186D01*
G03X5635814Y3000000I0J35814D01*
G01X5635814Y3189586D01*
G01X5885994Y3189586D01*
G01X5885994Y3161077D01*
G03X5861198Y3127000I11017J-34077D01*
G01X5861198Y3073000D01*
G03X5888953Y3038104I35814J0D01*
G03X5894939Y3010325I274704J44658D01*
G03X5894581Y2982079I32730J-14540D01*
G01X5916227Y2929819D01*
G03X5925009Y2917222I33088J13705D01*
G03X5927707Y2902105I35786J-1411D01*
G01X5949354Y2849845D01*
G03X5979119Y2827891I33088J13705D01*
G03X6005520Y2795814I309014J227431D01*
G01X5987367Y2795814D01*
G03X5977793Y2808226I-52858J-30873D01*
G01X5892734Y2893285D01*
G03X5849449Y2911214I-43285J-43285D01*
G01X5842150Y2911214D01*
G03X5831564Y2912814I-10586J-34214D01*
G01X5774999Y2912814D01*
G03X5760000Y2909522I0J-35814D01*
G03X5745001Y2912814I-14999J-32522D01*
G01X5688435Y2912814D01*
G03X5677850Y2911214I0J-35814D01*
G01X5420000Y2911214D01*
G03X5378514Y2895012I0J-61214D01*
G01X5416715Y1766222D02*
G01X5416715Y2026716D01*
G01X5453115Y1990315D01*
G03X5496400Y1972386I43285J43285D01*
G01X5703844Y1972386D01*
G01X5728786Y1947444D01*
G01X5728786Y1836751D01*
G01X5703249Y1811214D01*
G01X5598158Y1811214D01*
G03X5554873Y1793285I0J-61214D01*
G01X5526715Y1765127D01*
G03X5508786Y1721842I43285J-43285D01*
G01X5508786Y1709823D01*
G01X5494305Y1724305D01*
G03X5460000Y1738514I-34305J-34305D01*
G01X5408024Y1738514D01*
G03X5416715Y1766222I-39823J27708D01*
G01X5451214Y2787174D02*
G01X5497000Y2787174D01*
G03X5507623Y2788786I0J35814D01*
G01X5541486Y2788786D01*
G01X5541486Y2750197D01*
G03X5527186Y2721565I21514J-28632D01*
G01X5527186Y2664999D01*
G03X5528208Y2656502I35814J0D01*
G01X5524014Y2656502D01*
G03X5497000Y2668802I-27014J-23514D01*
G01X5451214Y2668802D01*
G01X5451214Y2787174D01*
G01X5619905Y2201486D02*
G01X5621010Y2200381D01*
G03X5642759Y2187824I34305J34305D01*
G03X5673000Y2171198I30241J19187D01*
G01X5727000Y2171198D01*
G03X5743845Y2175406I0J35814D01*
G03X5758266Y2138514I66155J4594D01*
G01X5581734Y2138514D01*
G03X5592737Y2201486I-51735J41486D01*
G01X5619905Y2201486D01*
G01X5677850Y2788786D02*
G03X5688435Y2787186I10586J34214D01*
G01X5745001Y2787186D01*
G03X5760000Y2790478I0J35814D01*
G03X5774999Y2787186I14999J32522D01*
G01X5825693Y2787186D01*
G01X5854186Y2758693D01*
G01X5854186Y2708514D01*
G01X5733677Y2708514D01*
G03X5639909Y2749094I-63677J-18514D01*
G01X5638514Y2750197D01*
G01X5638514Y2788786D01*
G01X5677850Y2788786D01*
G01X6115324Y2574676D02*
G01X6175525Y2634876D01*
G03X6183859Y2647963I-25324J25324D01*
G03X6186967Y2650729I-22217J28090D01*
G01X6196349Y2660111D01*
G01X6251784Y2604676D01*
G03X6268535Y2595227I25324J25324D01*
G01X6283744Y2580019D01*
G03X6292751Y2573462I25324J25324D01*
G03X6299308Y2564454I31881J16317D01*
G01X6319108Y2544654D01*
G03X6328104Y2538104I25324J25324D01*
G03X6334654Y2529108I31875J16328D01*
G01X6354454Y2509308D01*
G03X6363462Y2502751I25324J25324D01*
G03X6370019Y2493744I31881J16317D01*
G01X6389818Y2473944D01*
G03X6398814Y2467393I25324J25324D01*
G03X6405365Y2458397I31875J16328D01*
G01X6425165Y2438598D01*
G03X6434172Y2432041I25324J25324D01*
G03X6440729Y2423033I31881J16317D01*
G01X6453762Y2410000D01*
G01X6440729Y2396967D01*
G03X6434172Y2387959I25324J-25324D01*
G03X6425165Y2381402I16317J-31881D01*
G01X6405365Y2361603D01*
G03X6398814Y2352607I25324J-25324D01*
G03X6389818Y2346056I16328J-31875D01*
G01X6370019Y2326256D01*
G03X6363462Y2317249I25324J-25324D01*
G03X6354454Y2310692I16317J-31881D01*
G01X6334654Y2290892D01*
G03X6328104Y2281896I25324J-25324D01*
G03X6319108Y2275346I16328J-31875D01*
G01X6299308Y2255546D01*
G03X6292751Y2246538I25324J-25324D01*
G03X6283744Y2239981I16317J-31881D01*
G01X6263944Y2220182D01*
G03X6257393Y2211186I25324J-25324D01*
G03X6248397Y2204635I16328J-31875D01*
G01X6228598Y2184835D01*
G03X6222041Y2175828I25324J-25324D01*
G03X6213033Y2169271I16317J-31881D01*
G01X6200000Y2156238D01*
G01X6186967Y2169271D01*
G03X6177959Y2175828I-25324J-25324D01*
G03X6171402Y2184835I-31881J-16317D01*
G01X6151603Y2204635D01*
G03X6142607Y2211186I-25324J-25324D01*
G03X6136056Y2220182I-31875J-16328D01*
G01X6116256Y2239981D01*
G03X6107249Y2246538I-25324J-25324D01*
G03X6100692Y2255546I-31881J-16317D01*
G01X6080892Y2275346D01*
G03X6071896Y2281896I-25324J-25324D01*
G03X6065346Y2290892I-31875J-16328D01*
G01X6045546Y2310692D01*
G03X6036538Y2317249I-25324J-25324D01*
G03X6029981Y2326256I-31881J-16317D01*
G01X6010182Y2346056D01*
G03X6001186Y2352607I-25324J-25324D01*
G03X5994635Y2361603I-31875J-16328D01*
G01X5974835Y2381402D01*
G03X5965828Y2387959I-25324J-25324D01*
G03X5959271Y2396967I-31881J-16317D01*
G01X5946238Y2410000D01*
G01X5959271Y2423033D01*
G03X5965828Y2432041I-25324J25324D01*
G03X5974835Y2438598I-16317J31881D01*
G01X5994635Y2458397D01*
G03X6001186Y2467393I-25324J25324D01*
G03X6010182Y2473944I-16328J31875D01*
G01X6029981Y2493744D01*
G03X6036538Y2502751I-25324J25324D01*
G03X6045546Y2509308I-16317J31881D01*
G01X6065346Y2529108D01*
G03X6071896Y2538104I-25324J25324D01*
G03X6080892Y2544654I-16328J31875D01*
G01X6100692Y2564454D01*
G03X6102546Y2566455I-25324J25324D01*
G03X6115324Y2574676I-12546J33545D01*
G01X7800000Y35814D02*
G01X7675804Y35814D01*
G01X7675804Y556365D01*
G03X7688905Y565695I-21204J43635D01*
G01X7714305Y591095D01*
G03X7728514Y625400I-34305J34305D01*
G01X7728514Y1024600D01*
G03X7714305Y1058905I-48514J0D01*
G01X7688905Y1084305D01*
G03X7654600Y1098514I-34305J-34305D01*
G01X7200095Y1098514D01*
G01X7168514Y1130095D01*
G01X7168514Y1680000D01*
G03X7154305Y1714305I-48514J0D01*
G01X7114641Y1753968D01*
G03X7080336Y1768178I-34305J-34305D01*
G01X6813065Y1768178D01*
G03X6785734Y1795000I-34865J-8190D01*
G03X6814015Y1830013I-7534J35013D01*
G01X6814015Y1910660D01*
G03X6812883Y1919592I-35814J0D01*
G03X6817498Y1922405I-16283J31898D01*
G03X6838396Y1915676I20898J29085D01*
G01X6891596Y1915676D01*
G03X6927410Y1951490I0J35814D01*
G01X6927410Y1988204D01*
G01X6943447Y1988204D01*
G03X6973000Y1972621I29552J20231D01*
G01X7027000Y1972621D01*
G03X7062814Y2008435I0J35814D01*
G01X7062814Y2065001D01*
G03X7059522Y2080000I-35814J0D01*
G03X7062814Y2094999I-32522J14999D01*
G01X7062814Y2151564D01*
G03X7057932Y2169616I-35814J0D01*
G01X7057932Y2187186D01*
G01X7111564Y2187186D01*
G03X7123366Y2189186I0J35814D01*
G01X7150000Y2189186D01*
G03X7193002Y2206998I0J60814D01*
G01X7235190Y2249186D01*
G01X7483557Y2249186D01*
G03X7535503Y2248786I26443J60814D01*
G01X7584497Y2248786D01*
G03X7636406Y2249170I25503J61214D01*
G01X7769141Y2249170D01*
G01X7770854Y2249194D01*
G01X7813153Y2249194D01*
G03X7933199Y2225297I64749J11792D01*
G03X7861979Y2324845I-55297J35689D01*
G01X7861979Y2335008D01*
G03X7859693Y2347597I-35814J0D01*
G03X7861903Y2359981I-33605J12384D01*
G01X7861903Y2389981D01*
G03X7860527Y2399813I-35814J0D01*
G03X7862004Y2409994I-34336J10181D01*
G01X7862004Y2427304D01*
G03X7862004Y2622683I-12814J97690D01*
G01X7862004Y2639993D01*
G03X7860534Y2650149I-35814J0D01*
G03X7861903Y2659955I-34445J9806D01*
G01X7861903Y2689955D01*
G03X7860523Y2699800I-35814J0D01*
G03X7862004Y2709993I-34333J10193D01*
G01X7862004Y2739993D01*
G03X7859740Y2752527I-35814J0D01*
G03X7861979Y2764992I-33575J12465D01*
G01X7861979Y2775130D01*
G03X7933206Y2874667I15923J63859D01*
G03X7813158Y2850806I-55304J-35678D01*
G01X7712165Y2850806D01*
G01X7710850Y2850782D01*
G01X7636517Y2850782D01*
G03X7584497Y2851214I-26517J-60782D01*
G01X7535503Y2851214D01*
G03X7484497Y2851214I-25503J-61214D01*
G01X7235356Y2851214D01*
G01X7193285Y2893285D01*
G03X7150000Y2911214I-43285J-43285D01*
G01X7123788Y2911214D01*
G03X7131214Y2975503I-53788J38786D01*
G01X7131214Y3040000D01*
G03X7113285Y3083285I-61214J0D01*
G01X7063285Y3133285D01*
G03X7020000Y3151214I-43285J-43285D01*
G01X6490000Y3151214D01*
G03X6446715Y3133285I0J-61214D01*
G01X6406715Y3093285D01*
G03X6388786Y3050000I43285J-43285D01*
G01X6388786Y3048855D01*
G03X6384676Y3045324I21214J-28855D01*
G01X6174676Y2835324D01*
G03X6164186Y2810000I25324J-25324D01*
G01X6164186Y2763758D01*
G01X6160804Y2767140D01*
G01X6159481Y2768397D01*
G02X6153822Y2775075I355961J307418D01*
G03X6152387Y2824203I-26759J23804D01*
G01X6114203Y2862387D01*
G03X6071043Y2868120I-25324J-25324D01*
G02X6066508Y2873511I217089J187202D01*
G03X6065419Y2897921I-34177J10704D01*
G01X6043772Y2950181D01*
G03X6034991Y2962778I-33088J-13705D01*
G03X6032293Y2977895I-35786J1411D01*
G01X6010646Y3030155D01*
G03X5985098Y3051461I-33088J-13705D01*
G02X5982764Y3070896I178559J31301D01*
G01X5982825Y3073000D01*
G01X5982825Y3095536D01*
G01X5982886Y3096361D01*
G03X5983022Y3100000I-48377J3639D01*
G01X5983022Y3189586D01*
G01X8364186Y3189586D01*
G01X8364186Y1785814D01*
G01X8000000Y1785814D01*
G03X7964186Y1750000I0J-35814D01*
G01X7964186Y1547055D01*
G03X7579586Y1400000I-164186J-147055D01*
G03X7964186Y1252944I220414J0D01*
G01X7964186Y200000D01*
G02X7800000Y35814I-164186J0D01*
G01X7734196Y1039992D02*
G03X7895826Y1039992I80815J0D01*
G03X7734196Y1039992I-80815J0D01*
G01X7734196Y360008D02*
G03X7895826Y360008I80815J0D01*
G03X7734196Y360008I-80815J0D01*
G01X6604186Y35814D02*
G01X6204650Y35814D01*
G01X6204650Y733744D01*
G01X6243001Y733744D01*
G03X6271936Y684643I54000J-1255D01*
G01X6271936Y658653D01*
G03X6269152Y615778I61214J-25503D01*
G03X6234950Y580000I1612J-35778D01*
G01X6234950Y120000D01*
G03X6270764Y84186I35814J0D01*
G01X6440000Y84186D01*
G03X6475814Y120000I0J35814D01*
G01X6475814Y194186D01*
G01X6604186Y194186D01*
G01X6604186Y35814D01*
G01X6248514Y1780095D02*
G01X6248514Y1814790D01*
G03X6264476Y1875505I-48514J45210D01*
G01X6286718Y1875505D01*
G03X6330003Y1893434I0J61214D01*
G01X6373871Y1937302D01*
G03X6391801Y1980587I-43285J43285D01*
G01X6391801Y2024644D01*
G01X6612590Y2245434D01*
G01X6612590Y2181309D01*
G03X6648404Y2145495I35814J0D01*
G01X6648783Y2145495D01*
G03X6643727Y2122336I61217J-25495D01*
G01X6640699Y2119309D01*
G03X6626533Y2087051I34305J-34305D01*
G03X6612590Y2058691I21871J-28361D01*
G01X6612590Y1951490D01*
G03X6648404Y1915676I35814J0D01*
G01X6656339Y1915676D01*
G03X6656024Y1912319I35461J-5016D01*
G03X6646032Y1904641I24312J-41983D01*
G01X6625696Y1884305D01*
G03X6611486Y1850000I34304J-34305D01*
G01X6611486Y1795801D01*
G01X6541800Y1795801D01*
G03X6506935Y1768178I0J-35814D01*
G01X6260432Y1768178D01*
G01X6248514Y1780095D01*
G01X6523421Y2920325D02*
G03X6536882Y2894509I47766J8489D01*
G01X6537271Y2894120D01*
G01X6534517Y2892979D01*
G03X6514663Y2847386I13705J-33088D01*
G03X6375814Y2751632I562452J-964129D01*
G01X6375814Y2806040D01*
G01X6497469Y2927695D01*
G03X6507958Y2953019I-25324J25324D01*
G01X6507958Y2957654D01*
G01X6523421Y2920325D01*
G01X6460000Y863204D02*
G03X6495814Y899018I0J35814D01*
G01X6495814Y936712D01*
G03X6529987Y947557I1674J53988D01*
G03X6594998Y947567I32499J43143D01*
G03X6637646Y937646I32512J43134D01*
G03X6690701Y873496I53055J-10135D01*
G01X6762999Y873496D01*
G03X6817006Y928397I0J54014D01*
G01X6821486Y932877D01*
G01X6821486Y895644D01*
G03X6815624Y890103I21514J-28632D01*
G03X6787707Y876316I6387J-48092D01*
G01X6762893Y851502D01*
G01X6690701Y851502D01*
G03X6637584Y787679I0J-54014D01*
G03X6623377Y759117I21607J-28562D01*
G01X6623377Y736032D01*
G01X6598027Y736032D01*
G03X6562213Y700218I0J-35814D01*
G01X6562213Y615814D01*
G01X6551502Y615814D01*
G01X6551502Y669299D01*
G03X6464989Y712443I-54014J0D01*
G03X6422354Y722354I-32499J-43143D01*
G03X6422721Y740470I-53055J10135D01*
G03X6437641Y769478I-20894J29088D01*
G01X6437850Y863204D01*
G01X6460000Y863204D01*
G01X6475348Y2638635D02*
G02X6639960Y2725782I774447J-1263806D01*
G02X6692992Y2730375I33057J-73230D01*
G01X6714018Y2679615D01*
G03X6760811Y2660233I33088J13705D01*
G01X6825482Y2687021D01*
G03X6847564Y2721508I-13705J33088D01*
G03X6894968Y2777329I-83430J118890D01*
G01X6914295Y2785334D01*
G03X6933677Y2832127I-13705J33088D01*
G01X6914543Y2878321D01*
G03X6867750Y2897704I-33088J-13705D01*
G01X6817860Y2877039D01*
G03X6798477Y2830245I13705J-33088D01*
G01X6801182Y2823715D01*
G03X6767457Y2827107I-20020J-29696D01*
G01X6741280Y2816264D01*
G03X6675173Y2829913I-68263J-163711D01*
G01X6645982Y2900385D01*
G03X6644380Y2903747I-33088J-13705D01*
G01X6644380Y2904134D01*
G03X6636030Y2931346I-48514J0D01*
G03X6637704Y2962250I-31414J17199D01*
G01X6617039Y3012140D01*
G03X6602963Y3028786I-33088J-13705D01*
G01X6994644Y3028786D01*
G01X7008786Y3014644D01*
G01X7008786Y2975503D01*
G03X7027088Y2899442I61214J-25503D01*
G03X7019185Y2877000I27911J-22442D01*
G01X7019185Y2823000D01*
G03X7041083Y2790000I35814J0D01*
G03X7019185Y2757000I13916J-33000D01*
G01X7019185Y2703000D01*
G03X7041083Y2670000I35814J0D01*
G01X7040000Y2669522D01*
G03X7025001Y2672814I-14999J-32522D01*
G01X6968435Y2672814D01*
G03X6932621Y2637000I0J-35814D01*
G01X6932621Y2618514D01*
G01X6536767Y2618514D01*
G03X6502463Y2604304I0J-48514D01*
G01X6477572Y2579413D01*
G01X6466630Y2590355D01*
G03X6457622Y2596912I-25324J-25324D01*
G03X6451066Y2605920I-31881J-16317D01*
G01X6441669Y2615316D01*
G02X6475348Y2638635I225483J-289681D01*
G01X6662610Y2376040D02*
G01X6684497Y2376040D01*
G03X6760222Y2393950I25503J61214D01*
G03X6766795Y2471486I-50222J43304D01*
G01X6932621Y2471486D01*
G01X6932621Y2463000D01*
G03X6968435Y2427186I35814J0D01*
G01X7025001Y2427186D01*
G03X7040000Y2430478I0J35814D01*
G01X7041083Y2430000D01*
G03X7019185Y2397000I13916J-33000D01*
G01X7019185Y2343000D01*
G03X7041083Y2310000I35814J0D01*
G01X7040000Y2309522D01*
G03X7025001Y2312814I-14999J-32522D01*
G01X6968435Y2312814D01*
G03X6957850Y2311214I0J-35814D01*
G01X6926214Y2311214D01*
G01X6926214Y2322403D01*
G03X6927814Y2332988I-34214J10586D01*
G01X6927814Y2382988D01*
G03X6892000Y2418802I-35814J0D01*
G01X6871987Y2418802D01*
G03X6858013Y2418802I-6987J-60814D01*
G01X6838000Y2418802D01*
G03X6802186Y2382988I0J-35814D01*
G01X6802186Y2332988D01*
G03X6803786Y2322403I35814J0D01*
G01X6803786Y2297719D01*
G03X6802582Y2288510I34610J-9209D01*
G01X6802582Y2181309D01*
G03X6805169Y2167943I35814J0D01*
G03X6778286Y2154305I7421J-47943D01*
G01X6770695Y2146714D01*
G03X6737406Y2180386I-60695J-26714D01*
G01X6737418Y2181309D01*
G01X6737418Y2288510D01*
G03X6701604Y2324324I-35814J0D01*
G01X6648404Y2324324D01*
G03X6641214Y2323595I0J-35814D01*
G01X6641214Y2354644D01*
G01X6662610Y2376040D01*
G01X6918514Y954790D02*
G03X6922481Y1040537I-48514J45210D01*
G03X6838514Y1058363I-52481J-40537D01*
G01X6838514Y1082495D01*
G01X6861023Y1105004D01*
G03X6875232Y1139309I-34304J34305D01*
G01X6875232Y1143447D01*
G03X6890815Y1173000I-20231J29552D01*
G01X6890815Y1224186D01*
G01X7071486Y1224186D01*
G01X7071486Y1110000D01*
G03X7085695Y1075695I48514J0D01*
G01X7104978Y1056413D01*
G03X7074396Y1021110I5232J-35430D01*
G01X7072995Y626161D01*
G01X6825814Y626161D01*
G01X6825814Y760000D01*
G03X6822858Y774249I-35814J0D01*
G01X6831652Y783043D01*
G03X6843000Y781198I11348J33969D01*
G01X6897000Y781198D01*
G03X6932814Y817012I0J35814D01*
G01X6932814Y867011D01*
G03X6918514Y895644I-35814J0D01*
G01X6918514Y954790D01*
G04 Copper End*

G04 PolygonModel Start*
G54D11*
G01X7849190Y2474981D02*
G03X7849190Y2575006I0J50013D01*
G01X7709190Y2624993D02*
G03X7709190Y2524968I0J-50013D01*

G04 Pad Start*
G54D12*
G01X7250000Y800000D03*
G01X7250000Y1200000D03*
G54D13*
G01X3152995Y2790000D03*
G01X3687005Y2790000D03*
G54D14*
G01X2640000Y1187005D03*
G01X2640000Y652995D03*
G54D15*
G01X2670000Y1743282D03*
G01X2670000Y1656719D03*
G01X2550000Y1656719D03*
G01X2550000Y1743282D03*
G54D16*
G01X2497498Y3194995D03*
G01X2497498Y2405005D03*
G54D17*
G01X2702502Y2650013D03*
G01X2702502Y2750013D03*
G01X2702502Y2850013D03*
G01X2702502Y2950012D03*
G54D18*
G01X5940000Y3360000D03*
G01X6440000Y3360000D03*
G54D20*
G01X1590000Y1317879D03*
G01X1590000Y1022121D03*
G01X1950000Y1317879D03*
G01X1950000Y1022121D03*
G54D21*
G01X3052101Y2169971D03*
G01X3347858Y2169971D03*
G01X3052101Y1809971D03*
G01X3347858Y1809971D03*
G54D22*
G01X3739967Y1989958D03*
G54D23*
G01X3489980Y1839844D03*
G01X3489980Y1889882D03*
G01X3489980Y1939920D03*
G01X3489980Y1989958D03*
G01X3489980Y2039996D03*
G01X3489980Y2090034D03*
G01X3489980Y2140072D03*
G54D24*
G01X3589853Y2239971D03*
G01X3639891Y2239971D03*
G01X3689929Y2239971D03*
G01X3739967Y2239971D03*
G01X3790005Y2239971D03*
G01X3840043Y2239971D03*
G01X3890081Y2239971D03*
G54D23*
G01X3989979Y2140072D03*
G01X3989979Y2090034D03*
G01X3989979Y2039996D03*
G01X3989979Y1989958D03*
G01X3989979Y1939920D03*
G01X3989979Y1889882D03*
G01X3989979Y1839844D03*
G54D24*
G01X3890081Y1739972D03*
G01X3840043Y1739972D03*
G01X3790005Y1739972D03*
G01X3739967Y1739972D03*
G01X3689929Y1739972D03*
G01X3639891Y1739972D03*
G01X3589853Y1739972D03*
G54D25*
G01X3746698Y1489971D03*
G01X3833261Y1489971D03*
G54D15*
G01X4370000Y2586718D03*
G01X4370000Y2673282D03*
G54D26*
G01X4029980Y2872478D03*
G54D27*
G01X4129980Y2547459D03*
G54D26*
G01X4229979Y2872478D03*
G54D25*
G01X4223261Y1889971D03*
G01X4136698Y1889971D03*
G01X4223261Y2009971D03*
G01X4136698Y2009971D03*
G01X4223261Y1769971D03*
G01X4136698Y1769971D03*
G01X4223261Y2369971D03*
G01X4136698Y2369971D03*
G01X4223261Y2129971D03*
G01X4136698Y2129971D03*
G01X4223261Y2249971D03*
G01X4136698Y2249971D03*
G54D22*
G01X1769987Y630013D03*
G54D24*
G01X1619873Y880000D03*
G01X1669911Y880000D03*
G01X1719949Y880000D03*
G01X1769987Y880000D03*
G01X1820025Y880000D03*
G01X1870063Y880000D03*
G01X1920101Y880000D03*
G54D23*
G01X2020000Y780127D03*
G01X2020000Y730089D03*
G01X2020000Y680051D03*
G01X2020000Y630013D03*
G01X2020000Y579975D03*
G01X2020000Y529937D03*
G01X2020000Y479899D03*
G54D24*
G01X1920101Y380001D03*
G01X1870063Y380001D03*
G01X1820025Y380001D03*
G01X1769987Y380001D03*
G01X1719949Y380001D03*
G01X1669911Y380001D03*
G01X1619873Y380001D03*
G54D23*
G01X1520001Y479899D03*
G01X1520001Y529937D03*
G01X1520001Y579975D03*
G01X1520001Y630013D03*
G01X1520001Y680051D03*
G01X1520001Y730089D03*
G01X1520001Y780127D03*
G54D15*
G01X1270000Y623282D03*
G01X1270000Y536719D03*
G54D25*
G01X5483282Y1620000D03*
G01X5396718Y1620000D03*
G54D28*
G01X5350000Y1329990D03*
G01X5350000Y1490010D03*
G54D15*
G01X5200000Y1503281D03*
G01X5200000Y1416718D03*
G54D29*
G01X6864996Y2234910D03*
G01X6770000Y2234910D03*
G01X6675004Y2234910D03*
G01X6675004Y2005090D03*
G01X6770000Y2005090D03*
G01X6864996Y2005090D03*
G54D15*
G01X7000000Y2123282D03*
G01X7000000Y2036718D03*
G54D25*
G01X7083281Y2730000D03*
G01X6996718Y2730000D03*
G01X7083281Y2370000D03*
G01X6996718Y2370000D03*
G01X6996718Y2250000D03*
G01X7083281Y2250000D03*
G54D15*
G01X6080000Y1936719D03*
G01X6080000Y2023282D03*
G01X5590000Y2693282D03*
G01X5590000Y2606718D03*
G54D25*
G01X7083281Y2610000D03*
G01X6996718Y2610000D03*
G01X7083281Y2490000D03*
G01X6996718Y2490000D03*
G54D15*
G01X1670000Y146718D03*
G01X1670000Y233281D03*
G01X1790000Y146718D03*
G01X1790000Y233281D03*
G01X1910000Y146718D03*
G01X1910000Y233281D03*
G01X2030000Y146718D03*
G01X2030000Y233281D03*
G01X2150000Y146718D03*
G01X2150000Y233281D03*
G54D26*
G01X2652507Y340000D03*
G54D30*
G01X2327488Y240000D03*
G54D26*
G01X2652507Y140000D03*
G54D25*
G01X2406718Y470000D03*
G01X2493282Y470000D03*
G54D15*
G01X1550000Y146718D03*
G01X1550000Y233281D03*
G54D31*
G01X5129997Y3096995D03*
G01X4900000Y3096995D03*
G01X4670003Y3096995D03*
G54D32*
G01X4900000Y2503003D03*
G54D33*
G01X5000000Y2270000D03*
G01X4800000Y2270000D03*
G54D34*
G01X6148561Y2708935D03*
G01X6113197Y2673571D03*
G01X6077851Y2638224D03*
G01X6042486Y2602860D03*
G01X6007140Y2567514D03*
G01X5971776Y2532149D03*
G01X5936430Y2496803D03*
G01X5901065Y2461439D03*
G54D35*
G01X5901065Y2358561D03*
G01X5936430Y2323197D03*
G01X5971776Y2287851D03*
G01X6007140Y2252486D03*
G01X6042486Y2217140D03*
G01X6077851Y2181776D03*
G01X6113197Y2146429D03*
G01X6148561Y2111065D03*
G54D34*
G01X6251439Y2111065D03*
G01X6286803Y2146429D03*
G01X6322149Y2181776D03*
G01X6357514Y2217140D03*
G01X6392860Y2252486D03*
G01X6428224Y2287851D03*
G01X6463571Y2323197D03*
G01X6498935Y2358561D03*
G54D35*
G01X6498935Y2461439D03*
G01X6463571Y2496803D03*
G01X6428224Y2532149D03*
G01X6392860Y2567514D03*
G01X6357514Y2602860D03*
G01X6322149Y2638224D03*
G01X6286803Y2673571D03*
G01X6251439Y2708935D03*
G54D36*
G01X6200000Y2410000D03*
G54D37*
G01X6653268Y2697748D03*
G01X6764134Y2743670D03*
G01X6706731Y2882252D03*
G01X6595866Y2836330D03*
G54D25*
G01X5803282Y2850000D03*
G01X5716718Y2850000D03*
G54D38*
G01X7769165Y2870002D03*
G01X7769165Y2789992D03*
G54D39*
G01X7769190Y2724993D03*
G01X7769089Y2674955D03*
G01X7769190Y2624993D03*
G01X7769190Y2574981D03*
G01X7769190Y2524994D03*
G01X7769190Y2474981D03*
G01X7769190Y2424994D03*
G01X7769089Y2374981D03*
G54D38*
G01X7769165Y2310008D03*
G01X7769165Y2229998D03*
G54D40*
G01X7810897Y2029998D03*
G01X7810897Y3070001D03*
G54D41*
G01X8230911Y2029998D03*
G01X8230911Y3070001D03*
G54D33*
G01X4590000Y1020000D03*
G01X4790000Y1020000D03*
G01X5770000Y1080000D03*
G01X5570000Y1080000D03*
G54D42*
G01X5340000Y640000D03*
G01X5340000Y840000D03*
G54D33*
G01X6110000Y1370000D03*
G01X6310000Y1370000D03*
G54D42*
G01X6530000Y120000D03*
G01X6530000Y320000D03*
G54D33*
G01X7040000Y600000D03*
G01X7240000Y600000D03*
G54D43*
G01X6060000Y1129989D03*
G01X6060000Y690011D03*
G54D44*
G01X5195862Y496113D03*
G01X5195862Y546113D03*
G01X5195862Y596113D03*
G01X5195862Y646113D03*
G01X5195862Y696110D03*
G54D45*
G01X5098143Y889412D03*
G01X4948144Y889412D03*
G54D44*
G01X4850422Y846112D03*
G01X4850422Y796112D03*
G01X4850422Y746113D03*
G01X4850422Y696110D03*
G01X4850422Y646113D03*
G54D45*
G01X4948144Y452415D03*
G01X5098143Y452415D03*
G54D44*
G01X5195862Y746110D03*
G01X4850422Y596113D03*
G01X5195862Y796110D03*
G01X5195862Y846110D03*
G01X4850422Y546113D03*
G01X4850422Y496113D03*
G54D46*
G01X5023142Y670912D03*
G54D47*
G01X6333150Y927511D03*
G01X6333150Y862487D03*
G01X6333150Y797488D03*
G01X6333150Y732490D03*
G54D48*
G01X6432489Y633150D03*
G01X6497488Y633150D03*
G01X6562486Y633150D03*
G01X6627510Y633150D03*
G54D47*
G01X6726850Y732490D03*
G01X6726850Y797488D03*
G01X6726850Y862487D03*
G01X6726850Y927511D03*
G54D48*
G01X6627510Y1026850D03*
G01X6562486Y1026850D03*
G01X6497488Y1026850D03*
G01X6432489Y1026850D03*
G54D49*
G01X6530000Y830000D03*
G54D50*
G01X5673142Y903707D03*
G01X5673142Y498120D03*
G54D51*
G01X5947206Y240000D03*
G01X6352793Y240000D03*
G54D28*
G01X6680000Y1179990D03*
G01X6680000Y1340010D03*
G01X6510000Y1179990D03*
G01X6510000Y1340010D03*
G01X5530000Y1329990D03*
G01X5530000Y1490010D03*
G54D52*
G01X2410000Y1605004D03*
G01X2410000Y1794996D03*
G01X2210000Y1700000D03*
G54D25*
G01X4433282Y1890000D03*
G01X4346719Y1890000D03*
G01X4433282Y1770000D03*
G01X4346719Y1770000D03*
G54D15*
G01X5010000Y246718D03*
G01X5010000Y333282D03*
G54D21*
G01X6807879Y1530000D03*
G01X6512121Y1530000D03*
G54D25*
G01X6913282Y1320000D03*
G01X6826718Y1320000D03*
G01X7083281Y2850000D03*
G01X6996718Y2850000D03*
G54D20*
G01X6750000Y112121D03*
G01X6750000Y407879D03*
G54D53*
G01X6735000Y1870336D03*
G01X6735000Y1719664D03*
G54D20*
G01X6990000Y112121D03*
G01X6990000Y407879D03*
G54D25*
G01X6826718Y1200000D03*
G01X6913282Y1200000D03*
G54D20*
G01X7230000Y112121D03*
G01X7230000Y407879D03*
G54D54*
G01X1410000Y1062012D03*
G01X1410000Y977988D03*
G54D55*
G01X6319707Y2890293D03*
G01X6260293Y2949707D03*
G01X6409707Y2970293D03*
G01X6350293Y3029707D03*
G54D54*
G01X1390000Y622012D03*
G01X1390000Y537989D03*
G01X6865000Y2357988D03*
G01X6865000Y2442012D03*
G01X5470000Y2607988D03*
G01X5470000Y2692012D03*
G54D56*
G01X1402012Y390000D03*
G01X1317988Y390000D03*
G01X1402012Y270000D03*
G01X1317988Y270000D03*
G54D54*
G01X5470000Y2847988D03*
G01X5470000Y2932011D03*
G01X5590000Y2847988D03*
G01X5590000Y2932011D03*
G54D56*
G01X5932012Y2720000D03*
G01X5847988Y2720000D03*
G54D54*
G01X2130000Y1062012D03*
G01X2130000Y977988D03*
G01X2150000Y357988D03*
G01X2150000Y442012D03*
G01X4890000Y247988D03*
G01X4890000Y332012D03*
G54D55*
G01X6390293Y2109707D03*
G01X6449707Y2050293D03*
G01X6480293Y2199707D03*
G01X6539707Y2140293D03*
G54D54*
G01X4710000Y737988D03*
G01X4710000Y822012D03*
G01X4770000Y332012D03*
G01X4770000Y247988D03*
G54D56*
G01X3307988Y1630000D03*
G01X3392012Y1630000D03*
G01X3747968Y1609971D03*
G01X3831991Y1609971D03*
G54D54*
G01X5700000Y2147988D03*
G01X5700000Y2232012D03*
G01X3979980Y1621983D03*
G01X3979980Y1537960D03*
G54D56*
G01X5922012Y3100000D03*
G01X5837988Y3100000D03*
G54D54*
G01X4099980Y1621983D03*
G01X4099980Y1537960D03*
G54D57*
G01X6833923Y2908814D03*
G01X6866077Y2831186D03*
G54D56*
G01X5062012Y990000D03*
G01X4977989Y990000D03*
G54D54*
G01X5190000Y1072012D03*
G01X5190000Y987988D03*
G54D58*
G01X6090293Y2800293D03*
G01X6149707Y2859707D03*
G54D54*
G01X5130000Y247988D03*
G01X5130000Y332012D03*
G54D59*
G01X6571186Y2963923D03*
G01X6648814Y2996077D03*
G54D56*
G01X3307988Y2350000D03*
G01X3392012Y2350000D03*
G01X3952012Y2440000D03*
G01X3867988Y2440000D03*
G01X6277988Y1210000D03*
G01X6362012Y1210000D03*
G01X6247988Y530000D03*
G01X6332011Y530000D03*
G54D54*
G01X6870000Y642011D03*
G01X6870000Y557988D03*
G01X6870000Y757988D03*
G01X6870000Y842012D03*
G54D60*
G01X5996563Y2900013D03*
G01X5963437Y2979987D03*
G54D33*
G01X5000000Y1230000D03*
G01X4800000Y1230000D03*
G54D61*
G01X5129997Y2035750D03*
G01X4900000Y2035750D03*
G01X4670003Y2035750D03*
G54D62*
G01X4900000Y1464250D03*
G54D15*
G01X5680000Y1416718D03*
G01X5680000Y1503281D03*
G54D63*
G01X1599999Y1637503D03*
G01X1500000Y1637503D03*
G01X1400000Y1637503D03*
G01X1300000Y1637503D03*
G01X1200000Y1637503D03*
G01X1100000Y1637503D03*
G01X1000001Y1637503D03*
G01X900001Y1637503D03*
G54D64*
G01X1842493Y1862497D03*
G01X657507Y1862497D03*
G54D65*
G01X5481509Y1900000D03*
G01X5918491Y1900000D03*
G54D15*
G01X5370000Y246718D03*
G01X5370000Y333282D03*
G01X5250000Y246718D03*
G01X5250000Y333282D03*
G54D25*
G01X4556718Y370000D03*
G01X4643282Y370000D03*
G54D53*
G01X4570000Y504664D03*
G01X4570000Y655337D03*
G54D15*
G01X4710000Y536719D03*
G01X4710000Y623282D03*
G54D66*
G01X4574664Y110000D03*
G01X4725336Y110000D03*
G54D25*
G01X4556718Y250000D03*
G01X4643282Y250000D03*
G54D53*
G01X6585000Y1870336D03*
G01X6585000Y1719664D03*
G54D67*
G01X473000Y679997D03*
G01X727000Y679997D03*
G54D31*
G01X165000Y320003D03*
G01X1035000Y320003D03*
G54D67*
G01X3823000Y679997D03*
G01X4077000Y679997D03*
G54D31*
G01X3515000Y320003D03*
G01X4385000Y320003D03*
G54D68*
G01X7500000Y450001D03*
G01X7500000Y950000D03*
G01X7500000Y699987D03*
G04 Pad End*

G04 Via Start*
G54D69*
G01X2510000Y1320000D03*
G01X3230000Y2895700D03*
G01X2180000Y790127D03*
G01X2090000Y1320000D03*
G01X6710000Y2630000D03*
G01X3580000Y1660000D03*
G01X5450000Y2180000D03*
G01X1310000Y1300000D03*
G01X5390000Y2520000D03*
G01X5470000Y2770000D03*
G01X2788400Y760000D03*
G01X3790000Y2040000D03*
G01X3850000Y2350000D03*
G01X3850000Y2510000D03*
G01X2280000Y390000D03*
G01X1819987Y680013D03*
G01X1819987Y580013D03*
G01X1719987Y580013D03*
G01X1719987Y680013D03*
G01X3789967Y1939959D03*
G01X3689967Y1939959D03*
G01X3689967Y2039958D03*
G01X7150000Y2730000D03*
G01X7610000Y2790000D03*
G01X7610000Y2310000D03*
G01X7510000Y2310000D03*
G01X7510000Y2790000D03*
G01X6710000Y2437254D03*
G01X7070000Y2950000D03*
G01X6200000Y2020000D03*
G01X6200000Y2410000D03*
G01X6200000Y2510000D03*
G01X6300000Y2410000D03*
G01X6100000Y2410000D03*
G01X6820000Y2670000D03*
G01X6570000Y2670000D03*
G01X6380000Y2780000D03*
G01X6490000Y2860000D03*
G01X6030000Y3040000D03*
G01X6070000Y2940000D03*
G01X5910000Y2900000D03*
G01X5860000Y3010000D03*
G01X6200000Y2310000D03*
G01X7150000Y2370000D03*
G01X5740000Y2770000D03*
G01X5740000Y2600000D03*
G01X5670000Y2690000D03*
G01X6470000Y2620000D03*
G01X5670000Y2520000D03*
G01X1851549Y146718D03*
G01X2150000Y70000D03*
G01X6480000Y880000D03*
G01X6480000Y780000D03*
G01X6580033Y880042D03*
G01X6580000Y780000D03*
G01X4973091Y620908D03*
G01X5073091Y620908D03*
G01X4973050Y720941D03*
G01X5073091Y720908D03*
G54D70*
G01X4530000Y2243300D03*
G54D69*
G01X3230000Y2680013D03*
G01X3580000Y2350000D03*
G54D70*
G01X3680000Y2670000D03*
G01X3480000Y2668600D03*
G01X3480000Y1760000D03*
G01X2910000Y629146D03*
G01X2510000Y630000D03*
G01X1510000Y890000D03*
G01X1177101Y890000D03*
G54D69*
G01X1330000Y470000D03*
G01X5890000Y2180000D03*
G01X5810000Y2180000D03*
G01X5530000Y2180000D03*
G01X5610000Y2180000D03*
G01X4391799Y1689997D03*
G01X4323998Y1619997D03*
G01X6333150Y633150D03*
G01X6700000Y1000000D03*
G01X6870000Y1000000D03*
G01X4259599Y1549974D03*
G54D70*
G01X6980000Y1570000D03*
G54D69*
G01X2280000Y530000D03*
G01X1310000Y1060000D03*
G01X1310000Y710000D03*
G01X2970000Y840000D03*
G01X6330000Y1000000D03*
G01X6230000Y630000D03*
G01X6200000Y1860000D03*
G01X6900000Y2750000D03*
G01X2620000Y1880000D03*
G01X2840000Y1880000D03*
G01X3900000Y1550000D03*
G01X3450000Y1500000D03*
G01X3450000Y1290000D03*
G01X4310000Y2130000D03*
G01X5220000Y3330000D03*
G54D70*
G01X1020000Y890000D03*
G54D69*
G01X2800000Y70000D03*
G01X3050000Y1990000D03*
G01X4090000Y1460000D03*
G01X6870000Y1090000D03*
G01X6710000Y2120000D03*
G01X6860000Y2120000D03*
G01X6710000Y2350000D03*
G01X4460000Y1110000D03*
G01X5000000Y1110000D03*
G01X4900000Y2690344D03*
G01X4530000Y2690000D03*
G01X2970000Y1240000D03*
G01X2620000Y1960000D03*
G01X5368201Y2141800D03*
G01X5610000Y1880000D03*
G01X5290000Y2140000D03*
G01X5290000Y1880000D03*
G01X6560000Y1970000D03*
G01X1600000Y1790000D03*
G01X5000000Y2690000D03*
G01X3450000Y1140000D03*
G54D70*
G01X3600000Y630000D03*
G01X5870000Y520000D03*
G01X7570000Y323822D03*
G01X4295336Y630000D03*
G54D69*
G01X4970000Y70000D03*
G04 Via End*

G04 Track Start*
G54D11*
G01X2550000Y450000D02*
G01X2570000Y430000D01*
G01X2493282Y470000D02*
G01X2493282Y376719D01*
G01X2530000Y340000D01*
G01X2652507Y340000D01*
G01X2440000Y350000D02*
G01X2440000Y270000D01*
G01X2470000Y240000D01*
G01X2020000Y680051D02*
G01X2079949Y680051D01*
G01X2020000Y579975D02*
G01X2089975Y579975D01*
G01X3960000Y2440000D02*
G01X3960000Y2265400D01*
G01X3934600Y2240000D01*
G01X3890101Y2240000D01*
G01X4019980Y2140072D02*
G01X4019980Y2349980D01*
G01X4039971Y2369971D01*
G01X4136698Y2369971D01*
G01X4129980Y2547459D02*
G01X4107439Y2570000D01*
G01X2350535Y569465D02*
G01X2350535Y263047D01*
G01X2327488Y240000D01*
G54D71*
G01X1720000Y880050D02*
G01X1720000Y959749D01*
G01X1730251Y970000D01*
G01X1820025Y880000D02*
G01X1820025Y959724D01*
G01X1809749Y970000D01*
G54D11*
G01X4223261Y2129971D02*
G01X4223261Y2009971D01*
G01X4223261Y1889971D01*
G01X1550000Y146718D02*
G01X1670000Y146718D01*
G01X1790000Y146718D01*
G01X2406718Y470000D02*
G01X2406718Y383282D01*
G01X2440000Y350000D01*
G01X2440000Y210000D02*
G01X2470000Y240000D01*
G01X4223261Y1889971D02*
G01X4223261Y1769971D01*
G54D71*
G01X3489980Y1889882D02*
G01X3389891Y1889882D01*
G01X3489980Y2090034D02*
G01X3379916Y2090034D01*
G54D11*
G01X3739967Y1739972D02*
G01X3739967Y1614467D01*
G01X3735471Y1609971D01*
G01X3790005Y1664454D02*
G01X3844488Y1609971D01*
G01X3790005Y1739972D02*
G01X3790005Y1664454D01*
G01X3840043Y1689908D02*
G01X3865079Y1664871D01*
G01X3840043Y1739972D02*
G01X3840043Y1689908D01*
G01X3865079Y1664871D02*
G01X3895549Y1664871D01*
G01X3920449Y1639971D01*
G01X3974488Y1639971D01*
G01X3979980Y1634480D01*
G01X4019980Y1779971D02*
G01X4019980Y1839844D01*
G01X4099980Y1699971D02*
G01X4019980Y1779971D01*
G01X4019980Y1839844D02*
G01X3989979Y1839844D01*
G01X4099980Y1634480D02*
G01X4099980Y1699971D01*
G01X4069980Y1869971D02*
G01X4069980Y1799971D01*
G01X4099980Y1769971D01*
G01X4050068Y1889882D02*
G01X4069980Y1869971D01*
G01X4099980Y1769971D02*
G01X4136698Y1769971D01*
G01X3989979Y1889882D02*
G01X4050068Y1889882D01*
G01X3989979Y1939920D02*
G01X4086749Y1939920D01*
G01X4136698Y1889971D01*
G01X3989979Y1989958D02*
G01X4116685Y1989958D01*
G01X4136698Y2009971D01*
G01X4046723Y2039996D02*
G01X4136698Y2129971D01*
G01X3989979Y2039996D02*
G01X4046723Y2039996D01*
G01X4062879Y2115434D02*
G01X4062879Y2212871D01*
G01X4099980Y2249971D01*
G01X4037479Y2090034D02*
G01X4062879Y2115434D01*
G01X4099980Y2249971D02*
G01X4136698Y2249971D01*
G01X3989979Y2090034D02*
G01X4037479Y2090034D01*
G01X3989979Y2140072D02*
G01X4019980Y2140072D01*
G01X1619873Y380001D02*
G01X1619873Y350000D01*
G01X1414508Y270000D02*
G01X1480000Y270000D01*
G01X1560000Y350000D01*
G01X1619873Y350000D01*
G54D71*
G01X1669911Y880000D02*
G01X1669911Y980089D01*
G01X1627879Y1022121D01*
G01X1600000Y1022121D01*
G01X1870063Y880000D02*
G01X1870063Y990063D01*
G01X1902121Y1022121D01*
G54D11*
G01X1520001Y630013D02*
G01X1394496Y630013D01*
G01X1390000Y634509D01*
G01X1520001Y579975D02*
G01X1444483Y579975D01*
G01X1390000Y525492D01*
G01X1520001Y529937D02*
G01X1469937Y529937D01*
G01X1444900Y504900D02*
G01X1444900Y474431D01*
G01X1469937Y529937D02*
G01X1444900Y504900D01*
G01X1444900Y474431D02*
G01X1420000Y449530D01*
G01X1420000Y395491D01*
G01X1414508Y390000D01*
G01X1550000Y270000D02*
G01X1550000Y233281D01*
G01X1580000Y300000D02*
G01X1550000Y270000D01*
G01X1669911Y380001D02*
G01X1669911Y319911D01*
G01X1650000Y300000D01*
G01X1580000Y300000D01*
G01X1719949Y380001D02*
G01X1719949Y283231D01*
G01X1670000Y233281D01*
G01X1769987Y380001D02*
G01X1769987Y253294D01*
G01X1790000Y233281D01*
G01X2030000Y270000D02*
G01X2030000Y233281D01*
G01X1870063Y380001D02*
G01X1870063Y332500D01*
G01X1895463Y307100D01*
G01X1992899Y307100D01*
G01X2030000Y270000D01*
G01X1820025Y380001D02*
G01X1820025Y323256D01*
G01X1910000Y233281D01*
G54D71*
G01X1902121Y1022121D02*
G01X1940000Y1022121D01*
G54D11*
G01X5892504Y2350000D02*
G01X5901065Y2358561D01*
G01X5936429Y2323197D02*
G01X5911029Y2297797D01*
G01X6764134Y2743670D02*
G03X6620000Y2770000I-91117J-91117D01*
G01X6620000Y2770000D02*
G03X6450000Y2680000I629795J-1395171D01*
G01X6450000Y2680000D02*
G03X6357514Y2602860I217152J-354365D01*
G01X6860859Y2839641D02*
G02X6764134Y2743670I-96725J758D01*
G01X6148561Y2708935D02*
G02X6081457Y2791457I366881J366880D01*
G01X5963437Y2969987D02*
G02X5934508Y3100000I200220J112775D01*
G01X6081457Y2791457D02*
G02X5996563Y2890013I206676J263866D01*
G01X5934508Y3100000D02*
G01X5934508Y3334508D01*
G01X7150000Y2370000D02*
G01X7083281Y2370000D01*
G01X5934508Y3334508D02*
G01X5940000Y3340000D01*
G01X6463571Y2496803D02*
G01X6536767Y2570000D01*
G01X6956718Y2570000D01*
G01X6996718Y2610000D01*
G01X6498935Y2461439D02*
G01X6557496Y2520000D01*
G01X6966718Y2520000D01*
G01X6996718Y2490000D01*
G01X6322149Y2638224D02*
G02X6595866Y2836330I754966J-754967D01*
G01X5839626Y2400000D02*
G01X5901065Y2461439D01*
G01X5500000Y2450000D02*
G01X5470000Y2480000D01*
G01X5936430Y2496803D02*
G01X5911030Y2522203D01*
G01X5971776Y2532150D02*
G01X5933925Y2570000D01*
G01X5954654Y2620000D02*
G01X6007140Y2567514D01*
G01X5911030Y2522203D02*
G01X5862203Y2522203D01*
G01X5790000Y2450000D01*
G01X5500000Y2450000D01*
G01X5933925Y2570000D02*
G01X5850000Y2570000D01*
G01X5820000Y2620000D02*
G01X5954654Y2620000D01*
G01X5850000Y2570000D02*
G01X5800000Y2520000D01*
G01X5670000Y2520000D01*
G54D72*
G01X5934508Y2720000D02*
G01X5934508Y2764941D01*
G54D11*
G01X6595866Y2836330D02*
G01X6595866Y2904134D01*
G01X6571186Y2928814D01*
G01X6571186Y2963923D01*
G01X5470000Y2480000D02*
G01X5470000Y2607988D01*
G01X5588730Y2607988D01*
G01X5590000Y2606718D01*
G01X2670000Y1656719D02*
G01X2536719Y1656719D01*
G01X2485004Y1605004D02*
G01X2410000Y1605004D01*
G01X2536719Y1656719D02*
G01X2485004Y1605004D01*
G01X1851549Y146718D02*
G01X1910000Y146718D01*
G01X1790000Y146718D02*
G01X1851549Y146718D01*
G01X2150000Y146718D02*
G01X2150000Y70000D01*
G01X2177328Y42672D01*
G01X2402672Y42672D01*
G01X2440000Y80000D01*
G01X2440000Y210000D01*
G01X4230000Y2376718D02*
G01X4230000Y2410000D01*
G01X4200000Y2440000D01*
G01X3960000Y2440000D01*
G01X4370000Y2673282D02*
G01X4076718Y2673282D01*
G01X4029980Y2720020D01*
G01X4029980Y2872478D01*
G01X3589853Y1739972D02*
G01X3589853Y1669853D01*
G01X3580000Y1660000D01*
G01X3979980Y1537960D02*
G01X3979980Y1460471D01*
G54D72*
G01X3270000Y2020000D02*
G01X3240000Y2050000D01*
G01X3400000Y2030000D02*
G01X3390000Y2020000D01*
G01X3270000Y2020000D01*
G54D11*
G01X3489980Y1939920D02*
G01X3410080Y1939920D01*
G01X3400000Y1950000D01*
G01X3489980Y2039996D02*
G01X3410004Y2039996D01*
G54D72*
G01X3400000Y1950000D02*
G01X3210000Y1950000D01*
G01X3160000Y2000000D01*
G54D11*
G01X3815405Y2570000D02*
G01X3790005Y2544600D01*
G01X4107439Y2570000D02*
G01X3815405Y2570000D01*
G01X3790005Y2544600D02*
G01X3790005Y2239971D01*
G01X3689929Y2280188D02*
G01X3689929Y2239971D01*
G01X3740000Y2330260D02*
G01X3689929Y2280188D01*
G01X3740000Y2574600D02*
G01X3740000Y2330260D01*
G01X3785400Y2620000D02*
G01X3740000Y2574600D01*
G01X2524600Y534883D02*
G01X2550000Y509483D01*
G01X2550000Y450000D01*
G54D72*
G01X1177101Y890000D02*
G01X1177101Y777101D01*
G01X1116795Y716795D01*
G54D11*
G01X5971776Y2287851D02*
G01X5933925Y2250000D01*
G01X6007140Y2252486D02*
G01X5934654Y2180000D01*
G01X5890000Y2180000D01*
G01X6042486Y2217140D02*
G01X5946946Y2121600D01*
G01X5838400Y2121600D01*
G01X5810000Y2150000D01*
G01X5810000Y2180000D01*
G01X6077851Y2181776D02*
G01X5966075Y2070000D01*
G54D72*
G01X5934508Y2764941D02*
G01X5849449Y2850000D01*
G01X5813281Y2850000D01*
G01X5390000Y2820000D02*
G01X5420000Y2850000D01*
G01X5390000Y2520000D02*
G01X5390000Y2820000D01*
G54D11*
G01X5590000Y2847988D02*
G01X5590000Y2693282D01*
G01X5330000Y2425400D02*
G01X5355400Y2400000D01*
G01X5839626Y2400000D01*
G01X5305400Y2350000D02*
G01X5892504Y2350000D01*
G01X5280000Y2375400D02*
G01X5305400Y2350000D01*
G01X5933925Y2250000D02*
G01X5770000Y2250000D01*
G01X5754686Y2234686D01*
G01X5697326Y2234686D01*
G01X5700000Y2232012D02*
G01X5697326Y2232012D01*
G01X5697326Y2234686D01*
G01X5655314Y2234686D01*
G01X5640000Y2250000D01*
G01X5510000Y2250000D01*
G01X5450000Y2190000D01*
G01X5911029Y2297797D02*
G01X5272203Y2297797D01*
G01X5230000Y2340000D01*
G01X4370000Y2040000D02*
G01X4339971Y2009971D01*
G01X4223261Y2009971D01*
G54D72*
G01X6333150Y725000D02*
G01X6333150Y633150D01*
G01X6425000Y633150D01*
G54D11*
G01X6826718Y1320000D02*
G01X6700010Y1320000D01*
G01X6680000Y1340010D01*
G01X6510000Y1340010D01*
G01X6510000Y1179990D02*
G01X6497488Y1167478D01*
G01X6497488Y1026850D01*
G01X6562486Y1092487D02*
G01X6580000Y1110000D01*
G01X6562486Y1026850D02*
G01X6562486Y1092487D01*
G01X6580000Y1110000D02*
G01X6650000Y1110000D01*
G01X6680000Y1140000D01*
G01X6680000Y1179990D01*
G01X6726850Y927511D02*
G01X6747511Y927511D01*
G01X6726850Y797488D02*
G01X6777488Y797488D01*
G01X6822012Y842012D02*
G01X6870000Y842012D01*
G01X6777488Y797488D02*
G01X6822012Y842012D01*
G01X6700000Y1000000D02*
G01X6627510Y1000000D01*
G01X6627510Y1026850D01*
G01X3390000Y1460000D02*
G01X3390000Y1622482D01*
G01X2196718Y146718D02*
G01X2150000Y146718D01*
G01X2220000Y170000D02*
G01X2196718Y146718D01*
G01X2400000Y620000D02*
G01X2400000Y570000D01*
G01X2435118Y534883D01*
G01X2524600Y534883D01*
G01X2220000Y340000D02*
G01X2220000Y170000D01*
G01X2150000Y357988D02*
G01X2202012Y357988D01*
G01X2220000Y340000D01*
G01X2090000Y260000D02*
G01X2116719Y233281D01*
G01X2150000Y233281D01*
G01X2090000Y309654D02*
G01X2090000Y260000D01*
G01X1920101Y380001D02*
G01X1920101Y360000D01*
G01X2039654Y360000D01*
G01X2090000Y309654D01*
G01X2050000Y479899D02*
G01X2020000Y479899D01*
G01X2150000Y357988D02*
G01X2112012Y357988D01*
G01X2050000Y420000D01*
G01X2050000Y479899D01*
G01X2089975Y579975D02*
G01X2115375Y605375D01*
G01X2314625Y605375D01*
G01X2350535Y569465D01*
G01X2079949Y680051D02*
G01X2110000Y650000D01*
G01X2370000Y650000D01*
G01X2400000Y620000D01*
G01X2020000Y529937D02*
G01X2109937Y529937D01*
G01X2130000Y550000D01*
G01X2259873Y550000D01*
G01X2279937Y529937D01*
G54D72*
G01X1730251Y970000D02*
G01X1730250Y1098750D01*
G01X1689000Y1140000D01*
G01X1809749Y970000D02*
G01X1809749Y1145690D01*
G01X1269200Y840800D02*
G01X1320000Y790000D01*
G01X1540000Y790000D01*
G01X1310000Y1300000D02*
G01X1250000Y1300000D01*
G01X1200000Y1350000D01*
G01X1809749Y1145690D02*
G01X1738537Y1216903D01*
G01X1183097Y1216903D01*
G01X1100013Y1299987D01*
G01X900013Y1149987D02*
G01X990000Y1060000D01*
G01X1200000Y1060000D01*
G01X1269200Y990800D01*
G01X1269200Y840800D01*
G01X1689000Y1140000D02*
G01X1090000Y1140000D01*
G01X1000013Y1229987D01*
G54D11*
G01X1410089Y730089D02*
G01X1520001Y730089D01*
G54D72*
G01X2180000Y1700000D02*
G01X2210000Y1700000D01*
G54D11*
G01X7779190Y2574981D02*
G01X7848333Y2574981D01*
G01X7850047Y2474981D02*
G01X7779190Y2474981D01*
G01X7779190Y2524994D02*
G01X7710047Y2524994D01*
G01X7098300Y2474981D02*
G01X7083281Y2490000D01*
G54D72*
G01X6450000Y3010587D02*
G01X6409707Y2970293D01*
G01X6450000Y3050000D02*
G01X6450000Y3010587D01*
G01X6490000Y3090000D02*
G01X6450000Y3050000D01*
G01X7020000Y3090000D02*
G01X6490000Y3090000D01*
G54D11*
G01X4345999Y1890000D02*
G01X4290000Y1834001D01*
G54D72*
G01X4180000Y1420800D02*
G01X4180000Y1650000D01*
G01X4223261Y1693261D01*
G01X4223261Y1769971D01*
G54D11*
G01X4356718Y1770000D02*
G01X4356718Y1703282D01*
G01X2760000Y240000D02*
G01X2470000Y240000D01*
G01X4259599Y1359599D02*
G01X4210000Y1310000D01*
G01X4259599Y1549974D02*
G01X4259599Y1359599D01*
G01X4323998Y1619997D02*
G01X4323998Y1303998D01*
G01X4290000Y1834001D02*
G01X4290000Y1653995D01*
G01X4323998Y1619997D01*
G01X4356718Y1703282D02*
G01X4370003Y1689997D01*
G01X4391799Y1689997D01*
G01X4323998Y1303998D02*
G01X4280000Y1260000D01*
G01X3979980Y1460471D02*
G01X3949509Y1430000D01*
G01X3420000Y1430000D01*
G01X3390000Y1460000D01*
G01X3840043Y2239971D02*
G01X3840043Y2340043D01*
G01X3850000Y2350000D01*
G01X2570000Y430000D02*
G01X2700000Y430000D01*
G54D72*
G01X2840000Y1880000D02*
G01X2840000Y1430000D01*
G01X2900000Y1370000D01*
G54D11*
G01X3908040Y2620000D02*
G01X3785400Y2620000D01*
G01X3933440Y2645400D02*
G01X3908040Y2620000D01*
G01X5292672Y3457328D02*
G01X5330000Y3420000D01*
G01X5330000Y2425400D01*
G01X5280000Y3370000D02*
G01X5280000Y2375400D01*
G01X5240000Y3410000D02*
G01X5280000Y3370000D01*
G01X5190000Y3360000D02*
G01X5220000Y3330000D01*
G01X5230000Y2340000D02*
G01X5230000Y3237410D01*
G01X5157410Y3310000D01*
G01X6277988Y1210000D02*
G01X6140011Y1210000D01*
G01X6060000Y1129989D01*
G01X5700000Y2147988D02*
G01X5642012Y2147988D01*
G01X5610000Y2180000D01*
G54D72*
G01X2180000Y790127D02*
G01X2000000Y790127D01*
G54D11*
G01X1310000Y710000D02*
G01X1390000Y710000D01*
G01X1410089Y730089D01*
G01X1310000Y710000D02*
G01X1270000Y670000D01*
G01X1270000Y623282D01*
G54D72*
G01X3580000Y2350000D02*
G01X3580000Y2220000D01*
G54D11*
G01X3855492Y2440000D02*
G01X3870000Y2440000D01*
G01X3870000Y2490000D01*
G01X3850000Y2510000D01*
G01X5985346Y2660000D02*
G01X6042486Y2602860D01*
G01X5740000Y2600000D02*
G01X5800000Y2600000D01*
G01X5820000Y2620000D01*
G54D72*
G01X7070000Y2950000D02*
G01X7070000Y3040000D01*
G01X7020000Y3090000D01*
G01X1300012Y1479988D02*
G01X1360000Y1420000D01*
G01X2110000Y1420000D01*
G01X2180000Y1490000D01*
G01X2180000Y1700000D01*
G01X2050000Y1490000D02*
G01X2100000Y1540000D01*
G01X2100000Y1829200D01*
G01X1400012Y1549988D02*
G01X1460000Y1490000D01*
G01X2050000Y1490000D01*
G01X900013Y1637491D02*
G01X900013Y1149987D01*
G01X1000013Y1229987D02*
G01X1000013Y1637491D01*
G01X1100013Y1299987D02*
G01X1100013Y1637491D01*
G01X1200000Y1350000D02*
G01X1200000Y1637503D01*
G01X1300012Y1637491D02*
G01X1300012Y1479988D01*
G01X1400012Y1637491D02*
G01X1400012Y1549988D01*
G01X6996718Y2250000D02*
G01X6996718Y2126563D01*
G54D11*
G01X7000000Y2036718D02*
G01X6876718Y2036718D01*
G01X6864996Y2024996D01*
G01X6864996Y2005090D01*
G54D72*
G01X6996718Y2250000D02*
G01X6880086Y2250000D01*
G01X6865000Y2234913D02*
G01X6865000Y2357988D01*
G01X6880086Y2250000D02*
G01X6865000Y2234913D01*
G54D11*
G01X6870000Y1000000D02*
G01X6870000Y842012D01*
G01X6826718Y1139309D02*
G01X6826718Y1200000D01*
G01X6747511Y927511D02*
G01X6790000Y970000D01*
G01X6790000Y1102590D01*
G01X6826718Y1139309D01*
G01X5670000Y2690000D02*
G01X5700000Y2660000D01*
G01X5985346Y2660000D01*
G01X6675004Y2085004D02*
G01X6675004Y2005090D01*
G01X6770000Y2077410D02*
G01X6770000Y2005090D01*
G01X6860000Y2120000D02*
G01X6812590Y2120000D01*
G01X6770000Y2077410D01*
G54D72*
G01X6580000Y2299413D02*
G01X6580000Y2380000D01*
G01X6637254Y2437254D01*
G01X6710000Y2437254D01*
G54D11*
G01X6710000Y2120000D02*
G01X6675004Y2085004D01*
G54D72*
G01X6480293Y2199707D02*
G01X6580000Y2299413D01*
G01X6480293Y2199707D02*
G01X6390293Y2109707D01*
G54D11*
G01X6113197Y2146430D02*
G01X6080000Y2113233D01*
G01X6080000Y2023282D01*
G01X6390293Y2100293D02*
G01X6390293Y2109707D01*
G01X6366235Y2085648D02*
G01X6375648Y2085648D01*
G54D72*
G01X6366235Y2085648D02*
G01X6390293Y2109707D01*
G54D11*
G01X6251439Y2111065D02*
G01X6312504Y2050000D01*
G01X6330587Y2050000D01*
G54D72*
G01X6330587Y2050000D02*
G01X6366235Y2085648D01*
G54D11*
G01X5918491Y1900000D02*
G01X5918491Y1998491D01*
G01X5943282Y2023282D01*
G01X6080000Y2023282D01*
G54D72*
G01X5729200Y2033600D02*
G01X5496400Y2033600D01*
G01X5450000Y2080000D01*
G01X5450000Y2180000D01*
G01X5790000Y1811396D02*
G01X5790000Y1972800D01*
G01X5729200Y2033600D01*
G01X5851396Y1750000D02*
G01X5790000Y1811396D01*
G54D11*
G01X5966075Y2070000D02*
G01X5810000Y2070000D01*
G01X5790000Y2090000D01*
G01X5560000Y2090000D01*
G01X5530000Y2120000D01*
G01X5530000Y2180000D01*
G54D72*
G01X6080000Y1936719D02*
G01X6080000Y1810000D01*
G01X6020000Y1750000D01*
G01X5851396Y1750000D01*
G54D11*
G01X5195862Y796110D02*
G01X5296110Y796110D01*
G01X5340000Y840000D01*
G01X5250000Y246718D02*
G01X5370000Y246718D01*
G01X5098143Y452415D02*
G01X5098143Y401857D01*
G01X5130000Y370000D02*
G01X5130000Y332012D01*
G01X5098143Y401857D02*
G01X5130000Y370000D01*
G01X4980486Y389515D02*
G01X5010000Y359999D01*
G01X5010000Y333282D01*
G01X4850422Y496113D02*
G01X4850422Y419578D01*
G01X4880485Y389515D01*
G01X4980486Y389515D01*
G01X5098143Y452415D02*
G01X5172415Y452415D01*
G01X5195862Y475862D01*
G01X5195862Y496113D01*
G01X5195862Y546113D02*
G01X5243887Y546113D01*
G01X5250000Y440000D02*
G01X5250000Y333282D01*
G01X5243887Y546113D02*
G01X5275400Y514600D01*
G01X5275400Y465400D01*
G01X5250000Y440000D01*
G01X4770000Y332012D02*
G01X4890000Y332012D01*
G01X4643282Y250000D02*
G01X4767988Y250000D01*
G01X4770000Y247988D01*
G01X4770000Y210000D01*
G01X4725336Y165336D01*
G01X4725336Y110000D01*
G01X4850422Y546113D02*
G01X4813773Y546113D01*
G01X4770000Y502340D01*
G01X4770000Y332012D01*
G01X4710000Y536719D02*
G01X4666718Y536719D01*
G01X4634664Y504664D01*
G01X4570000Y504664D01*
G01X4570000Y450000D01*
G01X4590000Y430000D01*
G01X4620000Y430000D01*
G01X4643282Y406719D01*
G01X4643282Y370000D01*
G01X5062012Y990000D02*
G01X5098143Y953868D01*
G01X5098143Y889412D01*
G01X4850422Y596113D02*
G01X4796113Y596113D01*
G01X4736718Y536719D01*
G01X4710000Y536719D01*
G54D72*
G01X4900000Y2503003D02*
G01X5000000Y2403003D01*
G01X5000000Y2270000D01*
G01X4900000Y2035750D02*
G01X4900000Y1464250D01*
G01X5000000Y1364250D01*
G01X5000000Y1230000D01*
G01X2818600Y298600D02*
G01X2760000Y240000D01*
G01X5000000Y1110000D02*
G01X5000000Y1230000D01*
G01X2818600Y678600D02*
G01X2818600Y298600D01*
G01X2900000Y760000D02*
G01X2818600Y678600D01*
G54D11*
G01X4430542Y1782740D02*
G01X4430542Y1877260D01*
G01X4443282Y1770000D02*
G01X4430542Y1782740D01*
G54D72*
G01X4900000Y3096995D02*
G01X4900000Y2690344D01*
G01X4900000Y2503003D01*
G54D70*
G01X4670003Y1840003D02*
G01X4670003Y2035750D01*
G01X4590000Y1020000D02*
G01X4590000Y1760000D01*
G01X4670003Y1840003D01*
G01X4670003Y2035750D02*
G01X4670003Y2153297D01*
G01X4580000Y2243300D01*
G54D72*
G01X4670003Y3096995D02*
G01X4670003Y2333303D01*
G01X4580000Y2243300D01*
G54D11*
G01X4391799Y1689997D02*
G01X4391799Y1271800D01*
G54D72*
G01X2100000Y1829200D02*
G01X2150800Y1880000D01*
G01X2620000Y1880000D01*
G54D11*
G01X2600000Y1940000D02*
G01X2620000Y1960000D01*
G01X2080000Y2010000D02*
G01X2150000Y1940000D01*
G01X2600000Y1940000D01*
G01X1500000Y1637503D02*
G01X1500000Y1939999D01*
G01X1570000Y2010000D01*
G01X2080000Y2010000D01*
G54D70*
G01X4580000Y2243300D02*
G01X4530000Y2243300D01*
G54D11*
G01X2320000Y3360000D02*
G01X5190000Y3360000D01*
G01X4260000Y2440000D02*
G01X4230000Y2410000D01*
G01X4370000Y2586718D02*
G01X4296718Y2586718D01*
G01X4260000Y2550000D01*
G01X4260000Y2440000D01*
G01X4370000Y2340000D02*
G01X4370000Y2040000D01*
G01X4223261Y2369971D02*
G01X4340029Y2369971D01*
G01X4370000Y2340000D01*
G01X2930000Y840000D02*
G01X2970000Y840000D01*
G01X4430542Y1877260D02*
G01X4451300Y1898018D01*
G01X4451300Y2661300D01*
G01X4480000Y2690000D01*
G01X4530000Y2690000D01*
G01X5530000Y1329990D02*
G01X5530000Y1390000D01*
G01X5556718Y1416718D02*
G01X5680000Y1416718D01*
G01X5530000Y1390000D02*
G01X5556718Y1416718D01*
G01X5333282Y1416718D02*
G01X5350000Y1400000D01*
G01X5200000Y1416718D02*
G01X5333282Y1416718D01*
G01X5350000Y1400000D02*
G01X5350000Y1329990D01*
G01X5396718Y1620000D02*
G01X5396718Y1586718D01*
G01X5350000Y1540000D02*
G01X5350000Y1490010D01*
G01X5396718Y1586718D02*
G01X5350000Y1540000D01*
G01X5483282Y1620000D02*
G01X5483282Y1586718D01*
G01X5530000Y1540000D01*
G01X5530000Y1490010D01*
G01X5483282Y1620000D02*
G01X5483282Y1666718D01*
G01X5460000Y1690000D01*
G01X5186190Y1517092D02*
G01X5200000Y1503281D01*
G01X5460000Y1690000D02*
G01X5210000Y1690000D01*
G01X5186190Y1666190D01*
G01X5186190Y1517092D01*
G01X5173282Y1416718D02*
G01X5200000Y1416718D01*
G01X5140000Y1450000D02*
G01X5173282Y1416718D01*
G01X5140000Y1704600D02*
G01X5140000Y1450000D01*
G01X5341979Y1740000D02*
G01X5175400Y1740000D01*
G01X5140000Y1704600D01*
G54D72*
G01X5790000Y1811396D02*
G01X5728604Y1750000D01*
G01X5716718Y2850000D02*
G01X5420000Y2850000D01*
G01X5540000Y1620000D02*
G01X5483282Y1620000D01*
G01X5570000Y1650000D02*
G01X5540000Y1620000D01*
G01X5728604Y1750000D02*
G01X5598158Y1750000D01*
G01X5570000Y1721842D01*
G01X5570000Y1650000D01*
G54D11*
G01X5157410Y3310000D02*
G01X3958840Y3310000D01*
G01X3933440Y3284600D01*
G01X3933440Y2645400D01*
G01X4391799Y1271800D02*
G01X4330000Y1210000D01*
G01X4210000Y1310000D02*
G01X3470000Y1310000D01*
G01X3450000Y1290000D01*
G01X4280000Y1260000D02*
G01X3540000Y1260000D01*
G01X3500000Y1220000D01*
G01X3410000Y1220000D01*
G01X3370000Y1260000D01*
G01X3639891Y1530109D02*
G01X3680029Y1489971D01*
G01X3746698Y1489971D01*
G01X3639891Y1529891D02*
G01X3610000Y1500000D01*
G01X3450000Y1500000D01*
G01X3639891Y1739972D02*
G01X3639891Y1530109D01*
G54D72*
G01X2819987Y2650013D02*
G01X2702502Y2650013D01*
G01X2870787Y2599213D02*
G01X2819987Y2650013D01*
G01X3240000Y2050000D02*
G01X3240000Y2530000D01*
G01X3170787Y2599213D01*
G01X2870787Y2599213D01*
G01X2840800Y2519200D02*
G01X2790000Y2570000D01*
G01X3230000Y2680013D02*
G01X2909987Y2680013D01*
G01X2839987Y2750013D01*
G01X2702502Y2750013D01*
G01X3160000Y2000000D02*
G01X3160000Y2460000D01*
G01X3100800Y2519200D01*
G01X2840800Y2519200D01*
G01X2790000Y2570000D02*
G01X2590000Y2570000D01*
G01X2540000Y2620000D01*
G01X2540000Y2800000D01*
G01X2590013Y2850013D01*
G01X2702502Y2850013D01*
G01X3230000Y2895700D02*
G01X3175688Y2950012D01*
G01X2702502Y2950012D01*
G54D11*
G01X3370000Y1260000D02*
G01X2990000Y1260000D01*
G01X2970000Y1240000D01*
G01X3450000Y1290000D02*
G01X3430000Y1310000D01*
G01X2940000Y1310000D01*
G54D72*
G01X2900000Y1370000D02*
G01X4129200Y1370000D01*
G01X4180000Y1420800D01*
G54D11*
G01X2700000Y430000D02*
G01X2730000Y460000D01*
G01X2730000Y2150000D01*
G01X2690000Y2190000D01*
G54D72*
G01X2900000Y1370000D02*
G01X2840000Y1310000D01*
G01X2840000Y820000D01*
G01X2900000Y760000D01*
G54D11*
G01X2940000Y1310000D02*
G01X2900000Y1270000D01*
G01X2900000Y870000D01*
G01X2930000Y840000D01*
G01X2788400Y760000D02*
G01X2780000Y768400D01*
G01X2780000Y2190000D01*
G01X2720000Y2250000D01*
G01X2680000Y2090000D02*
G01X2630000Y2140000D01*
G01X2670000Y1743282D02*
G01X2680000Y1753282D01*
G01X2680000Y2090000D01*
G01X2270000Y3310000D02*
G01X2320000Y3360000D01*
G01X2720000Y2250000D02*
G01X2310000Y2250000D01*
G01X2270000Y2290000D01*
G01X2270000Y3310000D01*
G01X2690000Y2190000D02*
G01X2280000Y2190000D01*
G01X2220000Y2250000D01*
G01X2630000Y2140000D02*
G01X2220000Y2140000D01*
G01X2170000Y2190000D01*
G01X2170000Y3410000D01*
G01X2217328Y3457328D01*
G01X5292672Y3457328D01*
G01X2220000Y2250000D02*
G01X2220000Y3360000D01*
G01X2270000Y3410000D01*
G01X5240000Y3410000D01*
G01X5368201Y2141800D02*
G01X5368201Y1766222D01*
G01X5341979Y1740000D01*
G54D72*
G01X5000000Y2270000D02*
G01X5030000Y2240000D01*
G01X5390000Y2240000D01*
G01X5450000Y2180000D01*
G54D11*
G01X4330000Y1210000D02*
G01X4155400Y1210000D01*
G54D72*
G01X1116795Y716795D02*
G01X1170000Y663589D01*
G01X1170000Y450000D01*
G01X1230000Y390000D01*
G01X1317988Y390000D01*
G54D11*
G01X7083281Y2610000D02*
G01X7098275Y2624993D01*
G01X7779190Y2624993D01*
G01X7769190Y2474981D02*
G01X7098300Y2474981D01*
G01X7083281Y2730000D02*
G01X7150000Y2730000D01*
G54D72*
G01X7150000Y2850000D02*
G01X7083281Y2850000D01*
G54D73*
G01X7150000Y2250000D02*
G01X7083281Y2250000D01*
G54D11*
G01X7769166Y2724969D02*
G01X7155031Y2724969D01*
G01X7150000Y2730000D01*
G01X7769166Y2424970D02*
G01X7174970Y2424970D01*
G01X7150000Y2400000D01*
G01X7150000Y2370000D01*
G54D72*
G01X1116795Y716795D02*
G01X763798Y716795D01*
G01X727000Y679997D01*
G54D11*
G01X4155400Y1210000D02*
G01X4127000Y1181600D01*
G01X4127000Y679997D01*
G54D72*
G01X4460000Y1110000D02*
G01X4460000Y810000D01*
G01X4410000Y760000D01*
G54D70*
G01X2910000Y629146D02*
G01X3599146Y629146D01*
G01X3600000Y630000D01*
G54D72*
G01X4190000Y360000D02*
G01X4140000Y310000D01*
G01X3760800Y310000D01*
G01X3710000Y360800D01*
G01X3710000Y710000D01*
G01X3660000Y760000D01*
G01X2900000Y760000D01*
G01X4410000Y760000D02*
G01X4260000Y760000D01*
G01X4190000Y690000D01*
G01X4190000Y360000D01*
G54D73*
G01X7769141Y2789968D02*
G01X7610032Y2789968D01*
G54D72*
G01X7510000Y2790000D02*
G01X7210000Y2790000D01*
G01X7150000Y2850000D01*
G01X7610000Y2790000D02*
G01X7510000Y2790000D01*
G54D73*
G01X7510000Y2310000D02*
G01X7210000Y2310000D01*
G01X7150000Y2250000D01*
G01X7769141Y2309984D02*
G01X7610016Y2309984D01*
G54D72*
G01X7610000Y2310000D02*
G01X7510000Y2310000D01*
G54D11*
G01X6585000Y1719664D02*
G01X6639664Y1719664D01*
G01X6660000Y1740000D01*
G01X6680336Y1870336D02*
G01X6735000Y1870336D01*
G01X6660000Y1740000D02*
G01X6660000Y1850000D01*
G01X6680336Y1870336D01*
G54D70*
G01X4295336Y630000D02*
G01X4544664Y630000D01*
G01X4570000Y655337D01*
G54D11*
G01X6240337Y1719664D02*
G01X6585000Y1719664D01*
G01X6148561Y2111065D02*
G01X6200000Y2059626D01*
G01X6200000Y2020000D01*
G01X6200000Y1860000D02*
G01X6200000Y1760000D01*
G01X6240337Y1719664D01*
G54D72*
G01X6080000Y1936719D02*
G01X6286718Y1936719D01*
G01X6330587Y1980587D01*
G01X6330587Y2050000D01*
G54D11*
G01X7680000Y1024600D02*
G01X7654600Y1050000D01*
G01X7180000Y1050000D01*
G01X7654600Y600000D02*
G01X7680000Y625400D01*
G01X7680000Y1024600D01*
G01X7500000Y450001D02*
G01X7500000Y570000D01*
G01X7530000Y600000D01*
G01X7654600Y600000D01*
G01X7180000Y1050000D02*
G01X7120000Y1110000D01*
G01X7120000Y1680000D01*
G01X7080336Y1719664D01*
G01X6735000Y1719664D01*
G04 Track End*

M02*

