G04 Layer: BottomSilkscreenLayer*
G04 EasyEDA Pro v3.2.91, 2026-03-10 20:08:44*
G04 Gerber Generator version 0.3*
G04 Scale: 100 percent, Rotated: No, Reflected: No*
G04 Dimensions in millimeters*
G04 Leading zeros omitted, absolute positions, 4 integers and 5 decimals*
G04 Generated by one-click*
%FSLAX45Y45*%
%MOMM*%
%ADD10C,0.203*%
%ADD11C,0.5406*%
G75*


G04 Text Start*
G54D10*
G01X4483865Y149476D02*
G01X4483865Y83436D01*
G01X4487929Y71244D01*
G01X4491993Y67180D01*
G01X4500375Y62862D01*
G01X4508503Y62862D01*
G01X4516885Y67180D01*
G01X4520949Y71244D01*
G01X4525013Y83436D01*
G01X4525013Y91818D01*
G01X4443733Y149476D02*
G01X4443733Y62862D01*
G01X4443733Y62862D02*
G01X4394457Y62862D01*
G01X4292603Y128902D02*
G01X4296667Y137030D01*
G01X4305049Y145158D01*
G01X4313177Y149476D01*
G01X4329687Y149476D01*
G01X4337815Y145158D01*
G01X4346197Y137030D01*
G01X4350261Y128902D01*
G01X4354325Y116456D01*
G01X4354325Y95882D01*
G01X4350261Y83436D01*
G01X4346197Y75308D01*
G01X4337815Y67180D01*
G01X4329687Y62862D01*
G01X4313177Y62862D01*
G01X4305049Y67180D01*
G01X4296667Y75308D01*
G01X4292603Y83436D01*
G01X4211323Y149476D02*
G01X4211323Y83436D01*
G01X4215387Y71244D01*
G01X4219705Y67180D01*
G01X4227833Y62862D01*
G01X4235961Y62862D01*
G01X4244343Y67180D01*
G01X4248407Y71244D01*
G01X4252471Y83436D01*
G01X4252471Y91818D01*
G01X4171191Y149476D02*
G01X4171191Y62862D01*
G01X4171191Y62862D02*
G01X4121915Y62862D01*
G01X4020061Y128902D02*
G01X4024125Y137030D01*
G01X4032507Y145158D01*
G01X4040635Y149476D01*
G01X4057145Y149476D01*
G01X4065273Y145158D01*
G01X4073655Y137030D01*
G01X4077719Y128902D01*
G01X4081783Y116456D01*
G01X4081783Y95882D01*
G01X4077719Y83436D01*
G01X4073655Y75308D01*
G01X4065273Y67180D01*
G01X4057145Y62862D01*
G01X4040635Y62862D01*
G01X4032507Y67180D01*
G01X4024125Y75308D01*
G01X4020061Y83436D01*
G01X3938781Y149476D02*
G01X3938781Y83436D01*
G01X3942845Y71244D01*
G01X3947163Y67180D01*
G01X3955291Y62862D01*
G01X3963419Y62862D01*
G01X3971801Y67180D01*
G01X3975865Y71244D01*
G01X3979929Y83436D01*
G01X3979929Y91818D01*
G01X3898649Y149476D02*
G01X3898649Y62862D01*
G01X3898649Y62862D02*
G01X3849373Y62862D01*
G01X3747519Y128902D02*
G01X3751583Y137030D01*
G01X3759965Y145158D01*
G01X3768093Y149476D01*
G01X3784603Y149476D01*
G01X3792731Y145158D01*
G01X3801113Y137030D01*
G01X3805177Y128902D01*
G01X3809241Y116456D01*
G01X3809241Y95882D01*
G01X3805177Y83436D01*
G01X3801113Y75308D01*
G01X3792731Y67180D01*
G01X3784603Y62862D01*
G01X3768093Y62862D01*
G01X3759965Y67180D01*
G01X3751583Y75308D01*
G01X3747519Y83436D01*
G01X3666239Y149476D02*
G01X3666239Y83436D01*
G01X3670303Y71244D01*
G01X3674621Y67180D01*
G01X3682749Y62862D01*
G01X3690877Y62862D01*
G01X3699259Y67180D01*
G01X3703323Y71244D01*
G01X3707387Y83436D01*
G01X3707387Y91818D01*
G01X3626107Y149476D02*
G01X3626107Y62862D01*
G01X3626107Y62862D02*
G01X3576831Y62862D01*
G01X3474977Y128902D02*
G01X3479041Y137030D01*
G01X3487423Y145158D01*
G01X3495551Y149476D01*
G01X3512061Y149476D01*
G01X3520189Y145158D01*
G01X3528571Y137030D01*
G01X3532635Y128902D01*
G01X3536699Y116456D01*
G01X3536699Y95882D01*
G01X3532635Y83436D01*
G01X3528571Y75308D01*
G01X3520189Y67180D01*
G01X3512061Y62862D01*
G01X3495551Y62862D01*
G01X3487423Y67180D01*
G01X3479041Y75308D01*
G01X3474977Y83436D01*
G04 Text End*

M02*

